<svg id="svg" version="1.1" xmlns="http://www.w3.org/2000/svg" xmlns:xlink="http://www.w3.org/1999/xlink" width="400" height="400" viewBox="0, 0, 400,400"><g id="svgg"><path id="path0" d="M138.770 81.129 C 139.146 81.227,139.761 81.227,140.137 81.129 C 140.513 81.030,140.205 80.950,139.453 80.950 C 138.701 80.950,138.394 81.030,138.770 81.129 M160.254 81.129 C 160.630 81.227,161.245 81.227,161.621 81.129 C 161.997 81.030,161.689 80.950,160.938 80.950 C 160.186 80.950,159.878 81.030,160.254 81.129 M195.898 81.153 C 199.483 81.228,201.543 81.408,201.204 81.619 C 200.609 81.989,200.545 86.630,201.127 87.218 C 201.293 87.385,202.733 87.619,204.327 87.737 C 206.504 87.899,207.441 88.152,208.086 88.752 C 208.584 89.216,209.207 89.451,209.571 89.312 C 209.915 89.180,210.102 89.225,209.986 89.413 C 209.869 89.601,210.168 89.863,210.649 89.995 C 211.389 90.197,211.433 90.299,210.938 90.651 C 210.482 90.974,210.558 91.008,211.279 90.804 C 211.870 90.637,212.118 90.686,211.960 90.941 C 211.799 91.202,212.085 91.235,212.790 91.035 C 213.630 90.798,214.148 90.939,215.139 91.676 C 215.839 92.196,216.567 92.525,216.758 92.407 C 216.949 92.289,217.206 92.455,217.330 92.776 C 217.453 93.097,217.842 93.359,218.194 93.359 C 218.546 93.359,218.750 93.579,218.648 93.848 C 218.523 94.178,218.955 94.365,219.989 94.426 C 220.855 94.477,222.059 94.913,222.770 95.433 C 223.961 96.304,228.061 98.240,229.282 98.508 C 229.595 98.577,230.200 98.940,230.625 99.316 C 231.050 99.692,231.804 100.000,232.300 100.000 C 232.797 100.000,233.203 100.148,233.203 100.328 C 233.203 100.508,233.652 100.861,234.202 101.111 C 234.841 101.402,235.095 101.741,234.908 102.052 C 234.685 102.423,234.750 102.435,235.179 102.103 C 235.802 101.620,238.137 102.748,237.609 103.277 C 237.455 103.431,237.660 103.430,238.064 103.275 C 238.616 103.063,238.720 103.122,238.480 103.510 C 238.266 103.857,238.311 103.934,238.619 103.744 C 239.185 103.394,241.797 104.213,241.797 104.741 C 241.797 104.952,241.594 104.999,241.346 104.846 C 241.061 104.669,241.001 104.739,241.183 105.034 C 241.349 105.301,241.812 105.393,242.269 105.247 C 242.773 105.088,242.974 105.144,242.817 105.399 C 242.585 105.774,243.498 106.278,244.292 106.212 C 244.483 106.196,244.788 106.418,244.970 106.705 C 245.206 107.077,245.302 107.090,245.307 106.751 C 245.310 106.489,245.575 106.375,245.896 106.499 C 246.217 106.622,246.384 106.878,246.267 107.068 C 246.149 107.258,246.287 107.323,246.573 107.213 C 246.859 107.104,247.439 107.295,247.863 107.638 C 248.286 107.980,248.413 108.150,248.145 108.014 C 247.876 107.878,247.656 107.860,247.656 107.975 C 247.656 108.408,250.042 109.395,250.462 109.135 C 250.731 108.970,250.793 109.039,250.623 109.315 C 250.470 109.563,250.574 109.792,250.856 109.823 C 251.137 109.855,251.631 109.917,251.953 109.961 C 252.275 110.005,252.769 110.067,253.050 110.098 C 253.332 110.130,253.454 110.330,253.323 110.542 C 253.192 110.755,253.323 110.837,253.615 110.725 C 253.907 110.613,254.751 110.784,255.491 111.105 C 256.231 111.426,256.572 111.698,256.250 111.709 C 255.742 111.728,255.740 111.779,256.231 112.090 C 256.543 112.287,256.953 112.353,257.141 112.237 C 257.691 111.897,260.877 112.929,261.418 113.623 C 261.859 114.188,261.839 114.199,261.230 113.722 C 260.854 113.427,260.547 113.355,260.547 113.561 C 260.547 113.768,260.998 114.142,261.548 114.393 C 262.281 114.727,262.476 114.730,262.275 114.405 C 262.106 114.132,262.209 114.037,262.543 114.158 C 262.842 114.267,263.044 114.547,262.993 114.781 C 262.939 115.026,263.173 115.102,263.545 114.959 C 263.953 114.802,264.095 114.866,263.931 115.132 C 263.763 115.404,263.968 115.474,264.514 115.332 C 264.977 115.210,265.259 115.271,265.140 115.466 C 265.020 115.661,265.545 115.853,266.305 115.894 C 267.065 115.934,267.863 116.144,268.079 116.360 C 268.342 116.624,268.164 116.677,267.537 116.522 C 267.022 116.395,266.714 116.415,266.852 116.567 C 266.990 116.719,267.957 116.930,269.001 117.036 C 270.202 117.157,271.132 117.501,271.534 117.972 C 271.883 118.382,272.278 118.607,272.412 118.473 C 272.547 118.339,272.656 118.453,272.656 118.727 C 272.656 119.013,272.910 119.127,273.254 118.995 C 274.042 118.692,276.952 119.870,276.843 120.448 C 276.796 120.696,276.978 120.854,277.246 120.801 C 277.515 120.747,277.737 120.923,277.740 121.191 C 277.744 121.517,277.873 121.484,278.125 121.094 C 278.377 120.703,278.506 120.671,278.510 120.996 C 278.513 121.265,278.742 121.484,279.019 121.484 C 279.917 121.484,283.334 125.268,283.066 125.967 C 282.928 126.324,282.984 126.503,283.193 126.374 C 284.351 125.658,285.483 130.168,284.581 131.902 C 284.264 132.510,283.696 133.711,283.319 134.570 C 282.046 137.471,275.632 142.188,272.960 142.187 C 272.562 142.187,272.489 144.756,272.598 154.835 C 272.691 163.358,272.598 167.738,272.315 168.266 C 271.952 168.946,272.097 169.183,273.401 170.046 C 279.972 174.395,281.540 182.771,277.136 189.994 L 275.483 192.704 276.118 194.106 C 276.657 195.295,276.754 197.197,276.756 206.641 L 276.758 217.773 275.684 219.810 C 273.264 224.401,267.939 227.734,263.024 227.734 C 262.961 227.734,263.081 228.185,263.291 228.736 C 263.893 230.319,263.759 230.326,262.350 228.787 C 261.622 227.993,260.888 227.344,260.717 227.344 C 258.999 227.344,253.044 221.961,251.425 218.945 C 250.465 217.157,249.930 197.932,250.736 194.199 C 251.089 192.565,251.035 192.245,250.192 191.016 C 249.076 189.387,248.049 187.016,248.041 186.048 C 248.024 184.100,247.356 184.170,245.043 186.362 C 237.400 193.608,224.025 199.274,209.180 201.555 C 190.186 204.474,165.670 197.348,154.632 185.701 C 153.051 184.033,151.230 182.141,150.586 181.498 C 149.941 180.855,149.636 180.459,149.906 180.619 C 150.329 180.869,148.279 177.499,147.676 176.953 C 147.558 176.846,147.407 176.494,147.341 176.172 C 147.275 175.850,146.747 174.443,146.169 173.047 C 145.119 170.512,145.117 170.492,145.117 160.313 L 145.117 150.118 140.430 148.046 C 137.852 146.906,132.754 144.758,129.102 143.272 C 125.449 141.785,122.098 140.230,121.655 139.816 C 121.211 139.402,120.586 139.063,120.266 139.063 C 119.423 139.063,117.358 136.765,116.648 135.038 C 115.349 131.874,116.240 125.724,117.944 126.096 C 118.408 126.198,118.410 126.118,117.958 125.573 C 117.492 125.011,117.521 124.947,118.185 125.063 C 118.753 125.162,118.920 124.997,118.844 124.414 C 118.744 123.634,121.228 121.552,121.980 121.787 C 122.169 121.846,122.225 121.734,122.104 121.538 C 121.775 121.007,122.945 120.190,123.648 120.460 C 124.032 120.607,124.161 120.535,123.995 120.266 C 123.824 119.990,123.989 119.919,124.463 120.066 C 124.866 120.192,125.459 120.106,125.781 119.876 C 126.254 119.538,126.216 119.507,125.586 119.713 C 125.014 119.900,124.920 119.852,125.235 119.534 C 125.614 119.152,126.846 118.861,128.441 118.777 C 128.729 118.762,128.829 118.551,128.670 118.293 C 128.478 117.983,128.603 117.919,129.058 118.093 C 129.428 118.235,129.629 118.190,129.506 117.991 C 129.384 117.794,129.463 117.522,129.681 117.387 C 129.899 117.252,130.078 117.328,130.078 117.555 C 130.078 117.783,130.264 117.969,130.492 117.969 C 130.719 117.969,130.778 117.763,130.623 117.512 C 130.431 117.202,130.556 117.137,131.011 117.312 C 131.410 117.465,131.584 117.412,131.442 117.182 C 131.180 116.758,133.063 115.903,133.751 116.135 C 133.987 116.214,134.412 116.000,134.697 115.659 C 134.981 115.318,135.104 115.257,134.970 115.523 C 134.809 115.841,134.932 115.927,135.329 115.775 C 135.661 115.647,135.847 115.404,135.742 115.234 C 135.513 114.864,136.657 114.369,137.104 114.645 C 137.277 114.752,137.527 114.557,137.659 114.211 C 137.812 113.813,138.185 113.658,138.677 113.786 C 139.171 113.916,139.359 113.836,139.194 113.569 C 139.028 113.300,139.177 113.241,139.605 113.406 C 139.973 113.547,140.179 113.508,140.062 113.318 C 139.816 112.921,140.929 112.400,141.401 112.692 C 141.574 112.799,141.823 112.605,141.955 112.262 C 142.090 111.909,142.445 111.734,142.772 111.859 C 143.095 111.983,143.309 111.882,143.257 111.630 C 143.206 111.381,144.272 110.774,145.626 110.281 C 146.980 109.788,147.969 109.575,147.825 109.809 C 147.644 110.102,147.820 110.096,148.390 109.791 C 148.846 109.547,149.219 109.255,149.219 109.143 C 149.219 109.030,149.043 109.047,148.828 109.180 C 148.613 109.312,148.438 109.214,148.438 108.962 C 148.438 108.698,148.764 108.588,149.205 108.703 C 149.660 108.822,149.939 108.722,149.889 108.456 C 149.843 108.210,150.244 108.002,150.781 107.995 C 152.216 107.977,153.513 107.442,153.410 106.910 C 153.361 106.654,153.705 106.458,154.176 106.474 C 154.647 106.490,154.998 106.348,154.957 106.159 C 154.916 105.970,156.322 105.238,158.080 104.532 C 159.838 103.826,161.728 102.953,162.279 102.592 C 163.406 101.853,163.652 102.161,162.598 102.991 C 162.000 103.461,162.045 103.472,162.957 103.083 C 163.531 102.838,163.917 102.418,163.814 102.151 C 163.712 101.884,163.945 101.550,164.333 101.409 C 166.920 100.469,168.337 98.438,166.406 98.438 C 165.885 98.438,165.625 98.177,165.625 97.656 C 165.625 97.135,165.365 96.875,164.844 96.875 C 164.323 96.875,164.063 96.615,164.063 96.094 C 164.063 95.573,163.802 95.313,163.281 95.313 C 162.760 95.313,162.500 95.052,162.500 94.531 C 162.500 94.010,162.240 93.750,161.719 93.750 C 161.198 93.750,160.938 93.490,160.938 92.969 C 160.938 92.448,160.677 92.188,160.156 92.188 C 159.722 92.188,159.375 91.927,159.375 91.602 C 159.375 90.700,156.097 90.823,154.769 91.774 C 154.187 92.191,152.744 92.818,151.563 93.168 C 150.381 93.517,148.623 94.161,147.656 94.600 C 146.689 95.039,142.998 96.357,139.453 97.531 C 133.419 99.528,127.705 102.022,127.409 102.789 C 127.337 102.974,127.074 103.126,126.823 103.128 C 126.572 103.129,125.928 103.788,125.391 104.593 C 123.870 106.869,121.821 109.545,121.387 109.820 C 121.171 109.957,121.132 110.308,121.302 110.601 C 121.471 110.893,121.479 111.015,121.319 110.872 C 121.025 110.608,120.364 111.074,118.388 112.936 C 117.792 113.498,116.741 115.311,116.052 116.965 C 114.548 120.579,113.156 123.149,111.686 125.025 C 111.087 125.791,110.388 126.874,110.133 127.433 C 109.879 127.992,109.335 128.537,108.926 128.644 C 108.516 128.751,108.214 128.986,108.255 129.166 C 108.296 129.345,108.125 129.987,107.876 130.592 C 107.626 131.197,107.422 131.944,107.422 132.252 C 107.422 132.632,106.982 132.813,106.055 132.813 C 104.905 132.813,104.683 132.953,104.660 133.691 C 104.634 134.525,104.616 134.530,104.321 133.789 C 104.139 133.332,103.898 136.167,103.739 140.625 C 103.589 144.814,103.383 150.000,103.280 152.148 C 102.914 159.780,102.806 212.892,103.157 212.676 C 103.357 212.552,103.398 213.247,103.254 214.299 C 103.052 215.771,103.105 216.074,103.521 215.817 C 103.895 215.586,103.971 215.673,103.794 216.134 C 103.660 216.485,103.718 216.876,103.923 217.003 C 104.129 217.130,104.294 217.443,104.291 217.699 C 104.287 217.986,104.124 217.940,103.863 217.578 C 103.513 217.091,103.481 217.113,103.674 217.708 C 103.802 218.101,103.909 218.717,103.912 219.075 C 103.917 219.642,103.972 219.651,104.334 219.141 C 104.653 218.692,104.694 218.814,104.508 219.662 C 104.357 220.352,104.412 220.678,104.654 220.529 C 105.025 220.299,105.801 222.606,105.763 223.828 C 105.688 226.223,111.490 234.926,115.964 239.130 C 120.284 243.190,123.980 245.232,131.445 247.681 L 136.523 249.348 146.529 249.516 L 156.535 249.685 156.831 261.659 C 156.994 268.245,157.110 277.382,157.090 281.965 L 157.054 290.297 158.289 289.515 C 161.911 287.221,193.084 255.165,194.703 252.069 C 196.084 249.428,193.372 249.641,228.711 249.398 C 265.420 249.146,266.199 249.084,273.612 245.839 C 285.103 240.809,292.946 231.694,296.241 219.540 L 297.461 215.039 297.566 166.414 C 297.660 122.800,297.606 117.467,297.036 114.657 C 296.091 109.991,294.612 105.583,293.900 105.310 C 293.546 105.174,293.375 104.821,293.502 104.489 C 293.625 104.168,293.545 103.906,293.324 103.906 C 293.103 103.906,293.031 103.730,293.164 103.516 C 293.297 103.301,293.209 103.125,292.969 103.125 C 292.729 103.125,292.615 102.991,292.716 102.827 C 292.817 102.663,292.658 102.092,292.362 101.558 C 292.067 101.023,291.818 100.757,291.811 100.966 C 291.792 101.492,290.569 99.697,290.465 98.990 C 290.419 98.674,290.246 98.432,290.081 98.451 C 289.916 98.470,289.157 97.684,288.393 96.704 C 287.630 95.724,286.853 94.922,286.666 94.922 C 286.480 94.922,286.328 94.736,286.328 94.508 C 286.328 94.281,286.548 94.218,286.816 94.369 C 287.085 94.520,286.521 93.828,285.563 92.830 C 283.861 91.057,282.778 90.248,284.180 91.797 C 284.569 92.227,284.714 92.578,284.503 92.578 C 284.292 92.578,283.178 91.567,282.027 90.332 C 280.877 89.097,280.069 88.350,280.232 88.672 C 280.395 88.994,280.204 88.893,279.807 88.447 C 279.410 88.000,278.886 87.702,278.641 87.784 C 278.397 87.865,278.065 87.720,277.905 87.460 C 277.708 87.141,277.779 87.091,278.125 87.305 C 278.456 87.509,278.542 87.468,278.368 87.187 C 278.221 86.948,277.855 86.847,277.557 86.961 C 277.250 87.079,276.817 86.804,276.563 86.328 C 276.292 85.823,275.881 85.575,275.536 85.707 C 275.219 85.829,275.051 85.780,275.163 85.600 C 275.275 85.419,274.921 85.068,274.377 84.820 C 273.595 84.463,273.448 84.472,273.675 84.860 C 273.833 85.131,273.610 85.044,273.180 84.667 C 272.750 84.291,272.280 84.100,272.136 84.244 C 271.993 84.388,271.875 84.281,271.875 84.008 C 271.875 83.719,271.621 83.608,271.269 83.743 C 270.876 83.894,270.760 83.818,270.939 83.528 C 271.127 83.223,270.946 83.151,270.373 83.300 C 269.909 83.422,269.629 83.362,269.749 83.167 C 269.869 82.972,269.796 82.813,269.587 82.813 C 269.377 82.813,269.117 83.032,269.009 83.301 C 268.891 83.592,268.799 83.514,268.781 83.105 C 268.764 82.729,268.564 82.422,268.336 82.422 C 268.109 82.422,268.030 82.596,268.161 82.808 C 268.298 83.029,268.142 83.095,267.796 82.962 C 267.464 82.835,267.278 82.592,267.382 82.422 C 268.357 80.845,249.357 80.505,210.352 81.400 C 206.119 81.497,204.021 81.447,205.469 81.282 C 207.107 81.096,204.821 81.001,199.023 81.013 C 193.406 81.025,192.235 81.078,195.898 81.153 M137.500 82.133 L 136.523 82.577 137.793 82.720 C 138.491 82.798,139.063 82.988,139.063 83.143 C 139.063 83.297,139.886 83.460,140.893 83.504 C 142.824 83.588,142.795 83.196,140.820 82.515 C 140.176 82.293,139.385 82.016,139.063 81.900 C 138.740 81.784,138.037 81.889,137.500 82.133 M189.551 82.929 C 191.180 83.573,190.909 84.375,189.063 84.375 C 187.760 84.375,187.500 84.505,187.500 85.156 C 187.500 85.851,187.760 85.938,189.844 85.938 L 192.188 85.938 192.188 84.421 C 192.188 82.800,191.611 82.389,189.453 82.469 L 188.477 82.505 189.551 82.929 M185.938 87.109 C 185.938 87.324,186.816 87.500,187.891 87.500 C 188.965 87.500,189.844 87.676,189.844 87.891 C 189.844 88.105,190.107 88.281,190.430 88.281 C 190.752 88.281,191.016 88.457,191.016 88.672 C 191.016 88.887,191.279 89.063,191.602 89.063 C 192.379 89.063,192.342 88.680,191.504 88.044 C 190.873 87.565,190.872 87.524,191.481 87.512 C 194.103 87.463,192.040 86.719,189.281 86.719 C 187.312 86.719,185.938 86.879,185.938 87.109 M199.707 88.170 C 200.298 88.260,201.265 88.260,201.855 88.170 C 202.446 88.081,201.963 88.008,200.781 88.008 C 199.600 88.008,199.116 88.081,199.707 88.170 M168.359 98.828 C 167.886 99.134,167.942 99.208,168.652 99.213 C 169.136 99.216,169.531 99.043,169.531 98.828 C 169.531 98.339,169.117 98.339,168.359 98.828 M156.836 105.447 C 155.977 105.854,155.449 106.188,155.664 106.189 C 156.197 106.193,159.279 104.750,158.789 104.727 C 158.574 104.716,157.695 105.041,156.836 105.447 M102.907 132.617 C 102.907 139.063,102.961 141.754,103.026 138.598 C 103.092 135.443,103.092 130.169,103.027 126.880 C 102.961 123.590,102.908 126.172,102.907 132.617 M116.518 131.055 C 116.521 132.129,116.597 132.522,116.687 131.928 C 116.776 131.334,116.774 130.456,116.681 129.975 C 116.589 129.495,116.515 129.980,116.518 131.055 M255.817 155.056 C 254.721 156.265,254.349 167.969,255.407 167.969 C 257.647 167.969,258.846 165.743,259.125 161.075 C 259.474 155.212,258.040 152.603,255.817 155.056 M178.699 216.126 C 183.086 218.610,183.259 224.537,179.031 227.486 C 172.295 232.185,164.176 223.782,169.425 217.544 C 171.482 215.099,175.738 214.448,178.699 216.126 M202.148 215.673 C 203.008 215.911,203.799 216.130,203.906 216.159 C 205.857 216.681,208.331 224.609,206.543 224.609 C 206.382 224.609,206.250 224.844,206.250 225.132 C 206.250 225.865,203.026 228.808,202.438 228.612 C 202.171 228.523,201.953 228.641,201.953 228.874 C 201.953 229.106,201.733 229.253,201.465 229.199 C 201.128 229.132,200.907 229.947,200.753 231.836 L 200.529 234.570 200.460 231.738 C 200.400 229.295,200.294 228.906,199.686 228.906 C 198.013 228.906,194.904 226.886,194.061 225.251 C 191.079 219.467,195.776 213.903,202.148 215.673 M228.311 215.937 C 228.420 216.222,228.661 216.362,228.846 216.248 C 229.781 215.670,231.764 219.622,231.901 222.334 C 232.054 225.370,231.518 226.197,228.349 227.818 C 226.431 228.798,221.875 228.938,221.875 228.017 C 221.875 227.836,221.719 227.785,221.528 227.903 C 221.093 228.171,219.288 225.838,218.534 224.035 C 217.957 222.653,217.885 218.652,218.443 218.997 C 218.612 219.101,218.750 218.943,218.750 218.646 C 218.750 216.342,227.513 213.859,228.311 215.937 M174.984 263.897 C 174.026 264.881,172.891 265.857,172.461 266.068 C 172.031 266.279,172.699 265.474,173.944 264.280 C 176.672 261.665,177.430 261.386,174.984 263.897 M167.329 271.588 C 164.965 274.002,162.637 276.548,162.153 277.246 C 160.958 278.973,160.547 278.842,160.547 276.735 C 160.547 275.755,160.694 275.045,160.874 275.156 C 161.054 275.267,161.863 274.681,162.671 273.853 C 163.480 273.025,164.607 272.252,165.176 272.136 C 165.745 272.019,167.354 270.801,168.750 269.429 C 173.001 265.251,171.911 266.907,167.329 271.588 " stroke="none" fill="#30b985" fill-rule="evenodd"></path><path id="path1" d="M142.969 71.491 C 118.505 72.444,99.853 88.075,94.466 112.138 L 93.555 116.211 93.555 165.625 C 93.555 219.147,93.472 216.908,95.714 223.828 C 102.401 244.465,121.406 258.947,141.842 258.978 L 146.379 258.984 146.595 277.246 C 146.833 297.396,146.833 297.392,149.320 300.217 C 152.770 304.137,157.593 303.349,162.962 297.986 C 164.542 296.408,169.082 292.041,173.052 288.281 C 182.856 278.995,192.178 269.902,197.722 264.217 L 202.333 259.488 229.585 259.212 C 259.488 258.909,263.480 258.710,269.507 257.229 C 288.933 252.453,302.489 238.145,306.518 218.164 C 307.455 213.513,307.625 119.468,306.704 114.648 C 302.498 92.631,287.868 77.070,266.602 71.995 C 263.632 71.286,159.162 70.861,142.969 71.491 M266.265 81.862 C 281.524 86.282,292.385 96.976,296.386 111.523 L 297.461 115.430 297.461 165.234 L 297.461 215.039 296.241 219.540 C 292.946 231.694,285.103 240.809,273.612 245.839 C 266.199 249.084,265.420 249.146,228.711 249.398 C 193.372 249.641,196.084 249.428,194.703 252.069 C 193.415 254.533,185.433 263.007,170.531 277.734 C 158.319 289.804,157.470 290.625,157.218 290.625 C 157.126 290.625,157.067 286.802,157.089 282.129 C 157.110 277.456,156.994 268.245,156.831 261.659 L 156.535 249.685 146.529 249.516 L 136.523 249.348 131.445 247.681 C 117.019 242.948,108.059 233.649,103.994 219.194 L 102.936 215.430 102.813 169.531 C 102.684 120.792,102.770 117.820,104.500 111.370 C 108.046 98.146,118.392 86.971,130.900 82.854 C 137.017 80.841,134.093 80.924,200.640 80.890 L 262.803 80.859 266.265 81.862 M194.790 89.110 C 193.321 89.520,189.366 91.110,186.001 92.643 C 171.459 99.269,162.396 103.347,158.203 105.150 C 155.732 106.212,151.953 107.934,149.805 108.976 C 143.859 111.860,131.973 117.281,127.035 119.361 C 112.706 125.397,113.099 136.823,127.838 142.743 C 130.896 143.971,136.035 146.132,139.258 147.546 L 145.117 150.115 144.988 159.204 C 144.844 169.393,145.064 170.900,147.423 175.871 C 153.786 189.280,171.075 199.304,192.078 201.760 C 210.726 203.942,233.626 197.242,245.177 186.225 L 247.581 183.933 248.009 185.931 C 248.452 187.996,249.213 189.714,250.436 191.406 C 251.035 192.236,251.081 192.655,250.743 194.199 C 249.929 197.906,250.460 217.148,251.425 218.945 C 253.044 221.961,258.999 227.344,260.717 227.344 C 260.888 227.344,261.622 227.993,262.350 228.787 C 263.759 230.326,263.893 230.319,263.291 228.736 C 263.081 228.185,262.961 227.734,263.024 227.734 C 267.802 227.734,273.093 224.532,275.427 220.229 L 276.758 217.773 276.756 206.641 C 276.754 197.001,276.665 195.311,276.090 194.037 C 275.430 192.576,275.433 192.555,276.538 190.912 C 281.587 183.408,280.260 174.586,273.401 170.046 C 272.097 169.183,271.952 168.946,272.315 168.266 C 272.598 167.738,272.691 163.358,272.598 154.835 C 272.489 144.756,272.562 142.187,272.960 142.187 C 274.164 142.188,279.547 139.223,281.019 137.750 C 287.896 130.863,284.167 123.477,271.228 118.358 C 268.469 117.266,265.156 115.918,263.867 115.364 C 262.578 114.809,259.678 113.579,257.422 112.630 C 255.166 111.682,251.035 109.790,248.242 108.425 C 245.449 107.061,242.285 105.551,241.211 105.071 C 237.982 103.628,227.642 98.781,219.336 94.816 C 205.867 88.387,201.240 87.312,194.790 89.110 M207.653 98.554 C 209.997 99.515,215.342 101.927,219.531 103.912 C 223.721 105.898,230.049 108.886,233.594 110.552 C 237.139 112.219,243.115 115.029,246.875 116.797 C 254.433 120.351,258.324 122.020,266.898 125.384 C 276.126 129.006,277.636 130.959,273.047 133.342 C 271.865 133.955,270.060 134.961,269.035 135.577 L 267.172 136.696 266.548 135.136 C 265.630 132.842,263.328 131.096,257.422 128.214 L 252.148 125.641 244.531 125.355 C 240.342 125.197,231.377 125.051,224.609 125.029 C 210.427 124.983,210.658 125.014,210.307 123.140 C 208.797 115.095,194.588 115.329,190.249 123.470 C 184.630 134.011,199.867 143.340,208.957 134.924 L 211.237 132.813 229.076 132.813 L 246.915 132.813 250.515 134.345 C 253.993 135.825,258.785 138.343,259.554 139.094 C 260.178 139.704,259.044 140.411,254.297 142.374 C 248.286 144.860,240.015 148.457,228.906 153.417 C 223.857 155.671,216.475 158.967,212.500 160.742 C 203.747 164.650,201.741 165.355,200.200 165.066 C 198.122 164.676,184.778 159.186,178.320 156.064 C 172.771 153.381,154.860 145.313,154.454 145.313 C 154.367 145.313,150.737 143.666,146.387 141.653 C 142.036 139.640,136.367 137.073,133.789 135.947 C 126.775 132.885,126.551 132.768,125.917 131.800 C 124.433 129.535,124.286 129.632,138.867 123.234 C 141.660 122.008,145.392 120.322,147.160 119.487 C 148.928 118.652,150.460 117.969,150.563 117.969 C 150.667 117.969,154.494 116.142,159.067 113.909 C 163.641 111.676,168.613 109.318,170.117 108.668 C 171.621 108.019,176.367 105.874,180.664 103.902 C 199.202 95.395,199.710 95.294,207.653 98.554 M203.431 125.394 C 206.123 127.036,204.564 131.641,201.316 131.641 C 200.286 131.641,197.431 129.261,197.061 128.095 C 196.186 125.340,200.407 123.551,203.431 125.394 M159.570 156.288 C 162.578 157.597,166.182 159.154,167.578 159.748 C 168.975 160.342,173.984 162.590,178.711 164.743 C 195.050 172.186,198.967 173.507,202.506 172.764 C 205.541 172.128,211.133 169.733,235.703 158.547 C 240.838 156.209,245.232 154.297,245.469 154.297 C 246.038 154.298,246.252 164.466,245.762 168.214 C 244.076 181.107,226.081 191.947,203.352 193.762 C 182.973 195.389,159.362 184.411,154.358 170.981 C 153.329 168.221,153.067 153.887,154.046 153.907 C 154.076 153.908,156.563 154.979,159.570 156.288 M258.696 155.511 C 260.751 159.121,258.415 167.969,255.407 167.969 C 254.349 167.969,254.721 156.265,255.817 155.056 C 256.799 153.971,257.921 154.149,258.696 155.511 M266.763 175.373 C 273.336 178.727,271.916 188.713,264.727 189.698 C 258.023 190.617,253.200 183.126,256.944 177.609 C 258.917 174.703,263.433 173.674,266.763 175.373 M268.134 198.584 C 268.807 201.941,268.366 215.300,267.545 216.452 C 265.486 219.344,263.138 219.582,260.400 217.177 L 258.984 215.935 258.984 206.698 L 258.984 197.461 263.447 197.461 L 267.910 197.461 268.134 198.584 M231.347 225.098 C 230.927 226.245,230.938 226.294,231.457 225.609 C 231.954 224.953,232.247 223.828,231.922 223.828 C 231.861 223.828,231.603 224.399,231.347 225.098 M200.444 231.738 C 200.500 234.721,200.675 234.395,200.864 230.957 C 200.926 229.829,200.845 228.906,200.684 228.906 C 200.522 228.906,200.415 230.181,200.444 231.738 " stroke="none" fill="#153e4c" fill-rule="evenodd"></path><path id="path2" d="M0.000 200.000 L 0.000 400.000 200.000 400.000 L 400.000 400.000 400.000 200.000 L 400.000 0.000 200.000 0.000 L 0.000 0.000 0.000 200.000 M265.966 71.719 C 286.767 75.471,303.193 92.538,306.849 114.196 C 307.377 117.320,307.439 124.088,307.339 167.578 L 307.225 217.383 305.959 222.070 C 301.326 239.218,288.887 251.977,272.070 256.829 C 264.264 259.082,264.664 259.057,232.739 259.261 L 203.174 259.449 193.859 268.689 C 188.736 273.771,181.742 280.566,178.317 283.789 C 174.892 287.012,169.352 292.301,166.007 295.543 C 159.039 302.296,157.941 302.933,153.731 302.665 C 146.986 302.236,146.139 298.802,146.108 271.777 L 146.094 259.375 142.802 259.375 C 120.596 259.375,100.930 243.938,94.621 221.556 L 93.555 217.773 93.555 165.820 L 93.555 113.867 94.689 109.570 C 99.686 90.629,113.166 77.461,132.990 72.156 C 138.129 70.780,258.569 70.385,265.966 71.719 M198.005 96.897 C 196.159 97.334,188.813 100.405,181.250 103.903 C 177.920 105.443,174.316 107.110,173.242 107.606 C 172.168 108.103,169.268 109.430,166.797 110.554 C 164.326 111.679,159.668 113.869,156.445 115.421 C 150.245 118.407,143.782 121.399,139.258 123.379 C 126.099 129.135,125.982 129.195,125.850 130.280 C 125.680 131.668,126.631 132.636,129.057 133.544 C 131.809 134.575,143.890 139.934,147.995 141.944 C 149.849 142.853,153.037 144.268,155.078 145.088 C 157.119 145.908,159.844 147.099,161.133 147.734 C 162.422 148.369,166.289 150.117,169.727 151.620 C 173.164 153.122,176.636 154.688,177.441 155.099 C 178.602 155.692,178.906 155.733,178.906 155.300 C 178.906 154.999,179.126 154.657,179.395 154.540 C 179.663 154.423,179.443 154.410,178.906 154.509 C 178.183 154.644,177.536 154.333,176.410 153.312 C 174.688 151.748,174.676 151.365,176.376 152.144 C 180.433 154.006,182.365 154.844,186.719 156.633 C 189.404 157.737,193.590 159.524,196.021 160.605 L 200.440 162.571 203.052 161.208 C 204.489 160.459,208.477 158.677,211.914 157.250 C 215.352 155.822,219.520 154.046,221.176 153.303 C 222.833 152.561,224.290 151.953,224.415 151.953 C 224.540 151.953,225.785 151.419,227.181 150.766 C 228.578 150.113,231.691 148.727,234.099 147.685 C 240.766 144.801,248.768 141.133,251.243 139.826 C 253.270 138.756,257.807 138.228,257.807 139.063 C 257.807 139.353,254.969 141.232,254.760 141.080 C 254.661 141.008,254.472 141.102,254.341 141.290 C 254.004 141.770,250.736 142.987,250.378 142.765 C 250.215 142.665,249.986 142.832,249.869 143.137 C 249.635 143.746,251.332 143.234,256.250 141.211 C 259.359 139.931,259.735 139.607,258.858 138.966 C 257.837 138.220,253.721 136.166,249.805 134.448 L 246.289 132.906 228.623 133.043 L 210.957 133.180 209.507 134.784 C 201.298 143.870,184.574 134.793,189.608 123.984 C 193.599 115.412,208.599 114.405,210.384 122.589 C 210.510 123.163,210.669 123.825,210.739 124.060 C 210.827 124.357,216.810 124.572,230.335 124.766 C 252.429 125.083,251.355 124.951,257.950 128.158 C 263.355 130.786,266.118 132.904,266.787 134.931 L 267.222 136.250 269.428 134.922 C 270.641 134.191,271.820 133.591,272.047 133.588 C 272.275 133.584,272.213 133.425,271.909 133.233 C 271.551 133.006,271.164 133.077,270.807 133.434 C 270.504 133.737,269.918 133.984,269.503 133.984 C 269.089 133.984,268.750 134.165,268.750 134.385 C 268.750 134.615,268.262 134.533,267.603 134.192 C 266.321 133.529,265.465 132.518,266.533 132.927 C 266.922 133.077,267.141 132.994,267.085 132.720 C 266.930 131.958,273.489 129.532,274.313 130.046 C 274.719 130.300,275.000 130.321,275.000 130.098 C 275.000 129.483,271.746 127.758,267.071 125.893 C 264.664 124.934,261.729 123.703,260.547 123.159 C 259.365 122.615,257.520 121.858,256.445 121.478 C 254.619 120.832,252.892 120.052,244.238 115.963 C 242.358 115.075,237.744 112.900,233.984 111.131 C 230.225 109.361,224.951 106.859,222.266 105.571 C 208.756 99.092,200.028 95.633,199.440 96.524 C 199.426 96.545,198.780 96.713,198.005 96.897 M198.047 125.781 C 196.399 127.429,198.628 131.250,201.237 131.250 C 202.877 131.250,204.688 129.082,204.688 127.117 C 204.688 125.330,199.535 124.294,198.047 125.781 M149.272 140.805 C 149.994 141.119,150.322 141.376,150.000 141.377 C 149.437 141.379,147.201 140.277,147.709 140.248 C 147.846 140.241,148.549 140.491,149.272 140.805 M154.387 142.442 C 156.898 143.412,157.123 143.873,154.677 143.038 C 151.335 141.896,151.264 141.863,152.043 141.828 C 152.415 141.811,153.469 142.087,154.387 142.442 M161.738 145.908 C 162.372 146.236,162.891 146.579,162.891 146.669 C 162.891 146.951,160.558 146.037,160.328 145.665 C 160.015 145.158,160.424 145.229,161.738 145.908 M153.906 161.509 C 153.906 171.148,154.963 174.038,160.428 179.353 C 168.391 187.096,186.024 193.750,198.581 193.750 L 200.502 193.750 200.251 191.349 C 200.113 190.028,199.999 187.699,199.998 186.173 L 199.997 183.398 195.799 181.205 C 193.491 179.998,190.020 178.132,188.086 177.058 C 186.152 175.984,181.846 173.643,178.516 171.856 C 175.186 170.070,171.101 167.761,169.438 166.726 C 167.775 165.691,166.252 164.844,166.052 164.844 C 165.853 164.844,165.632 164.712,165.560 164.551 C 165.488 164.390,164.118 163.379,162.515 162.305 C 158.824 159.831,155.140 156.436,154.836 155.228 C 154.224 152.786,153.906 154.929,153.906 161.509 M238.672 157.617 C 238.135 157.924,237.871 158.175,238.086 158.175 C 238.301 158.175,238.916 157.924,239.453 157.617 C 239.990 157.310,240.254 157.059,240.039 157.059 C 239.824 157.059,239.209 157.310,238.672 157.617 M215.527 158.427 C 214.937 158.747,214.453 159.079,214.453 159.165 C 214.453 159.394,216.624 158.732,217.452 158.251 C 218.649 157.554,216.828 157.721,215.527 158.427 M188.281 159.737 C 188.281 160.033,189.150 160.444,191.199 161.117 C 192.421 161.518,191.566 160.884,189.848 160.115 C 188.986 159.729,188.281 159.559,188.281 159.737 M211.816 160.168 C 210.508 160.694,210.753 160.961,212.109 160.488 C 212.754 160.264,213.281 160.009,213.281 159.923 C 213.281 159.691,212.806 159.771,211.816 160.168 M192.333 161.408 C 192.173 161.668,192.246 161.729,192.518 161.561 C 192.766 161.407,192.969 161.451,192.969 161.657 C 192.969 161.864,193.496 162.217,194.141 162.441 C 195.683 162.979,195.622 162.760,193.956 161.777 C 193.029 161.230,192.516 161.113,192.333 161.408 M200.977 164.453 L 199.414 164.733 200.781 164.761 C 201.533 164.776,202.500 164.638,202.930 164.453 C 203.850 164.058,203.186 164.058,200.977 164.453 M260.412 175.179 C 254.649 177.234,254.292 185.625,259.844 188.514 C 261.624 189.440,262.116 189.260,261.593 187.873 C 261.097 186.560,261.563 185.957,263.086 185.942 C 264.840 185.924,266.575 183.489,267.367 179.932 C 267.596 178.907,267.660 178.869,268.121 179.499 C 268.591 180.143,268.641 180.144,268.880 179.522 C 269.020 179.156,269.312 178.966,269.528 179.100 C 270.419 179.650,269.832 178.452,268.615 177.234 C 266.113 174.732,263.501 174.078,260.412 175.179 M264.258 189.063 L 262.305 189.330 264.063 189.386 C 265.029 189.416,266.084 189.271,266.406 189.063 C 266.729 188.854,266.816 188.709,266.602 188.739 C 266.387 188.770,265.332 188.915,264.258 189.063 M259.375 206.744 L 259.375 215.935 260.749 217.141 C 262.982 219.102,265.137 219.030,266.825 216.939 C 267.356 216.281,267.336 216.280,266.417 216.913 C 265.886 217.279,265.271 217.578,265.050 217.578 C 264.469 217.578,264.418 198.731,264.998 198.346 C 265.235 198.188,264.727 198.054,263.867 198.049 C 263.008 198.043,261.646 197.929,260.840 197.796 L 259.375 197.554 259.375 206.744 M266.016 198.054 C 265.559 198.355,265.645 198.418,266.406 198.341 C 267.318 198.249,267.398 198.385,267.612 200.391 L 267.841 202.539 267.905 200.098 C 267.972 197.535,267.530 197.057,266.016 198.054 M171.834 216.145 C 167.508 218.087,166.802 223.500,170.433 226.889 C 174.608 230.785,181.641 227.560,181.641 221.750 C 181.641 217.276,176.219 214.177,171.834 216.145 M197.070 216.176 C 192.121 218.376,192.421 225.818,197.546 227.984 C 202.559 230.103,207.498 225.981,206.475 220.531 C 205.790 216.878,200.746 214.543,197.070 216.176 M221.498 216.504 C 214.602 220.040,219.836 230.433,227.246 227.914 C 234.052 225.601,232.412 215.625,225.225 215.625 C 223.906 215.625,222.622 215.928,221.498 216.504 " stroke="none" fill="#fbfbfb" fill-rule="evenodd"></path><path id="path3" d="M141.704 71.370 C 142.190 71.463,142.893 71.460,143.266 71.362 C 143.640 71.264,143.242 71.188,142.383 71.192 C 141.523 71.197,141.218 71.277,141.704 71.370 M137.695 81.462 C 122.664 83.667,110.107 94.410,105.282 109.191 C 103.316 115.214,103.122 117.629,103.196 135.156 C 103.260 150.189,103.517 150.555,103.882 136.133 C 103.936 133.987,104.066 133.253,104.297 133.789 C 104.617 134.535,104.634 134.530,104.660 133.691 C 104.683 132.953,104.905 132.813,106.055 132.813 C 106.982 132.813,107.422 132.632,107.422 132.252 C 107.422 131.944,107.626 131.197,107.876 130.592 C 108.125 129.987,108.296 129.345,108.255 129.166 C 108.214 128.986,108.516 128.751,108.926 128.644 C 109.335 128.537,109.879 127.992,110.133 127.433 C 110.388 126.874,111.087 125.791,111.686 125.025 C 113.156 123.149,114.548 120.579,116.052 116.965 C 116.741 115.311,117.792 113.498,118.388 112.936 C 120.364 111.074,121.025 110.608,121.319 110.872 C 121.479 111.015,121.471 110.893,121.302 110.601 C 121.132 110.308,121.171 109.957,121.387 109.820 C 121.821 109.545,123.870 106.869,125.391 104.593 C 125.928 103.788,126.572 103.129,126.823 103.128 C 127.074 103.126,127.337 102.974,127.409 102.789 C 127.705 102.022,133.419 99.528,139.453 97.531 C 142.998 96.357,146.689 95.039,147.656 94.600 C 148.623 94.161,150.381 93.517,151.563 93.168 C 152.744 92.818,154.187 92.191,154.769 91.774 C 156.097 90.823,159.375 90.700,159.375 91.602 C 159.375 91.927,159.722 92.188,160.156 92.188 C 160.677 92.188,160.938 92.448,160.938 92.969 C 160.938 93.490,161.198 93.750,161.719 93.750 C 162.240 93.750,162.500 94.010,162.500 94.531 C 162.500 95.052,162.760 95.313,163.281 95.313 C 163.802 95.313,164.063 95.573,164.063 96.094 C 164.063 96.615,164.323 96.875,164.844 96.875 C 165.365 96.875,165.625 97.135,165.625 97.656 C 165.625 98.177,165.885 98.438,166.406 98.438 C 168.327 98.438,166.928 100.460,164.355 101.403 C 163.761 101.621,163.368 102.344,163.844 102.344 C 164.018 102.344,178.266 96.005,186.975 92.053 C 199.660 86.297,202.261 86.505,219.336 94.643 C 223.848 96.794,228.594 99.034,229.883 99.623 C 231.172 100.211,233.984 101.522,236.133 102.537 C 241.055 104.862,241.797 105.147,241.797 104.708 C 241.797 104.515,241.138 104.144,240.332 103.884 C 239.526 103.623,238.164 103.046,237.305 102.602 C 236.445 102.157,235.654 101.773,235.547 101.748 C 234.823 101.579,233.203 100.598,233.203 100.328 C 233.203 100.148,232.797 100.000,232.300 100.000 C 231.804 100.000,231.050 99.692,230.625 99.316 C 230.200 98.940,229.595 98.577,229.282 98.508 C 228.110 98.251,223.982 96.320,222.852 95.499 C 222.207 95.032,221.021 94.527,220.215 94.377 C 219.409 94.228,218.750 93.937,218.750 93.732 C 218.750 93.527,218.481 93.359,218.152 93.359 C 217.823 93.359,217.453 93.097,217.330 92.776 C 217.206 92.455,216.949 92.289,216.758 92.407 C 216.567 92.525,215.839 92.202,215.139 91.690 C 214.440 91.178,213.577 90.826,213.222 90.908 C 212.443 91.089,209.674 89.675,210.057 89.292 C 210.206 89.143,210.017 89.141,209.636 89.287 C 209.195 89.456,208.634 89.263,208.086 88.752 C 207.441 88.152,206.504 87.899,204.327 87.737 C 202.733 87.619,201.293 87.385,201.127 87.218 C 200.546 86.631,200.609 81.989,201.204 81.612 C 201.850 81.204,197.466 81.138,164.453 81.060 C 148.123 81.021,139.855 81.145,137.695 81.462 M205.469 81.269 C 204.072 81.420,207.676 81.456,213.477 81.348 C 219.277 81.241,224.097 81.087,224.186 81.006 C 224.469 80.752,208.127 80.981,205.469 81.269 M230.371 81.149 C 231.714 81.225,233.911 81.225,235.254 81.149 C 236.597 81.072,235.498 81.010,232.813 81.010 C 230.127 81.010,229.028 81.072,230.371 81.149 M140.820 82.515 C 142.795 83.196,142.824 83.588,140.893 83.504 C 139.886 83.460,139.063 83.297,139.063 83.143 C 139.063 82.988,138.491 82.798,137.793 82.720 L 136.523 82.577 137.500 82.133 C 138.037 81.889,138.740 81.784,139.063 81.900 C 139.385 82.016,140.176 82.293,140.820 82.515 M191.309 82.668 C 192.029 82.861,192.188 83.178,192.188 84.421 L 192.188 85.938 189.844 85.938 C 187.760 85.938,187.500 85.851,187.500 85.156 C 187.500 84.505,187.760 84.375,189.063 84.375 C 190.909 84.375,191.180 83.573,189.551 82.929 L 188.477 82.505 189.453 82.469 C 189.990 82.449,190.825 82.539,191.309 82.668 M277.344 87.074 C 277.881 87.514,278.496 87.874,278.711 87.876 C 279.129 87.879,278.423 87.338,277.148 86.679 C 276.630 86.411,276.695 86.544,277.344 87.074 M192.383 87.109 C 192.250 87.324,191.844 87.506,191.481 87.512 C 190.872 87.524,190.873 87.565,191.504 88.044 C 192.342 88.680,192.379 89.063,191.602 89.063 C 191.279 89.063,191.016 88.887,191.016 88.672 C 191.016 88.457,190.752 88.281,190.430 88.281 C 190.107 88.281,189.844 88.105,189.844 87.891 C 189.844 87.676,188.965 87.500,187.891 87.500 C 186.816 87.500,185.938 87.324,185.938 87.109 C 185.938 86.879,187.312 86.719,189.281 86.719 C 191.410 86.719,192.537 86.861,192.383 87.109 M284.058 92.230 C 285.925 94.033,287.990 96.191,288.648 97.026 C 289.306 97.862,289.844 98.374,289.844 98.166 C 289.844 97.600,284.207 91.640,282.312 90.202 C 281.405 89.514,282.191 90.426,284.058 92.230 M169.531 98.828 C 169.531 99.043,169.136 99.216,168.652 99.213 C 167.942 99.208,167.886 99.134,168.359 98.828 C 169.117 98.339,169.531 98.339,169.531 98.828 M290.586 99.414 C 291.244 100.688,291.785 101.395,291.782 100.977 C 291.781 100.762,291.420 100.146,290.981 99.609 C 290.450 98.961,290.318 98.895,290.586 99.414 M161.914 102.790 C 161.270 103.192,159.796 103.877,158.639 104.313 C 155.445 105.518,153.026 106.672,153.243 106.889 C 153.350 106.996,154.290 106.665,155.332 106.152 C 156.374 105.640,158.309 104.803,159.632 104.292 C 162.036 103.363,163.567 102.481,163.253 102.206 C 163.161 102.126,162.559 102.388,161.914 102.790 M245.316 106.535 C 245.319 106.701,246.022 107.131,246.879 107.491 C 248.891 108.335,248.888 108.058,246.875 107.031 C 246.016 106.593,245.314 106.370,245.316 106.535 M149.316 108.344 C 148.833 108.583,148.438 108.918,148.438 109.087 C 148.438 109.343,150.602 108.439,151.139 107.958 C 151.486 107.648,150.151 107.930,149.316 108.344 M145.703 110.196 C 144.521 110.614,143.115 111.300,142.578 111.720 C 141.850 112.290,142.348 112.177,144.531 111.278 C 148.700 109.561,149.445 108.873,145.703 110.196 M253.711 110.768 C 254.785 111.285,255.928 111.704,256.250 111.697 C 256.572 111.691,255.795 111.254,254.523 110.726 C 251.600 109.512,251.152 109.535,253.711 110.768 M257.617 112.392 C 258.047 112.498,258.588 112.737,258.820 112.925 C 259.051 113.112,259.579 113.318,259.992 113.382 C 260.404 113.447,261.006 113.651,261.328 113.836 C 261.849 114.135,261.849 114.107,261.328 113.583 C 260.669 112.920,258.412 112.086,257.461 112.155 C 257.039 112.185,257.090 112.262,257.617 112.392 M139.356 113.247 C 138.551 113.623,137.760 114.067,137.598 114.233 C 137.275 114.566,139.821 113.561,140.914 112.924 C 142.019 112.280,140.952 112.502,139.356 113.247 M262.109 114.248 C 262.109 114.581,264.215 115.527,266.390 116.172 C 267.562 116.519,268.353 116.659,268.148 116.482 C 267.942 116.306,266.769 115.858,265.541 115.487 C 264.313 115.116,263.204 114.644,263.076 114.437 C 262.840 114.055,262.109 113.912,262.109 114.248 M131.727 116.665 C 129.853 117.588,130.451 117.725,132.463 116.833 C 133.407 116.414,133.916 116.062,133.594 116.052 C 133.271 116.042,132.432 116.317,131.727 116.665 M269.531 117.345 C 269.531 117.431,270.078 117.692,270.747 117.925 C 271.805 118.294,271.900 118.274,271.480 117.768 C 271.057 117.258,269.531 116.926,269.531 117.345 M125.879 119.153 C 124.571 119.679,124.815 119.946,126.172 119.473 C 126.816 119.248,127.344 118.994,127.344 118.907 C 127.344 118.675,126.868 118.755,125.879 119.153 M274.959 119.567 C 275.904 119.986,276.746 120.259,276.831 120.174 C 277.000 120.005,273.990 118.733,273.527 118.778 C 273.370 118.793,274.015 119.148,274.959 119.567 M123.191 120.416 C 121.409 121.449,118.780 123.657,118.765 124.133 C 118.757 124.409,118.487 124.735,118.166 124.858 C 117.845 124.981,117.672 125.227,117.782 125.405 C 117.892 125.582,117.785 125.849,117.545 125.997 C 115.038 127.546,115.608 134.796,118.471 137.793 C 120.219 139.622,120.600 139.356,119.033 137.402 C 114.606 131.884,116.447 124.921,123.438 120.742 C 124.189 120.293,124.629 119.927,124.414 119.929 C 124.199 119.931,123.649 120.151,123.191 120.416 M278.161 120.898 C 278.147 121.113,279.122 122.155,280.328 123.213 C 282.718 125.309,284.365 128.234,284.371 130.394 C 284.373 131.156,284.536 131.588,284.766 131.445 C 286.399 130.436,281.264 121.484,279.051 121.484 C 278.792 121.484,278.492 121.265,278.384 120.996 C 278.275 120.728,278.175 120.684,278.161 120.898 M225.684 124.885 C 226.167 124.978,226.958 124.978,227.441 124.885 C 227.925 124.792,227.529 124.716,226.563 124.716 C 225.596 124.716,225.200 124.792,225.684 124.885 M103.224 153.711 C 103.228 154.570,103.308 154.876,103.401 154.390 C 103.495 153.904,103.491 153.201,103.393 152.827 C 103.296 152.454,103.219 152.852,103.224 153.711 M199.316 215.504 C 199.692 215.602,200.308 215.602,200.684 215.504 C 201.060 215.405,200.752 215.325,200.000 215.325 C 199.248 215.325,198.940 215.405,199.316 215.504 M104.729 220.703 C 104.739 221.025,104.996 221.904,105.300 222.656 L 105.853 224.023 105.616 222.656 C 105.347 221.107,104.698 219.676,104.729 220.703 M231.731 221.875 C 231.731 222.627,231.812 222.935,231.910 222.559 C 232.008 222.183,232.008 221.567,231.910 221.191 C 231.812 220.815,231.731 221.123,231.731 221.875 M173.944 264.280 C 172.699 265.474,172.031 266.279,172.461 266.068 C 173.306 265.654,176.892 262.109,176.467 262.109 C 176.325 262.109,175.189 263.086,173.944 264.280 M168.750 269.429 C 167.354 270.801,165.745 272.019,165.176 272.136 C 164.607 272.252,163.480 273.025,162.671 273.853 C 161.863 274.681,161.054 275.267,160.874 275.156 C 160.694 275.045,160.547 275.755,160.547 276.735 C 160.547 278.842,160.958 278.973,162.153 277.246 C 162.637 276.548,164.965 274.002,167.329 271.588 C 171.911 266.907,173.001 265.251,168.750 269.429 " stroke="none" fill="#8ed9b7" fill-rule="evenodd"></path><path id="path4" d="M224.512 70.986 C 225.210 71.072,226.353 71.072,227.051 70.986 C 227.749 70.899,227.178 70.828,225.781 70.828 C 224.385 70.828,223.813 70.899,224.512 70.986 M232.129 124.879 C 232.505 124.977,233.120 124.977,233.496 124.879 C 233.872 124.780,233.564 124.700,232.813 124.700 C 232.061 124.700,231.753 124.780,232.129 124.879 M270.117 130.994 C 268.398 131.693,267.034 132.469,267.085 132.720 C 267.136 132.970,266.946 133.086,266.662 132.977 C 266.372 132.866,266.146 133.043,266.146 133.382 C 266.146 133.713,266.227 133.903,266.326 133.805 C 266.424 133.706,267.010 133.886,267.628 134.205 C 268.278 134.542,268.750 134.617,268.750 134.385 C 268.750 134.165,269.089 133.984,269.503 133.984 C 269.918 133.984,270.501 133.740,270.800 133.441 C 271.174 133.067,271.547 133.012,272.000 133.265 C 272.431 133.507,272.656 133.492,272.656 133.223 C 272.656 132.997,273.027 132.813,273.479 132.813 C 274.038 132.813,274.232 132.630,274.085 132.246 C 273.940 131.868,274.056 131.752,274.434 131.898 C 275.136 132.167,275.211 130.836,274.531 130.156 C 273.886 129.511,273.665 129.553,270.117 130.994 M222.559 133.088 C 223.042 133.181,223.833 133.181,224.316 133.088 C 224.800 132.995,224.404 132.919,223.438 132.919 C 222.471 132.919,222.075 132.995,222.559 133.088 M235.254 133.092 C 235.845 133.182,236.812 133.182,237.402 133.092 C 237.993 133.003,237.510 132.930,236.328 132.930 C 235.146 132.930,234.663 133.003,235.254 133.092 M251.367 139.753 C 250.293 140.346,248.271 141.331,246.875 141.943 C 241.640 144.236,235.738 147.077,235.611 147.364 C 235.539 147.527,235.319 147.562,235.123 147.440 C 234.926 147.319,234.766 147.416,234.766 147.656 C 234.766 147.896,234.590 147.984,234.375 147.852 C 234.160 147.719,233.984 147.807,233.984 148.047 C 233.984 148.287,233.815 148.379,233.608 148.251 C 233.401 148.123,232.857 148.393,232.400 148.850 C 231.904 149.346,231.267 149.603,230.823 149.487 C 230.354 149.364,230.174 149.448,230.337 149.712 C 230.501 149.978,230.358 150.041,229.947 149.883 C 229.589 149.746,229.297 149.815,229.297 150.035 C 229.297 150.256,229.094 150.312,228.847 150.159 C 228.600 150.006,228.176 150.183,227.906 150.552 C 227.636 150.922,227.311 151.212,227.184 151.198 C 226.205 151.088,225.684 151.277,225.105 151.953 C 224.737 152.383,224.255 152.732,224.034 152.728 C 223.813 152.725,223.896 152.552,224.219 152.344 C 225.411 151.573,224.126 151.994,220.801 153.464 C 218.921 154.295,216.549 155.306,215.529 155.710 C 214.509 156.115,213.674 156.588,213.673 156.761 C 213.673 156.935,213.496 156.969,213.281 156.836 C 213.066 156.703,212.891 156.791,212.891 157.031 C 212.891 157.271,212.715 157.359,212.500 157.227 C 212.285 157.094,212.109 157.182,212.109 157.422 C 212.109 157.662,211.922 157.743,211.693 157.601 C 211.464 157.460,211.050 157.653,210.773 158.032 C 210.460 158.459,210.017 158.624,209.607 158.466 C 209.161 158.296,209.036 158.361,209.223 158.665 C 209.412 158.970,209.285 159.033,208.833 158.860 C 208.381 158.687,208.254 158.750,208.442 159.055 C 208.633 159.363,208.500 159.423,208.028 159.242 C 207.482 159.032,207.390 159.121,207.597 159.664 C 207.807 160.215,207.761 160.255,207.367 159.863 C 206.781 159.281,206.102 159.209,206.445 159.766 C 206.674 160.136,206.506 160.222,205.371 160.313 C 205.103 160.334,204.650 160.615,204.366 160.938 C 204.081 161.260,203.958 161.306,204.093 161.040 C 204.254 160.721,204.130 160.635,203.731 160.788 C 203.398 160.916,203.125 161.207,203.125 161.435 C 203.125 161.663,203.012 161.736,202.875 161.599 C 202.737 161.461,202.148 161.630,201.565 161.975 C 200.540 162.580,200.360 162.536,196.054 160.620 C 193.605 159.531,189.404 157.737,186.719 156.633 C 182.365 154.844,180.433 154.006,176.376 152.144 C 174.676 151.365,174.688 151.748,176.410 153.312 C 177.536 154.333,178.183 154.644,178.906 154.509 C 179.443 154.410,179.663 154.423,179.395 154.540 C 179.126 154.657,178.906 155.100,178.906 155.524 C 178.906 155.949,179.082 156.187,179.297 156.055 C 179.512 155.922,179.688 155.981,179.688 156.185 C 179.688 156.390,179.960 156.662,180.294 156.790 C 180.693 156.943,180.816 156.857,180.655 156.538 C 180.521 156.272,180.644 156.335,180.928 156.678 C 181.372 157.213,183.781 158.667,184.078 158.579 C 184.134 158.563,184.786 158.804,185.526 159.116 C 186.267 159.427,187.131 159.583,187.446 159.462 C 187.790 159.330,187.916 159.409,187.762 159.658 C 187.498 160.085,188.620 160.728,188.988 160.361 C 189.101 160.248,188.988 160.156,188.737 160.156 C 188.486 160.156,188.281 159.989,188.281 159.785 C 188.281 159.580,188.986 159.729,189.848 160.115 C 191.576 160.888,192.408 161.510,191.199 161.124 C 190.471 160.892,190.468 160.903,191.151 161.339 C 191.650 161.658,191.997 161.674,192.278 161.394 C 192.714 160.958,194.307 161.743,195.215 162.840 C 195.523 163.212,195.703 163.259,195.703 162.965 C 195.703 162.709,195.898 162.500,196.136 162.500 C 196.373 162.500,196.476 162.740,196.363 163.034 C 196.225 163.394,196.686 163.727,197.786 164.059 C 199.723 164.644,202.752 164.796,202.441 164.294 C 202.320 164.099,202.589 164.036,203.039 164.153 C 203.556 164.288,203.938 164.153,204.080 163.783 C 204.216 163.428,204.557 163.297,204.953 163.449 C 205.310 163.586,205.740 163.474,205.909 163.200 C 206.079 162.926,206.444 162.683,206.722 162.661 C 206.999 162.638,207.545 162.592,207.933 162.559 C 208.366 162.523,208.530 162.323,208.357 162.043 C 208.167 161.736,208.288 161.668,208.725 161.835 C 209.082 161.973,209.375 161.904,209.375 161.683 C 209.375 161.463,209.551 161.391,209.766 161.523 C 209.980 161.656,210.156 161.568,210.156 161.328 C 210.156 161.088,210.314 160.989,210.506 161.108 C 210.698 161.226,210.964 161.041,211.097 160.696 C 211.249 160.298,211.622 160.142,212.115 160.271 C 212.608 160.400,212.797 160.321,212.632 160.053 C 212.470 159.792,212.606 159.723,212.991 159.870 C 213.359 160.012,214.024 159.724,214.634 159.159 C 215.717 158.155,217.284 157.585,217.906 157.969 C 218.110 158.095,218.385 157.918,218.517 157.574 C 218.654 157.219,219.007 157.046,219.339 157.174 C 219.660 157.297,219.922 157.227,219.922 157.019 C 219.922 156.811,220.054 156.675,220.215 156.718 C 220.699 156.846,222.266 156.220,222.266 155.898 C 222.266 155.734,222.486 155.599,222.755 155.599 C 223.432 155.599,228.290 153.413,228.451 153.036 C 228.523 152.867,228.743 152.829,228.940 152.950 C 229.136 153.072,229.297 152.975,229.297 152.734 C 229.297 152.494,229.473 152.406,229.688 152.539 C 229.902 152.672,230.078 152.576,230.078 152.325 C 230.078 152.074,230.350 151.974,230.684 152.102 C 231.080 152.254,231.194 152.178,231.011 151.882 C 230.825 151.582,230.946 151.512,231.370 151.675 C 231.721 151.810,232.277 151.651,232.606 151.323 C 232.934 150.994,233.203 150.847,233.203 150.996 C 233.203 151.146,233.423 151.094,233.691 150.883 C 233.960 150.671,234.670 150.381,235.270 150.238 C 235.949 150.075,236.256 149.809,236.085 149.532 C 235.903 149.237,236.030 149.171,236.459 149.335 C 236.817 149.473,237.109 149.396,237.109 149.165 C 237.109 148.934,237.368 148.844,237.684 148.965 C 238.000 149.086,238.515 148.929,238.828 148.616 C 239.141 148.303,239.761 148.047,240.206 148.047 C 240.652 148.047,241.016 147.871,241.016 147.656 C 241.016 147.441,241.152 147.310,241.319 147.363 C 242.042 147.596,249.607 143.983,249.823 143.300 C 250.012 142.705,250.193 142.654,250.855 143.008 C 251.350 143.273,251.563 143.285,251.411 143.039 C 251.123 142.573,253.705 141.626,254.285 141.985 C 254.526 142.133,254.576 141.955,254.415 141.524 C 254.174 140.883,254.216 140.873,254.885 141.406 C 255.288 141.729,255.500 141.793,255.354 141.550 C 255.202 141.296,255.667 140.715,256.448 140.183 C 258.241 138.962,258.192 138.884,255.564 138.772 C 253.735 138.694,252.960 138.875,251.367 139.753 M148.438 140.820 C 148.975 141.127,149.678 141.378,150.000 141.377 C 150.322 141.376,149.994 141.119,149.272 140.805 C 147.608 140.083,147.162 140.091,148.438 140.820 M151.953 142.083 C 154.225 142.953,156.751 143.710,156.435 143.427 C 155.851 142.903,152.802 141.793,152.043 141.828 C 151.500 141.853,151.482 141.903,151.953 142.083 M160.328 145.665 C 160.558 146.037,162.891 146.951,162.891 146.669 C 162.891 146.479,160.704 145.313,160.348 145.313 C 160.217 145.313,160.208 145.471,160.328 145.665 M245.313 154.909 C 245.313 155.344,245.086 155.449,244.531 155.273 C 244.053 155.122,243.750 155.203,243.750 155.484 C 243.750 155.737,243.486 155.842,243.164 155.718 C 242.842 155.594,242.578 155.674,242.578 155.895 C 242.578 156.115,242.402 156.187,242.188 156.055 C 241.973 155.922,241.797 156.010,241.797 156.250 C 241.797 156.490,241.621 156.578,241.406 156.445 C 241.191 156.313,241.002 156.522,240.985 156.911 C 240.967 157.314,240.870 157.410,240.758 157.132 C 240.611 156.768,240.412 156.798,239.957 157.253 C 239.625 157.585,239.102 157.761,238.797 157.644 C 238.469 157.519,238.346 157.600,238.495 157.843 C 238.636 158.070,238.513 158.207,238.223 158.148 C 237.933 158.089,237.080 158.326,236.328 158.673 C 235.576 159.021,232.324 160.484,229.102 161.924 C 225.879 163.365,223.113 164.743,222.955 164.987 C 222.797 165.230,222.666 165.271,222.662 165.076 C 222.659 164.882,222.304 165.042,221.873 165.432 C 221.442 165.822,220.980 166.032,220.847 165.899 C 220.713 165.765,220.055 165.949,219.384 166.307 C 218.713 166.665,218.032 166.921,217.871 166.877 C 217.710 166.833,217.578 166.983,217.578 167.211 C 217.578 167.438,217.402 167.516,217.188 167.383 C 216.973 167.250,216.797 167.328,216.797 167.555 C 216.797 167.783,216.665 167.940,216.504 167.905 C 215.920 167.777,214.063 168.453,214.063 168.792 C 214.063 168.984,213.931 169.106,213.770 169.063 C 213.274 168.932,211.589 169.605,211.042 170.152 C 210.757 170.437,210.288 170.579,210.000 170.469 C 209.712 170.358,209.189 170.554,208.839 170.904 C 208.489 171.254,208.203 171.418,208.203 171.269 C 208.203 171.120,207.912 171.239,207.557 171.534 C 207.202 171.829,206.894 171.998,206.874 171.909 C 206.853 171.820,205.869 172.069,204.688 172.462 C 199.473 174.198,194.183 172.490,171.192 161.651 C 170.280 161.221,169.313 160.831,169.044 160.786 C 168.480 160.690,166.209 159.683,163.672 158.404 C 161.801 157.460,157.333 155.859,156.571 155.859 C 156.320 155.859,156.496 156.266,156.963 156.763 C 158.300 158.187,157.954 158.434,156.548 157.060 C 155.592 156.125,155.410 155.747,155.800 155.505 C 156.204 155.256,156.169 155.131,155.641 154.928 C 153.773 154.211,154.799 155.969,157.871 158.749 C 159.200 159.952,160.368 160.856,160.466 160.758 C 160.564 160.660,160.930 160.889,161.279 161.265 C 161.628 161.642,161.761 161.723,161.573 161.444 C 161.002 160.595,161.927 160.868,162.732 161.786 C 163.142 162.253,163.230 162.489,162.928 162.311 C 162.566 162.098,162.470 162.136,162.647 162.423 C 162.795 162.661,163.203 162.746,163.553 162.612 C 163.961 162.455,164.095 162.522,163.925 162.797 C 163.779 163.034,163.842 163.340,164.066 163.479 C 164.289 163.617,164.424 163.519,164.365 163.261 C 164.306 163.004,164.504 162.704,164.805 162.594 C 165.186 162.456,165.294 162.619,165.161 163.131 C 165.007 163.720,165.204 163.885,166.146 163.954 C 166.793 164.002,167.503 164.222,167.724 164.443 C 168.197 164.916,169.531 164.982,169.531 164.531 C 169.531 164.359,169.320 164.008,169.063 163.750 C 168.805 163.492,168.729 163.281,168.895 163.281 C 169.725 163.281,170.364 164.541,170.190 165.832 C 170.043 166.923,170.167 167.291,170.792 167.626 C 171.361 167.930,171.505 167.928,171.313 167.617 C 171.167 167.381,171.223 167.188,171.438 167.188 C 171.653 167.188,171.939 167.366,172.074 167.584 C 172.209 167.803,172.510 167.864,172.744 167.719 C 172.999 167.562,173.055 167.640,172.885 167.915 C 172.729 168.166,172.439 168.271,172.239 168.147 C 172.039 168.024,171.875 168.015,171.875 168.127 C 171.875 168.467,173.475 169.214,174.428 169.318 C 175.555 169.442,178.906 171.385,178.906 171.915 C 178.906 172.133,179.078 172.205,179.289 172.075 C 179.853 171.727,181.316 172.623,181.005 173.127 C 180.844 173.387,180.918 173.448,181.190 173.279 C 181.438 173.126,181.641 173.197,181.641 173.438 C 181.641 173.678,181.802 173.775,181.998 173.653 C 182.536 173.321,184.458 174.158,184.183 174.604 C 184.041 174.834,184.215 174.887,184.614 174.734 C 185.066 174.560,185.193 174.624,185.005 174.929 C 184.827 175.216,184.929 175.304,185.282 175.168 C 185.588 175.050,186.431 175.494,187.154 176.155 C 187.909 176.845,188.714 177.261,189.046 177.134 C 189.364 177.012,189.503 177.034,189.354 177.183 C 189.011 177.526,191.347 178.989,196.136 181.431 L 199.888 183.344 200.113 188.390 C 200.236 191.165,200.421 193.520,200.524 193.622 C 200.801 193.900,209.551 192.981,211.028 192.519 C 211.730 192.300,212.863 192.045,213.546 191.952 C 214.835 191.778,222.039 189.639,222.689 189.237 C 222.893 189.111,223.540 188.928,224.128 188.829 C 225.497 188.599,233.174 184.786,234.078 183.887 C 234.456 183.511,234.766 183.298,234.766 183.414 C 234.766 183.741,235.833 182.829,238.533 180.193 C 239.898 178.860,241.016 177.575,241.016 177.338 C 241.016 177.101,241.160 176.996,241.336 177.105 C 241.779 177.379,244.225 173.254,244.363 172.001 C 244.425 171.439,244.620 170.873,244.796 170.744 C 245.344 170.341,246.025 154.297,245.493 154.297 C 245.394 154.297,245.313 154.572,245.313 154.909 M167.213 160.561 C 167.991 160.977,168.291 162.891,167.578 162.891 C 167.363 162.891,167.188 162.715,167.188 162.500 C 167.188 162.285,166.880 162.092,166.504 162.070 C 166.048 162.044,166.146 161.927,166.797 161.719 C 167.489 161.497,167.567 161.395,167.067 161.367 C 166.632 161.343,166.469 161.153,166.643 160.871 C 166.834 160.561,166.710 160.497,166.255 160.671 C 165.857 160.824,165.681 160.772,165.823 160.542 C 166.123 160.058,166.278 160.060,167.213 160.561 M168.903 165.809 C 168.950 166.125,169.138 166.521,169.322 166.688 C 169.506 166.855,169.530 166.772,169.376 166.504 C 169.221 166.235,169.281 166.016,169.508 166.016 C 169.736 166.016,169.922 165.840,169.922 165.625 C 169.922 165.410,169.674 165.234,169.371 165.234 C 169.067 165.234,168.857 165.493,168.903 165.809 M267.367 179.932 C 266.575 183.489,264.840 185.924,263.086 185.942 C 261.572 185.957,261.098 186.562,261.585 187.854 C 261.916 188.729,261.914 189.078,261.580 189.234 C 261.334 189.350,261.660 189.361,262.305 189.260 C 262.949 189.159,264.309 189.029,265.327 188.971 C 266.361 188.913,267.261 188.652,267.366 188.379 C 267.469 188.110,267.801 187.891,268.104 187.891 C 268.407 187.891,268.896 187.593,269.190 187.230 C 269.652 186.661,269.645 186.610,269.141 186.868 C 268.792 187.046,268.829 186.943,269.232 186.611 C 269.605 186.306,269.795 185.941,269.655 185.801 C 269.515 185.661,269.577 185.547,269.792 185.547 C 270.242 185.547,270.299 185.304,270.502 182.527 C 270.584 181.403,270.485 180.380,270.280 180.254 C 270.076 180.127,269.999 179.879,270.109 179.701 C 270.218 179.524,270.039 179.275,269.710 179.149 C 269.358 179.014,269.011 179.181,268.868 179.554 C 268.648 180.127,268.576 180.122,268.121 179.499 C 267.660 178.869,267.596 178.907,267.367 179.932 M200.671 188.959 C 200.581 189.553,200.505 189.160,200.502 188.086 C 200.499 187.012,200.573 186.526,200.666 187.006 C 200.758 187.487,200.761 188.366,200.671 188.959 M266.203 198.034 C 266.369 198.302,266.268 198.460,265.957 198.417 C 264.582 198.229,264.565 198.350,264.607 208.008 C 264.630 213.271,264.803 217.578,264.993 217.578 C 265.587 217.578,267.882 216.025,268.090 215.481 C 268.200 215.196,268.137 211.552,267.950 207.384 C 267.764 203.215,267.604 199.503,267.595 199.135 C 267.586 198.766,267.205 198.265,266.750 198.022 C 266.123 197.686,265.990 197.689,266.203 198.034 M174.121 215.510 C 174.604 215.603,175.396 215.603,175.879 215.510 C 176.362 215.417,175.967 215.341,175.000 215.341 C 174.033 215.341,173.638 215.417,174.121 215.510 M224.707 215.504 C 225.083 215.602,225.698 215.602,226.074 215.504 C 226.450 215.405,226.143 215.325,225.391 215.325 C 224.639 215.325,224.331 215.405,224.707 215.504 M195.093 217.285 L 193.945 218.555 195.311 217.383 C 196.061 216.738,196.750 216.167,196.840 216.113 C 196.931 216.060,196.833 216.016,196.623 216.016 C 196.412 216.016,195.724 216.587,195.093 217.285 M179.928 217.560 C 180.383 218.107,180.949 218.906,181.186 219.336 C 181.423 219.766,181.622 219.895,181.629 219.623 C 181.635 219.351,181.069 218.552,180.371 217.847 C 179.673 217.142,179.474 217.013,179.928 217.560 M253.418 259.260 C 253.901 259.353,254.692 259.353,255.176 259.260 C 255.659 259.167,255.264 259.091,254.297 259.091 C 253.330 259.091,252.935 259.167,253.418 259.260 M198.424 263.965 L 196.289 266.211 198.535 264.076 C 200.622 262.092,200.960 261.719,200.670 261.719 C 200.609 261.719,199.598 262.729,198.424 263.965 M146.184 264.453 C 146.184 265.205,146.265 265.513,146.363 265.137 C 146.461 264.761,146.461 264.146,146.363 263.770 C 146.265 263.394,146.184 263.701,146.184 264.453 M191.797 270.508 C 190.848 271.475,190.160 272.266,190.267 272.266 C 190.374 272.266,191.239 271.475,192.188 270.508 C 193.136 269.541,193.825 268.750,193.717 268.750 C 193.610 268.750,192.746 269.541,191.797 270.508 M146.256 279.297 C 146.256 283.271,146.314 284.897,146.385 282.910 C 146.456 280.923,146.456 277.671,146.385 275.684 C 146.314 273.696,146.256 275.322,146.256 279.297 M178.693 283.301 L 177.148 284.961 178.809 283.417 C 180.353 281.981,180.648 281.641,180.353 281.641 C 180.289 281.641,179.542 282.388,178.693 283.301 M172.827 288.770 L 171.680 290.039 172.949 288.892 C 174.133 287.822,174.398 287.500,174.097 287.500 C 174.029 287.500,173.458 288.071,172.827 288.770 M165.014 296.191 L 163.867 297.461 165.137 296.314 C 166.320 295.244,166.586 294.922,166.284 294.922 C 166.217 294.922,165.646 295.493,165.014 296.191 " stroke="none" fill="#d0e3df" fill-rule="evenodd"></path><path id="path5" d="M147.559 71.369 C 148.042 71.463,148.833 71.463,149.316 71.369 C 149.800 71.276,149.404 71.200,148.438 71.200 C 147.471 71.200,147.075 71.276,147.559 71.369 M291.390 85.254 C 292.348 86.274,293.183 87.109,293.245 87.109 C 293.539 87.109,293.229 86.759,291.504 85.140 L 289.648 83.398 291.390 85.254 M212.207 124.879 C 212.583 124.977,213.198 124.977,213.574 124.879 C 213.950 124.780,213.643 124.700,212.891 124.700 C 212.139 124.700,211.831 124.780,212.207 124.879 M240.723 125.287 C 241.743 125.368,243.413 125.368,244.434 125.287 C 245.454 125.207,244.619 125.141,242.578 125.141 C 240.537 125.141,239.702 125.207,240.723 125.287 M307.143 157.227 C 307.146 158.301,307.222 158.694,307.312 158.100 C 307.401 157.506,307.399 156.627,307.306 156.147 C 307.214 155.667,307.140 156.152,307.143 157.227 M245.854 162.109 C 245.854 164.795,245.916 165.894,245.992 164.551 C 246.069 163.208,246.069 161.011,245.992 159.668 C 245.916 158.325,245.854 159.424,245.854 162.109 M268.080 200.586 C 268.083 201.660,268.159 202.053,268.249 201.459 C 268.339 200.866,268.336 199.987,268.244 199.506 C 268.151 199.026,268.078 199.512,268.080 200.586 M141.704 259.261 C 142.190 259.354,142.893 259.351,143.266 259.253 C 143.640 259.155,143.242 259.079,142.383 259.083 C 141.523 259.087,141.218 259.167,141.704 259.261 M233.487 259.266 C 234.181 259.353,235.411 259.354,236.222 259.269 C 237.032 259.185,236.465 259.114,234.961 259.113 C 233.457 259.111,232.794 259.180,233.487 259.266 M198.233 263.770 L 195.117 266.992 198.340 263.876 C 201.333 260.982,201.741 260.547,201.456 260.547 C 201.397 260.547,199.947 261.997,198.233 263.770 M190.030 271.973 L 186.914 275.195 190.137 272.079 C 191.909 270.366,193.359 268.916,193.359 268.857 C 193.359 268.572,192.924 268.980,190.030 271.973 M178.306 283.301 L 176.367 285.352 178.418 283.413 C 179.546 282.347,180.469 281.424,180.469 281.362 C 180.469 281.071,180.107 281.395,178.306 283.301 M171.094 290.039 C 169.493 291.650,168.272 292.969,168.379 292.969 C 168.486 292.969,169.884 291.650,171.484 290.039 C 173.085 288.428,174.307 287.109,174.199 287.109 C 174.092 287.109,172.694 288.428,171.094 290.039 M146.575 289.844 C 146.575 290.596,146.655 290.903,146.754 290.527 C 146.852 290.151,146.852 289.536,146.754 289.160 C 146.655 288.784,146.575 289.092,146.575 289.844 " stroke="none" fill="#7c848c" fill-rule="evenodd"></path><path id="path6" d="M200.098 117.066 C 200.474 117.164,201.089 117.164,201.465 117.066 C 201.841 116.968,201.533 116.888,200.781 116.888 C 200.029 116.888,199.722 116.968,200.098 117.066 M215.527 133.099 C 216.440 133.181,217.935 133.181,218.848 133.099 C 219.761 133.016,219.014 132.949,217.188 132.949 C 215.361 132.949,214.614 133.016,215.527 133.099 M239.360 133.089 C 239.846 133.182,240.549 133.179,240.923 133.081 C 241.296 132.983,240.898 132.907,240.039 132.911 C 239.180 132.915,238.874 132.995,239.360 133.089 M153.667 162.695 C 153.668 165.488,153.730 166.580,153.806 165.120 C 153.881 163.661,153.880 161.376,153.804 160.042 C 153.728 158.709,153.667 159.902,153.667 162.695 M179.860 172.473 C 180.277 172.789,180.794 173.047,181.009 173.047 C 181.224 173.047,181.058 172.789,180.641 172.473 C 180.224 172.158,179.707 171.900,179.492 171.900 C 179.277 171.900,179.443 172.158,179.860 172.473 M259.121 201.563 C 259.121 203.389,259.188 204.136,259.270 203.223 C 259.353 202.310,259.353 200.815,259.270 199.902 C 259.188 198.989,259.121 199.736,259.121 201.563 M268.059 211.328 C 268.059 212.080,268.140 212.388,268.238 212.012 C 268.336 211.636,268.336 211.021,268.238 210.645 C 268.140 210.269,268.059 210.576,268.059 211.328 M146.219 269.531 C 146.219 270.928,146.290 271.499,146.376 270.801 C 146.463 270.103,146.463 268.960,146.376 268.262 C 146.290 267.563,146.219 268.135,146.219 269.531 M181.811 280.176 L 180.664 281.445 181.934 280.298 C 183.117 279.229,183.383 278.906,183.081 278.906 C 183.014 278.906,182.442 279.478,181.811 280.176 " stroke="none" fill="#c1cccf" fill-rule="evenodd"></path><path id="path7" d="M144.434 71.369 C 144.917 71.463,145.708 71.463,146.191 71.369 C 146.675 71.276,146.279 71.200,145.313 71.200 C 144.346 71.200,143.950 71.276,144.434 71.369 M155.753 81.141 C 156.446 81.228,157.677 81.229,158.487 81.144 C 159.298 81.060,158.730 80.989,157.227 80.988 C 155.723 80.986,155.060 81.055,155.753 81.141 M163.781 81.147 C 164.808 81.228,166.390 81.227,167.297 81.145 C 168.204 81.063,167.363 80.997,165.430 80.998 C 163.496 80.999,162.754 81.066,163.781 81.147 M188.188 81.136 C 188.674 81.229,189.377 81.226,189.751 81.128 C 190.124 81.030,189.727 80.954,188.867 80.958 C 188.008 80.962,187.702 81.042,188.188 81.136 M107.422 86.914 C 106.473 87.881,105.785 88.672,105.892 88.672 C 105.999 88.672,106.864 87.881,107.813 86.914 C 108.761 85.947,109.450 85.156,109.342 85.156 C 109.235 85.156,108.371 85.947,107.422 86.914 M216.699 124.899 C 218.257 124.974,220.806 124.974,222.363 124.899 C 223.921 124.825,222.646 124.765,219.531 124.765 C 216.416 124.765,215.142 124.825,216.699 124.899 M200.488 138.551 C 200.864 138.649,201.479 138.649,201.855 138.551 C 202.231 138.452,201.924 138.372,201.172 138.372 C 200.420 138.372,200.112 138.452,200.488 138.551 M102.899 151.758 C 102.898 156.055,102.955 157.866,103.025 155.782 C 103.095 153.699,103.096 150.184,103.026 147.970 C 102.956 145.756,102.899 147.461,102.899 151.758 M102.851 170.703 C 102.851 171.885,102.925 172.368,103.014 171.777 C 103.104 171.187,103.104 170.220,103.014 169.629 C 102.925 169.038,102.851 169.521,102.851 170.703 M102.825 175.391 C 102.825 176.143,102.905 176.450,103.004 176.074 C 103.102 175.698,103.102 175.083,103.004 174.707 C 102.905 174.331,102.825 174.639,102.825 175.391 M198.145 194.019 C 198.521 194.118,199.136 194.118,199.512 194.019 C 199.888 193.921,199.580 193.841,198.828 193.841 C 198.076 193.841,197.769 193.921,198.145 194.019 M263.188 197.933 C 263.674 198.026,264.377 198.022,264.751 197.925 C 265.124 197.827,264.727 197.750,263.867 197.755 C 263.008 197.759,262.702 197.839,263.188 197.933 M268.110 205.859 C 268.110 207.900,268.175 208.735,268.256 207.715 C 268.336 206.694,268.336 205.024,268.256 204.004 C 268.175 202.983,268.110 203.818,268.110 205.859 M102.841 209.375 C 102.841 210.342,102.917 210.737,103.010 210.254 C 103.103 209.771,103.103 208.979,103.010 208.496 C 102.917 208.013,102.841 208.408,102.841 209.375 M259.075 211.328 C 259.075 212.080,259.155 212.388,259.254 212.012 C 259.352 211.636,259.352 211.021,259.254 210.645 C 259.155 210.269,259.075 210.576,259.075 211.328 M292.969 244.336 C 292.020 245.303,291.331 246.094,291.439 246.094 C 291.546 246.094,292.411 245.303,293.359 244.336 C 294.308 243.369,294.997 242.578,294.889 242.578 C 294.782 242.578,293.918 243.369,292.969 244.336 M108.008 244.922 C 108.847 245.781,109.621 246.484,109.729 246.484 C 109.836 246.484,109.238 245.781,108.398 244.922 C 107.559 244.062,106.785 243.359,106.677 243.359 C 106.570 243.359,107.169 244.062,108.008 244.922 M240.918 259.275 C 242.905 259.346,246.157 259.346,248.145 259.275 C 250.132 259.205,248.506 259.147,244.531 259.147 C 240.557 259.147,238.931 259.205,240.918 259.275 " stroke="none" fill="#808c8c" fill-rule="evenodd"></path><path id="path8" d="M231.055 149.197 C 230.195 149.604,229.630 149.951,229.798 149.968 C 230.256 150.016,232.813 148.900,232.813 148.653 C 232.813 148.363,232.831 148.357,231.055 149.197 M155.469 155.812 C 155.469 156.000,155.732 156.373,156.055 156.641 C 156.691 157.168,156.770 157.042,156.404 156.087 C 156.153 155.433,155.469 155.231,155.469 155.812 M209.180 158.572 C 208.320 158.979,207.728 159.326,207.862 159.343 C 208.242 159.392,210.938 158.217,210.938 158.003 C 210.938 157.741,210.936 157.741,209.180 158.572 M166.188 160.353 C 165.453 160.922,165.452 160.931,166.177 160.677 C 166.694 160.495,166.838 160.555,166.643 160.871 C 166.469 161.153,166.632 161.343,167.067 161.367 C 167.567 161.395,167.489 161.497,166.797 161.719 C 166.146 161.927,166.048 162.044,166.504 162.070 C 166.880 162.092,167.188 162.285,167.188 162.500 C 167.188 162.715,167.363 162.891,167.578 162.891 C 168.201 162.891,168.030 160.936,167.385 160.689 C 167.064 160.566,166.899 160.308,167.017 160.115 C 167.333 159.605,167.049 159.686,166.188 160.353 M161.328 161.114 C 161.328 161.330,164.701 163.672,165.012 163.672 C 165.134 163.672,165.234 163.389,165.234 163.044 C 165.234 162.667,165.016 162.500,164.687 162.626 C 164.387 162.742,163.561 162.409,162.854 161.887 C 161.533 160.912,161.328 160.809,161.328 161.114 M169.063 163.750 C 169.320 164.008,169.531 164.359,169.531 164.531 C 169.531 164.996,168.055 164.909,167.757 164.426 C 167.615 164.197,167.275 164.095,167.000 164.201 C 166.726 164.306,166.304 164.195,166.063 163.954 C 165.812 163.703,165.625 163.680,165.625 163.900 C 165.625 164.592,167.931 165.690,168.803 165.413 C 169.319 165.249,169.755 165.350,169.965 165.681 C 170.208 166.065,170.302 165.962,170.307 165.304 C 170.312 164.427,169.513 163.281,168.895 163.281 C 168.729 163.281,168.805 163.492,169.063 163.750 M171.094 167.369 C 171.094 167.872,172.626 168.333,172.888 167.909 C 173.055 167.639,172.997 167.563,172.744 167.719 C 172.510 167.864,172.209 167.803,172.074 167.584 C 171.829 167.188,171.094 167.026,171.094 167.369 M174.251 169.267 C 174.849 169.732,178.906 171.845,178.906 171.691 C 178.906 171.436,174.902 169.149,174.447 169.144 C 174.250 169.142,174.162 169.198,174.251 169.267 M182.227 173.740 C 182.441 173.955,183.057 174.258,183.594 174.414 C 184.245 174.603,184.440 174.567,184.180 174.307 C 183.965 174.092,183.350 173.789,182.813 173.633 C 182.161 173.444,181.966 173.480,182.227 173.740 M184.766 174.785 C 184.766 174.892,185.293 175.253,185.938 175.586 C 186.582 175.919,187.109 176.104,187.109 175.997 C 187.109 175.889,186.582 175.529,185.938 175.195 C 185.293 174.862,184.766 174.677,184.766 174.785 M200.502 188.086 C 200.505 189.160,200.581 189.553,200.671 188.959 C 200.761 188.366,200.758 187.487,200.666 187.006 C 200.573 186.526,200.499 187.012,200.502 188.086 M259.091 206.250 C 259.091 207.217,259.167 207.612,259.260 207.129 C 259.353 206.646,259.353 205.854,259.260 205.371 C 259.167 204.888,259.091 205.283,259.091 206.250 M146.184 262.109 C 146.184 262.861,146.265 263.169,146.363 262.793 C 146.461 262.417,146.461 261.802,146.363 261.426 C 146.265 261.050,146.184 261.357,146.184 262.109 " stroke="none" fill="#c4d6cc" fill-rule="evenodd"></path></g></svg>