<svg id="svg" version="1.1" xmlns="http://www.w3.org/2000/svg" xmlns:xlink="http://www.w3.org/1999/xlink" width="400" height="400" viewBox="0, 0, 400,400"><g id="svgg"><path id="path0" d="M195.314 70.972 C 193.522 71.342,189.641 73.297,188.218 74.546 L 186.811 75.781 157.956 75.784 C 127.711 75.787,126.746 75.834,120.508 77.607 C 105.420 81.895,95.617 92.620,91.664 109.166 L 90.820 112.695 90.830 198.438 C 90.840 291.529,90.688 285.113,93.054 292.578 C 98.180 308.757,109.520 318.949,126.026 322.213 C 129.704 322.940,131.383 322.968,162.305 322.824 C 180.137 322.742,198.440 322.782,202.978 322.914 L 211.229 323.153 210.749 324.956 C 210.485 325.947,209.605 328.931,208.794 331.588 C 205.813 341.353,206.634 341.390,230.273 332.556 C 236.289 330.307,242.441 328.009,243.945 327.449 C 245.449 326.888,247.656 325.684,248.849 324.773 L 251.018 323.116 259.396 322.956 C 288.688 322.395,305.447 303.700,302.736 274.609 C 301.996 266.669,301.822 267.450,304.987 264.501 C 310.685 259.190,313.926 255.968,315.946 253.604 C 317.089 252.266,318.846 250.620,319.852 249.947 C 322.419 248.227,328.039 242.660,328.919 240.965 C 329.324 240.185,330.849 238.517,332.308 237.258 C 344.618 226.638,344.231 217.003,331.052 206.031 C 321.334 197.939,311.484 198.615,305.338 207.797 C 303.718 210.217,303.716 210.161,303.620 161.016 C 303.522 110.985,303.454 109.100,301.561 103.448 C 297.506 91.346,289.333 82.890,277.322 78.371 C 271.139 76.045,271.570 76.073,238.661 75.820 L 208.377 75.586 206.554 74.092 C 203.645 71.708,198.572 70.299,195.314 70.972 M200.998 76.909 C 203.541 78.063,205.274 80.541,209.568 89.160 C 211.790 93.618,213.670 97.454,213.746 97.684 C 213.904 98.156,218.015 99.011,229.628 100.986 C 238.582 102.508,239.679 102.991,241.050 106.009 C 243.204 110.754,241.939 113.150,232.208 122.767 L 224.494 130.389 224.772 133.456 C 224.924 135.143,225.545 138.809,226.152 141.602 C 228.644 153.084,228.609 153.788,225.389 156.800 C 223.849 158.240,223.179 158.603,221.989 158.639 C 218.658 158.740,218.972 158.859,207.707 153.254 C 202.815 150.820,198.537 148.828,198.200 148.828 C 197.300 148.828,192.206 151.135,187.301 153.765 C 176.302 159.661,172.487 160.299,169.549 156.734 C 166.927 153.553,166.882 152.958,168.551 143.635 C 169.367 139.079,170.122 134.143,170.229 132.667 L 170.424 129.982 162.625 122.315 C 154.125 113.958,153.855 113.554,153.787 109.039 C 153.716 104.334,156.053 102.870,166.674 100.966 C 170.931 100.203,175.892 99.264,177.699 98.881 L 180.984 98.183 185.747 89.228 C 192.422 76.678,195.326 74.332,200.998 76.909 M182.976 81.096 C 183.865 81.438,183.773 81.766,182.001 84.572 C 181.125 85.959,179.656 88.547,178.735 90.324 L 177.062 93.555 175.347 93.600 C 173.786 93.642,173.765 93.631,175.113 93.478 C 176.633 93.306,179.319 89.266,178.642 88.170 C 178.500 87.940,178.587 87.889,178.847 88.049 C 179.249 88.298,180.320 86.440,179.974 86.094 C 179.904 86.024,176.340 86.159,172.053 86.392 C 167.766 86.626,156.963 86.878,148.047 86.952 C 127.380 87.124,125.590 87.365,118.555 90.927 C 113.816 93.326,108.091 98.732,106.049 102.734 C 105.556 103.701,104.534 105.513,103.780 106.760 C 102.247 109.292,98.828 117.557,98.828 118.729 C 98.828 119.145,98.656 119.591,98.447 119.721 C 97.999 119.998,98.072 123.438,98.526 123.438 C 98.893 123.438,98.442 127.842,98.045 128.125 C 97.895 128.232,97.641 130.078,97.481 132.227 C 97.321 134.375,97.102 137.275,96.994 138.672 C 96.887 140.068,96.786 145.518,96.769 150.781 C 96.747 157.613,96.643 159.737,96.403 158.203 C 96.219 157.021,96.120 145.859,96.184 133.398 L 96.300 110.742 97.522 106.770 C 101.995 92.227,113.017 82.795,127.315 81.277 C 130.762 80.911,182.059 80.745,182.976 81.096 M271.289 81.932 C 278.516 83.857,283.077 86.372,287.814 91.046 C 291.202 94.388,294.701 99.624,294.386 100.879 C 294.291 101.256,294.353 101.477,294.524 101.372 C 295.392 100.836,297.622 108.839,297.818 113.192 C 297.893 114.852,297.883 115.596,297.798 114.844 C 297.118 108.894,296.265 105.317,295.622 105.714 C 295.356 105.879,295.303 105.800,295.484 105.507 C 295.939 104.771,295.429 103.348,294.309 102.228 C 293.749 101.668,293.378 101.067,293.485 100.893 C 293.593 100.719,293.433 100.238,293.129 99.823 C 292.826 99.409,292.578 99.279,292.578 99.535 C 292.578 99.791,292.314 100.000,291.992 100.000 C 291.670 100.000,291.406 99.828,291.406 99.617 C 291.406 99.406,290.967 99.123,290.430 98.989 C 289.893 98.854,289.453 98.587,289.453 98.395 C 289.453 98.204,289.206 98.047,288.904 98.047 C 288.602 98.047,287.659 97.476,286.808 96.777 C 285.957 96.079,284.666 95.019,283.939 94.421 C 281.901 92.746,273.603 88.781,270.117 87.817 C 267.081 86.977,266.361 86.950,244.727 86.864 C 232.480 86.815,220.932 86.677,219.063 86.557 C 214.952 86.294,214.797 86.463,216.584 89.257 C 217.346 90.447,217.969 91.671,217.969 91.977 C 217.969 92.685,218.572 93.051,220.299 93.390 C 221.565 93.638,221.510 93.664,219.629 93.705 C 217.807 93.745,217.578 93.661,217.578 92.949 C 217.578 91.956,216.968 90.749,213.817 85.511 C 212.448 83.235,211.328 81.248,211.328 81.095 C 211.328 80.294,268.113 81.087,271.289 81.932 M225.977 94.179 C 227.695 94.417,231.387 95.055,234.180 95.595 C 236.973 96.135,239.741 96.664,240.332 96.771 C 240.923 96.877,241.406 97.130,241.406 97.333 C 241.406 97.536,241.609 97.577,241.857 97.424 C 242.129 97.255,242.202 97.316,242.042 97.576 C 241.895 97.814,242.147 98.207,242.601 98.450 C 243.911 99.151,245.292 100.467,245.848 101.545 C 246.130 102.092,246.753 103.277,247.232 104.178 C 248.593 106.737,248.797 111.120,247.665 113.458 C 246.483 115.900,245.789 115.758,259.085 115.791 L 270.898 115.820 274.687 117.675 C 281.328 120.925,286.661 127.608,287.868 134.191 C 288.222 136.120,288.389 182.912,288.142 210.846 L 288.017 225.013 286.880 226.349 C 281.257 232.956,260.423 255.077,245.480 270.305 C 215.432 300.925,218.205 297.773,217.091 302.571 L 216.191 306.445 174.013 306.555 C 144.698 306.632,131.066 306.534,129.311 306.236 C 118.641 304.424,110.845 297.140,107.795 286.133 C 106.238 280.513,105.580 132.992,107.107 131.875 C 107.470 131.609,108.144 130.437,108.604 129.271 C 109.064 128.105,109.616 126.938,109.832 126.678 C 110.047 126.419,110.092 125.979,109.932 125.701 C 109.772 125.423,109.792 125.334,109.978 125.502 C 110.163 125.671,110.711 125.153,111.195 124.351 C 113.651 120.281,118.208 117.357,123.962 116.157 C 127.656 115.387,144.379 115.526,144.876 116.331 C 145.591 117.490,147.986 115.616,147.776 114.063 C 147.599 112.751,147.630 112.775,148.545 114.648 C 150.100 117.830,152.936 121.253,156.760 124.562 C 158.736 126.271,161.481 128.819,162.862 130.224 L 165.372 132.777 164.532 136.799 C 160.786 154.729,161.885 160.331,169.727 163.273 C 174.942 165.230,177.665 164.571,189.724 158.430 L 197.780 154.328 205.824 158.253 C 218.549 164.464,221.496 165.093,226.315 162.628 C 233.602 158.902,234.914 150.109,230.473 134.768 C 230.256 134.018,230.078 133.239,230.078 133.038 C 230.078 132.836,233.201 129.583,237.019 125.808 C 248.112 114.840,249.993 110.397,246.428 103.595 C 243.662 98.320,241.306 97.164,229.102 95.094 C 221.699 93.838,220.051 93.356,225.977 94.179 M154.276 98.385 C 152.541 99.503,151.118 100.893,149.824 102.734 C 149.447 103.271,149.200 103.492,149.276 103.224 C 149.746 101.568,154.329 97.266,155.623 97.266 C 155.837 97.266,155.231 97.769,154.276 98.385 M205.078 113.543 C 201.679 115.907,202.820 120.141,206.776 119.843 C 208.612 119.705,209.795 118.398,209.850 116.448 C 209.919 114.029,206.964 112.231,205.078 113.543 M186.827 114.052 C 183.827 115.881,184.867 120.313,188.297 120.313 C 192.198 120.313,193.428 116.065,190.112 114.043 C 188.568 113.102,188.384 113.102,186.827 114.052 M297.933 133.296 C 297.839 133.782,297.759 133.477,297.755 132.617 C 297.750 131.758,297.827 131.360,297.925 131.734 C 298.022 132.107,298.026 132.810,297.933 133.296 M297.946 145.215 C 297.871 146.665,297.809 145.479,297.809 142.578 C 297.809 139.678,297.871 138.491,297.946 139.941 C 298.021 141.392,298.021 143.765,297.946 145.215 M96.621 170.559 C 96.461 173.109,96.257 174.857,96.170 174.443 C 95.973 173.514,96.496 165.506,96.738 165.748 C 96.834 165.844,96.781 168.009,96.621 170.559 M162.344 173.476 C 161.771 173.927,160.869 175.151,160.339 176.196 C 159.323 178.202,158.447 178.905,156.959 178.908 C 151.186 178.922,149.483 184.227,153.803 188.738 L 155.176 190.172 154.903 193.083 C 154.273 199.809,156.988 202.001,162.500 199.219 C 165.306 197.802,165.645 197.791,168.301 199.027 C 174.136 201.744,176.798 199.325,175.158 192.796 L 174.535 190.315 176.325 188.118 C 180.439 183.066,178.484 178.527,172.191 178.518 C 170.827 178.516,170.681 178.388,169.486 176.147 C 167.648 172.698,164.724 171.605,162.344 173.476 M195.898 173.204 C 194.561 173.794,193.791 174.612,192.733 176.563 C 191.828 178.233,191.484 178.501,190.234 178.512 C 183.785 178.566,181.755 183.861,186.296 188.787 L 187.836 190.457 187.419 193.426 C 186.487 200.071,189.509 202.165,195.513 199.035 L 198.114 197.679 200.327 198.783 C 206.792 202.010,209.453 200.021,207.999 193.049 L 207.404 190.199 208.773 188.907 C 213.621 184.335,212.106 179.328,205.675 178.669 L 203.133 178.409 202.169 176.302 C 200.823 173.362,198.330 172.131,195.898 173.204 M227.907 173.388 C 227.228 173.802,226.215 175.068,225.563 176.319 C 224.342 178.659,224.282 178.699,221.339 179.100 C 216.613 179.744,215.649 184.338,219.352 188.567 L 221.142 190.611 220.871 194.307 L 220.599 198.003 221.793 199.197 C 223.357 200.761,225.058 200.767,228.125 199.219 C 230.992 197.772,231.079 197.772,234.454 199.253 C 240.198 201.774,242.555 199.244,240.699 192.549 L 239.991 189.997 240.933 189.287 C 246.226 185.294,244.390 178.906,237.949 178.906 L 236.028 178.906 235.148 176.736 C 233.643 173.029,230.716 171.675,227.907 173.388 M129.297 173.731 C 128.401 174.179,127.571 175.080,126.888 176.346 C 125.877 178.220,125.771 178.294,123.372 178.777 C 118.095 179.840,116.708 183.880,120.164 188.123 L 121.969 190.339 121.904 194.150 C 121.797 200.374,124.155 201.870,129.655 199.067 L 132.433 197.651 134.760 198.825 C 140.820 201.884,143.609 199.551,141.991 192.775 L 141.432 190.433 142.939 188.869 C 147.666 183.963,146.197 179.196,139.780 178.614 L 137.454 178.403 136.339 176.194 C 134.752 173.050,132.345 172.208,129.297 173.731 M261.523 173.416 C 260.401 173.876,259.518 174.967,258.611 177.018 L 257.818 178.812 255.466 178.982 C 249.810 179.391,247.955 184.176,251.842 188.331 L 253.567 190.175 253.298 193.842 C 252.809 200.506,255.034 202.013,260.967 199.035 L 263.667 197.680 265.836 198.870 C 272.077 202.296,275.431 200.077,273.862 193.561 L 273.111 190.442 274.795 188.642 C 277.824 185.404,278.220 184.063,276.935 181.408 C 275.975 179.425,275.665 179.279,271.742 178.960 L 268.679 178.711 267.775 176.563 C 266.493 173.513,264.158 172.338,261.523 173.416 M132.526 177.637 C 132.865 178.013,133.487 179.199,133.908 180.273 L 134.673 182.227 137.942 182.617 C 142.287 183.136,142.499 183.858,139.113 186.589 C 136.855 188.411,136.239 189.577,137.074 190.449 C 137.639 191.040,138.705 195.046,138.381 195.359 C 138.219 195.515,137.471 195.408,136.719 195.120 C 135.967 194.833,134.510 194.275,133.481 193.881 L 131.611 193.164 129.184 194.445 C 125.963 196.144,126.060 196.227,126.375 192.017 L 126.652 188.330 124.361 186.159 C 121.564 183.507,121.905 182.813,126.003 182.813 C 128.678 182.813,128.950 182.625,129.680 180.273 C 130.639 177.184,131.445 176.437,132.526 177.637 M166.624 180.291 L 167.695 182.813 170.006 182.813 C 174.254 182.813,174.906 184.047,172.026 186.635 C 170.036 188.423,170.045 188.358,171.126 193.054 C 171.799 195.977,171.668 196.034,168.166 194.350 L 165.188 192.917 162.628 194.115 C 158.786 195.913,158.274 195.559,159.559 191.992 C 160.570 189.185,160.339 188.234,158.325 186.910 C 154.425 184.348,154.825 182.813,159.393 182.813 C 162.122 182.813,163.281 181.999,163.281 180.085 C 163.281 176.534,165.074 176.644,166.624 180.291 M199.142 180.188 L 200.433 182.813 202.658 182.851 C 207.513 182.936,208.058 183.828,204.902 186.524 C 202.474 188.599,202.420 188.809,203.516 191.992 C 204.914 196.057,204.395 196.339,200.030 193.886 L 198.072 192.785 195.084 194.264 C 191.573 196.001,191.560 195.996,192.114 193.076 C 193.065 188.063,193.181 188.563,190.607 186.541 C 187.151 183.826,187.531 182.920,192.205 182.734 L 195.117 182.617 195.561 180.819 C 196.604 176.593,197.312 176.468,199.142 180.188 M232.239 180.273 L 233.574 183.203 236.048 183.203 C 240.219 183.203,240.814 184.527,237.625 186.712 C 235.591 188.106,235.441 188.655,236.325 191.475 C 237.779 196.114,237.613 196.288,233.578 194.355 L 230.765 193.007 228.088 194.355 C 224.294 196.265,223.869 195.946,225.195 192.188 C 226.287 189.093,226.046 188.190,223.633 186.328 C 220.380 183.819,220.725 183.124,225.378 182.813 L 228.295 182.617 229.047 179.980 C 230.023 176.562,230.570 176.612,232.239 180.273 M264.648 179.149 C 265.078 180.014,265.605 181.147,265.820 181.669 C 266.173 182.524,266.511 182.642,269.272 182.866 C 273.846 183.237,274.081 184.147,270.319 186.909 C 268.050 188.575,268.088 188.377,269.308 192.188 C 270.460 195.783,270.174 195.966,266.215 194.171 L 263.600 192.985 260.974 194.344 C 257.570 196.106,257.253 196.096,257.570 194.238 C 257.708 193.433,257.928 191.792,258.061 190.592 L 258.301 188.411 256.104 186.514 C 252.725 183.597,253.180 182.828,258.293 182.818 C 260.845 182.813,260.929 182.781,261.147 181.738 C 262.003 177.648,263.391 176.621,264.648 179.149 M96.369 199.316 C 96.276 199.800,96.200 199.404,96.200 198.438 C 96.200 197.471,96.276 197.075,96.369 197.559 C 96.463 198.042,96.463 198.833,96.369 199.316 M321.011 206.457 C 324.889 207.609,332.064 214.408,334.188 218.945 C 336.273 223.397,335.967 224.514,331.337 229.361 L 328.352 232.485 327.359 231.350 C 326.220 230.046,320.229 224.655,316.211 221.317 C 313.359 218.949,307.813 213.725,307.813 213.409 C 307.813 212.894,312.858 207.661,313.867 207.128 C 316.356 205.815,318.251 205.637,321.011 206.457 M129.297 213.227 C 120.797 215.035,115.931 225.345,119.834 233.277 C 125.331 244.450,139.115 244.461,144.611 233.296 C 149.690 222.979,140.440 210.857,129.297 213.227 M308.249 221.572 C 310.909 223.983,315.760 228.597,319.028 231.826 L 324.969 237.695 321.279 241.602 C 318.434 244.613,317.463 245.418,317.039 245.117 C 316.736 244.902,313.595 242.090,310.060 238.867 C 306.524 235.645,302.067 231.626,300.155 229.938 C 298.244 228.249,296.341 226.425,295.927 225.884 L 295.175 224.901 299.052 221.064 C 301.185 218.954,303.038 217.219,303.171 217.208 C 303.304 217.197,305.589 219.160,308.249 221.572 M294.727 232.413 C 301.347 238.677,305.600 242.611,309.097 245.703 C 311.162 247.529,312.860 249.181,312.871 249.374 C 312.882 249.567,310.293 252.380,307.119 255.624 C 297.883 265.064,282.745 280.830,280.236 283.622 C 277.295 286.896,268.974 295.799,263.658 301.359 C 261.395 303.727,258.688 306.631,257.643 307.813 C 247.752 318.992,245.382 319.976,244.627 313.214 C 244.147 308.918,244.254 308.998,239.010 308.990 C 234.130 308.983,234.392 309.282,234.374 303.711 C 234.360 299.174,234.447 299.269,230.056 298.967 C 224.751 298.602,224.541 298.483,226.327 296.858 C 227.125 296.132,237.234 285.863,248.791 274.038 C 268.647 253.723,276.938 245.034,286.914 234.089 C 289.277 231.496,291.387 229.476,291.602 229.600 C 291.816 229.725,293.223 230.990,294.727 232.413 M128.516 253.881 C 120.819 256.230,116.602 265.185,119.905 272.166 C 125.964 284.974,143.172 282.807,145.675 268.921 C 147.360 259.569,137.680 251.083,128.516 253.881 M136.660 259.780 C 139.589 261.359,140.602 262.666,139.398 263.311 C 138.932 263.560,137.128 265.252,135.389 267.070 L 132.227 270.375 130.196 268.409 C 127.643 265.937,125.177 264.601,124.384 265.259 C 123.462 266.025,123.719 266.622,126.342 269.803 C 130.869 275.291,131.333 275.782,131.979 275.750 C 132.512 275.724,137.465 270.628,140.958 266.512 L 141.876 265.430 141.657 266.670 C 140.700 272.075,135.495 277.035,131.645 276.209 C 123.414 274.444,120.554 266.094,126.416 260.947 C 129.857 257.926,132.635 257.609,136.660 259.780 M286.906 288.145 C 284.380 295.911,273.760 305.469,267.658 305.469 C 267.555 305.469,269.472 303.397,271.919 300.864 C 274.365 298.331,278.916 293.496,282.030 290.119 C 288.229 283.400,288.483 283.296,286.906 288.145 M223.487 303.932 C 223.915 304.162,225.354 304.469,226.683 304.616 L 229.102 304.883 229.297 308.292 C 229.566 312.988,229.973 313.376,234.926 313.658 C 239.329 313.908,239.010 313.648,239.424 317.334 C 239.608 318.976,240.055 320.772,240.418 321.326 C 240.781 321.880,241.020 322.382,240.949 322.441 C 240.802 322.564,236.943 324.097,233.203 325.518 C 231.807 326.049,229.562 326.949,228.215 327.518 C 225.476 328.675,225.171 328.622,224.799 326.926 C 224.453 325.354,222.539 323.490,219.801 322.059 C 218.579 321.421,217.580 320.775,217.579 320.625 C 217.578 320.354,220.156 311.015,221.287 307.192 C 221.610 306.099,221.875 304.825,221.875 304.360 C 221.875 303.424,222.317 303.307,223.487 303.932 " stroke="none" fill="#216c51" fill-rule="evenodd"></path><path id="path1" d="M199.862 83.623 C 199.034 83.761,198.243 84.031,198.104 84.223 C 197.965 84.415,197.382 84.813,196.809 85.109 C 196.235 85.404,195.850 85.866,195.953 86.135 C 196.057 86.404,195.735 86.957,195.239 87.363 C 193.886 88.469,192.903 90.403,193.426 90.926 C 194.055 91.555,193.501 92.791,192.838 92.241 C 192.200 91.712,191.365 92.408,191.674 93.212 C 191.787 93.508,191.686 93.750,191.448 93.750 C 191.210 93.750,191.015 93.970,191.015 94.238 C 191.014 94.507,190.494 95.335,189.859 96.078 C 189.224 96.821,188.785 97.509,188.884 97.608 C 188.983 97.707,188.778 98.104,188.428 98.491 C 188.071 98.886,187.884 99.540,188.000 99.987 C 188.136 100.504,188.019 100.781,187.666 100.781 C 187.368 100.781,187.011 101.231,186.873 101.781 C 186.728 102.360,186.417 102.702,186.133 102.593 C 185.864 102.490,185.160 102.657,184.568 102.964 C 182.672 103.947,176.605 105.144,166.602 106.508 C 165.742 106.625,164.872 106.878,164.668 107.071 C 164.464 107.264,163.988 107.422,163.611 107.422 C 163.234 107.422,161.994 107.979,160.857 108.660 C 159.388 109.539,158.148 109.948,156.577 110.071 C 154.372 110.245,153.144 111.397,154.362 112.149 C 154.596 112.294,154.667 112.608,154.519 112.847 C 154.372 113.086,154.431 113.281,154.652 113.281 C 154.873 113.281,154.941 113.574,154.804 113.931 C 154.636 114.368,154.704 114.489,155.012 114.299 C 155.295 114.124,155.474 114.285,155.483 114.723 C 155.490 115.112,156.319 116.133,157.324 116.992 C 158.329 117.852,160.615 120.049,162.404 121.875 C 164.192 123.701,165.825 125.151,166.031 125.098 C 166.237 125.044,166.362 125.156,166.309 125.346 C 166.255 125.537,167.134 126.665,168.262 127.853 C 169.737 129.406,170.314 130.323,170.318 131.120 C 170.323 132.011,170.406 132.112,170.742 131.641 C 171.062 131.191,171.111 131.338,170.952 132.269 C 170.838 132.938,170.625 134.384,170.479 135.485 C 170.333 136.585,170.063 137.392,169.878 137.278 C 169.694 137.164,169.656 137.634,169.793 138.323 C 169.944 139.074,169.896 139.483,169.674 139.346 C 169.457 139.212,169.371 139.694,169.467 140.510 C 169.556 141.277,169.475 141.808,169.287 141.692 C 169.099 141.576,168.907 142.373,168.860 143.464 C 168.813 144.554,168.601 145.554,168.390 145.684 C 168.178 145.815,168.012 146.269,168.021 146.692 C 168.030 147.115,167.896 147.988,167.723 148.633 C 167.057 151.113,167.332 153.300,168.556 155.268 C 171.805 160.495,175.263 160.218,187.301 153.765 C 192.206 151.135,197.300 148.828,198.200 148.828 C 198.537 148.828,202.815 150.820,207.707 153.254 C 218.972 158.859,218.658 158.740,221.989 158.639 C 223.179 158.603,223.849 158.240,225.389 156.800 C 228.609 153.788,228.644 153.084,226.152 141.602 C 225.545 138.809,224.924 135.143,224.772 133.456 L 224.494 130.389 232.214 122.761 C 240.613 114.461,242.281 112.140,241.486 109.858 C 241.270 109.240,240.887 108.853,240.576 108.940 C 238.734 109.458,238.108 109.337,235.250 107.906 C 232.959 106.760,231.305 106.241,228.872 105.904 C 218.015 104.405,213.215 103.376,212.067 102.304 C 210.787 101.109,210.539 99.113,211.511 97.829 C 212.187 96.935,212.284 96.330,211.693 96.696 C 211.463 96.837,211.322 96.716,211.379 96.426 C 211.530 95.649,211.033 94.385,209.537 91.739 C 208.804 90.440,208.203 89.207,208.203 88.997 C 208.203 88.788,207.983 88.394,207.715 88.123 C 207.446 87.851,206.875 87.135,206.445 86.532 C 204.559 83.883,202.844 83.125,199.862 83.623 M201.953 87.109 C 201.953 87.324,201.602 87.500,201.172 87.500 C 200.742 87.500,200.391 87.324,200.391 87.109 C 200.391 86.895,200.742 86.719,201.172 86.719 C 201.602 86.719,201.953 86.895,201.953 87.109 M199.609 87.891 C 199.609 88.105,199.346 88.281,199.023 88.281 C 198.701 88.281,198.438 88.105,198.438 87.891 C 198.438 87.676,198.701 87.500,199.023 87.500 C 199.346 87.500,199.609 87.676,199.609 87.891 M208.602 113.090 C 210.582 114.114,211.144 116.462,209.957 118.758 C 208.883 120.834,206.649 121.300,204.385 119.920 C 200.085 117.299,204.115 110.770,208.602 113.090 M190.629 113.541 C 192.488 114.639,193.198 117.293,191.964 118.527 C 191.627 118.864,191.495 119.146,191.671 119.154 C 191.848 119.161,191.577 119.512,191.070 119.935 C 188.786 121.838,184.372 120.064,184.376 117.244 C 184.379 115.790,185.815 113.541,186.560 113.827 C 186.884 113.952,187.052 113.895,186.932 113.701 C 186.368 112.788,189.150 112.668,190.629 113.541 M230.609 177.646 C 230.754 177.880,230.506 178.184,230.056 178.327 C 229.586 178.476,229.326 178.809,229.442 179.112 C 229.553 179.401,229.479 179.692,229.278 179.760 C 229.077 179.828,228.875 180.410,228.829 181.055 C 228.716 182.621,228.364 182.800,225.387 182.807 C 221.587 182.815,221.167 183.734,223.972 185.898 L 226.033 187.488 225.776 189.350 C 225.635 190.373,225.289 191.952,225.006 192.859 C 224.140 195.639,224.857 195.982,228.109 194.344 L 230.753 193.012 233.185 194.162 C 237.318 196.117,237.682 195.805,236.325 191.475 C 235.441 188.655,235.591 188.106,237.625 186.712 C 240.749 184.572,240.193 183.084,236.328 183.240 C 234.151 183.327,232.668 182.971,232.997 182.439 C 233.096 182.279,232.740 181.555,232.205 180.830 C 231.671 180.106,231.319 179.289,231.425 179.014 C 231.530 178.740,231.435 178.516,231.215 178.516 C 230.994 178.516,230.914 178.352,231.038 178.152 C 231.162 177.952,231.057 177.661,230.805 177.506 C 230.531 177.336,230.452 177.392,230.609 177.646 M262.615 178.085 C 262.757 178.518,261.553 181.830,261.075 182.324 C 260.786 182.623,259.546 182.813,257.879 182.813 C 254.856 182.813,253.329 184.306,255.009 185.621 C 255.604 186.086,255.614 186.061,255.124 185.352 C 254.827 184.922,255.410 185.449,256.419 186.523 C 258.379 188.610,258.512 189.453,257.593 193.987 C 257.230 195.776,258.083 195.856,261.044 194.311 L 263.593 192.982 266.211 194.169 C 270.175 195.966,270.460 195.784,269.308 192.188 C 268.088 188.377,268.050 188.575,270.319 186.909 C 273.929 184.259,273.814 183.246,269.869 182.951 C 266.159 182.674,265.625 182.508,265.625 181.633 C 265.625 181.208,265.430 180.859,265.193 180.859 C 264.955 180.859,264.861 180.596,264.985 180.273 C 265.109 179.951,265.029 179.688,264.808 179.688 C 264.588 179.688,264.516 179.512,264.648 179.297 C 264.781 179.082,264.693 178.906,264.453 178.906 C 264.213 178.906,264.113 178.751,264.230 178.560 C 264.348 178.370,264.015 178.132,263.491 178.032 C 262.967 177.932,262.573 177.956,262.615 178.085 M130.596 180.176 C 130.129 181.304,129.553 182.181,129.316 182.125 C 129.079 182.070,128.800 182.245,128.696 182.516 C 128.565 182.856,127.741 182.975,126.017 182.902 C 122.995 182.773,122.292 183.546,124.106 185.004 C 126.688 187.080,126.578 186.797,126.393 190.936 C 126.169 195.948,126.258 196.060,129.210 194.456 L 131.588 193.164 133.470 193.881 C 134.505 194.275,135.967 194.833,136.719 195.120 C 137.471 195.408,138.219 195.515,138.381 195.359 C 138.705 195.046,137.639 191.040,137.074 190.449 C 136.241 189.579,136.854 188.411,139.090 186.608 C 142.546 183.821,142.290 182.764,138.151 182.740 C 135.092 182.722,134.216 182.261,133.106 180.084 C 131.923 177.763,131.590 177.775,130.596 180.176 M163.909 179.038 C 164.080 179.576,164.008 179.700,163.652 179.480 C 163.292 179.258,163.218 179.404,163.378 180.017 C 163.500 180.480,163.468 180.859,163.307 180.859 C 163.147 180.859,162.816 181.299,162.571 181.836 C 162.163 182.732,161.917 182.813,159.579 182.813 C 157.552 182.813,156.872 182.972,156.250 183.594 C 155.820 184.023,155.649 184.375,155.869 184.375 C 156.089 184.375,156.437 184.816,156.642 185.354 C 156.847 185.893,157.150 186.292,157.316 186.241 C 159.438 185.591,160.657 188.731,159.549 191.995 C 158.393 195.399,159.001 195.812,162.654 194.103 L 165.240 192.893 166.812 193.712 C 167.676 194.163,168.642 194.531,168.957 194.531 C 169.273 194.531,169.531 194.707,169.531 194.922 C 169.531 195.531,171.092 195.380,171.335 194.747 C 171.454 194.437,171.273 193.223,170.932 192.051 C 170.004 188.857,170.108 188.359,172.070 186.595 C 174.904 184.049,174.228 182.786,170.090 182.895 C 168.626 182.933,167.765 182.788,167.665 182.486 C 167.579 182.228,167.249 181.758,166.932 181.441 C 166.616 181.125,166.483 180.661,166.637 180.411 C 166.824 180.108,166.746 180.064,166.400 180.277 C 166.021 180.511,165.952 180.417,166.140 179.927 C 166.282 179.557,166.237 179.356,166.039 179.478 C 165.842 179.599,165.573 179.356,165.440 178.938 C 165.298 178.492,164.882 178.200,164.435 178.234 C 163.871 178.276,163.734 178.486,163.909 179.038 M196.743 180.483 C 195.810 182.507,195.026 182.881,191.728 182.881 C 190.228 182.881,189.103 182.983,189.228 183.108 C 189.353 183.233,189.149 183.701,188.775 184.148 C 188.400 184.595,188.252 184.831,188.445 184.671 C 188.914 184.284,189.903 185.135,189.584 185.651 C 189.444 185.877,189.520 185.943,189.752 185.799 C 189.983 185.656,190.519 185.981,190.943 186.520 C 191.367 187.059,191.890 187.500,192.104 187.500 C 192.870 187.500,192.792 192.457,192.005 193.729 C 191.130 195.144,192.916 195.331,195.436 194.088 L 198.059 192.795 200.349 194.054 C 204.119 196.127,204.790 195.697,203.524 192.017 C 202.419 188.806,202.471 188.601,204.902 186.524 C 208.047 183.837,207.510 182.937,202.711 182.851 C 200.220 182.807,199.570 182.411,198.631 180.371 C 197.792 178.545,197.632 178.555,196.743 180.483 M328.374 213.869 C 328.121 214.527,329.207 215.495,329.645 215.003 C 329.819 214.808,329.649 214.354,329.268 213.995 C 328.715 213.473,328.535 213.448,328.374 213.869 M310.886 215.105 C 311.106 215.499,312.916 217.402,314.907 219.336 C 316.898 221.270,318.485 222.996,318.433 223.174 C 318.382 223.351,318.496 223.399,318.686 223.282 C 318.876 223.164,319.821 223.898,320.787 224.913 C 324.178 228.476,327.812 231.641,328.512 231.641 C 329.280 231.641,334.880 225.892,334.582 225.410 C 334.482 225.248,334.640 224.787,334.933 224.386 C 335.480 223.638,335.403 221.297,334.807 220.532 C 334.629 220.304,334.367 219.634,334.226 219.043 C 334.085 218.452,333.787 217.969,333.563 217.969 C 333.340 217.969,333.283 217.749,333.438 217.480 C 333.593 217.212,333.573 217.124,333.395 217.286 C 333.217 217.448,332.793 217.341,332.454 217.048 C 331.669 216.372,330.078 215.974,330.078 216.452 C 330.078 217.057,328.057 217.666,327.593 217.202 C 326.944 216.553,326.563 216.730,326.563 217.678 C 326.563 219.377,322.366 220.383,321.688 218.848 C 321.293 217.956,320.313 217.625,320.313 218.383 C 320.313 219.285,316.648 218.343,315.533 217.154 C 314.945 216.528,314.305 216.016,314.111 216.016 C 313.917 216.016,313.783 215.718,313.813 215.354 C 313.855 214.846,313.474 214.657,312.176 214.541 C 310.633 214.403,310.521 214.453,310.886 215.105 M292.509 239.923 C 285.841 247.161,281.437 251.797,274.404 258.984 C 270.725 262.744,266.234 267.370,264.424 269.264 C 262.614 271.158,260.254 273.296,259.180 274.015 C 256.872 275.558,255.155 277.339,253.898 279.492 C 253.396 280.352,251.120 282.988,248.840 285.352 C 246.559 287.715,242.969 291.539,240.861 293.850 C 238.752 296.161,236.508 298.358,235.873 298.733 C 234.803 299.364,234.725 299.564,234.813 301.459 C 234.865 302.584,234.788 303.624,234.641 303.770 C 234.220 304.191,234.332 307.813,234.766 307.813 C 234.980 307.813,235.156 308.032,235.156 308.301 C 235.155 308.670,236.213 308.757,239.498 308.656 C 242.343 308.568,243.757 308.658,243.597 308.915 C 243.464 309.131,243.550 309.373,243.789 309.453 C 244.028 309.533,244.403 311.208,244.623 313.177 C 245.383 319.980,247.735 319.011,257.643 307.813 C 258.688 306.631,261.395 303.727,263.658 301.359 C 268.974 295.799,277.295 286.896,280.236 283.622 C 282.752 280.823,297.901 265.046,307.158 255.585 C 310.353 252.319,312.907 249.496,312.832 249.312 C 312.532 248.577,305.332 242.226,305.018 242.420 C 304.833 242.534,304.577 242.353,304.448 242.017 C 304.319 241.681,304.012 241.401,303.767 241.396 C 303.288 241.384,301.078 239.404,299.817 237.858 C 299.394 237.339,300.009 237.793,301.184 238.867 L 303.320 240.820 301.391 238.779 C 300.329 237.656,299.383 236.815,299.288 236.910 C 299.192 237.006,298.675 236.738,298.137 236.315 C 296.756 235.229,296.944 235.108,292.509 239.923 M230.866 322.125 C 226.660 324.552,225.776 325.251,225.794 326.135 C 225.805 326.705,225.847 326.705,226.282 326.134 C 227.125 325.030,229.185 324.146,229.430 324.783 C 229.673 325.416,230.529 325.370,231.360 324.680 C 231.679 324.416,232.443 324.225,233.060 324.257 C 233.676 324.289,234.949 324.030,235.889 323.681 C 237.889 322.939,238.426 322.887,238.066 323.470 C 237.922 323.702,238.352 323.610,239.021 323.263 C 240.715 322.388,239.724 320.540,237.689 320.778 C 237.006 320.858,236.241 320.698,235.983 320.422 C 235.283 319.672,234.890 319.803,230.866 322.125 " stroke="none" fill="#f4b930" fill-rule="evenodd"></path><path id="path2" d="M0.000 200.000 L 0.000 400.000 200.000 400.000 L 400.000 400.000 400.000 200.000 L 400.000 0.000 200.000 0.000 L 0.000 0.000 0.000 200.000 M202.919 71.650 C 203.765 72.003,205.409 73.011,206.572 73.890 L 208.688 75.487 237.449 75.610 C 272.224 75.758,273.065 75.837,280.907 79.669 C 292.478 85.323,299.710 94.342,302.845 107.031 C 303.650 110.289,303.669 111.271,303.883 159.050 C 304.003 185.834,304.231 207.877,304.389 208.035 C 304.547 208.193,305.063 207.812,305.536 207.189 C 312.392 198.143,321.639 197.778,331.535 206.162 C 344.483 217.131,344.777 227.199,332.449 237.460 C 331.314 238.405,329.808 240.075,329.102 241.171 C 327.610 243.489,322.399 248.647,320.080 250.102 C 319.201 250.653,317.443 252.293,316.174 253.744 C 312.831 257.570,309.133 261.215,306.103 263.672 C 302.237 266.807,302.245 266.781,302.957 273.696 C 306.034 303.561,288.712 323.042,259.064 323.060 L 251.135 323.065 249.425 324.641 C 247.735 326.199,245.463 327.248,238.477 329.697 C 236.758 330.300,232.275 331.968,228.516 333.405 C 206.447 341.837,205.415 341.635,209.176 329.625 C 210.141 326.544,210.932 323.795,210.934 323.515 C 210.937 323.101,203.352 323.019,169.824 323.071 L 128.711 323.136 124.219 322.080 C 107.262 318.095,95.925 306.333,91.497 288.133 C 90.408 283.656,90.457 113.958,91.549 108.986 C 95.492 91.036,107.575 79.406,125.620 76.193 C 127.163 75.919,138.249 75.746,157.189 75.702 L 186.380 75.634 188.707 73.905 C 192.894 70.793,198.674 69.876,202.919 71.650 M196.484 76.573 C 192.658 77.245,191.658 78.462,185.815 89.551 L 181.211 98.289 177.422 99.139 C 175.338 99.607,170.476 100.532,166.619 101.195 C 157.417 102.777,156.192 103.302,154.646 106.332 C 152.727 110.091,154.994 110.750,160.596 108.060 C 163.946 106.451,164.906 106.196,171.875 105.069 C 184.809 102.976,184.758 103.006,189.509 94.649 C 195.491 84.128,195.156 84.594,197.461 83.562 C 199.644 82.585,204.853 82.140,205.718 82.857 C 206.295 83.336,206.289 83.240,205.664 82.031 C 203.469 77.786,200.302 75.903,196.484 76.573 M133.594 81.287 C 117.078 81.744,107.001 87.215,100.921 99.028 C 98.169 104.375,98.137 104.526,99.449 105.896 C 101.453 107.987,102.786 107.558,104.727 104.199 C 108.318 97.987,112.994 93.321,118.300 90.657 C 125.138 87.224,128.271 86.726,143.164 86.708 C 154.529 86.694,180.503 85.818,181.117 85.428 C 181.637 85.098,183.387 81.695,183.156 81.464 C 182.849 81.157,143.387 81.016,133.594 81.287 M212.029 81.062 C 211.710 81.391,213.353 84.796,214.151 85.458 C 215.075 86.225,220.152 86.400,243.555 86.473 C 270.099 86.556,270.307 86.582,278.689 90.817 C 280.180 91.571,281.618 92.188,281.883 92.188 C 282.472 92.188,284.766 89.471,284.766 88.773 C 284.766 87.358,275.719 83.125,269.922 81.828 C 266.813 81.132,212.657 80.415,212.029 81.062 M212.708 98.814 C 210.016 101.788,213.408 103.318,226.563 105.065 C 231.006 105.655,233.798 106.474,236.041 107.846 C 238.496 109.348,238.831 109.332,241.320 107.606 C 241.590 107.418,240.489 105.183,239.720 104.357 C 238.258 102.787,237.092 102.435,228.682 101.018 C 224.186 100.260,218.887 99.306,216.907 98.897 C 213.527 98.199,213.270 98.194,212.708 98.814 M125.195 116.288 C 116.623 117.425,111.211 122.366,107.955 132.031 L 106.836 135.352 106.958 208.203 C 107.083 282.871,107.084 282.912,108.673 287.891 C 111.490 296.714,119.309 303.941,128.125 305.868 C 130.061 306.291,215.507 306.498,215.924 306.081 C 215.994 306.011,216.393 304.520,216.812 302.767 C 218.016 297.727,216.902 298.988,248.051 267.383 C 258.345 256.938,279.392 234.717,282.460 231.055 C 283.180 230.195,284.794 228.376,286.048 227.012 C 288.137 224.738,288.301 224.430,288.023 223.301 C 287.856 222.624,287.714 202.383,287.708 178.320 L 287.695 134.570 286.596 131.460 C 282.471 119.788,275.605 116.040,258.325 116.023 L 250.048 116.016 249.820 117.871 C 249.163 123.210,248.698 125.387,247.780 127.434 C 247.223 128.673,246.587 129.688,246.366 129.688 C 246.145 129.688,246.064 129.788,246.187 129.911 C 246.311 130.035,245.637 131.267,244.690 132.650 C 243.743 134.032,242.969 135.255,242.969 135.366 C 242.969 135.627,240.762 138.120,239.258 139.558 C 237.903 140.852,233.681 143.069,233.171 142.753 C 232.981 142.636,232.653 141.977,232.444 141.289 C 231.904 139.518,232.255 142.850,233.070 147.232 C 234.746 156.248,230.033 163.243,221.808 163.948 C 218.093 164.266,216.651 163.787,206.827 158.972 C 202.020 156.615,197.959 154.688,197.803 154.688 C 197.647 154.688,193.903 156.517,189.482 158.754 C 179.332 163.890,177.273 164.613,173.655 164.317 C 166.753 163.752,162.182 158.895,162.131 152.070 C 162.112 149.623,162.294 148.159,163.099 144.286 C 163.247 143.577,162.770 143.202,159.878 141.747 C 151.386 137.475,146.530 130.072,144.858 118.848 L 144.436 116.016 135.402 116.074 C 130.433 116.106,125.840 116.203,125.195 116.288 M231.276 132.080 C 230.505 133.123,230.439 133.460,230.801 134.516 L 231.222 135.742 231.002 134.441 C 230.832 133.431,230.982 132.928,231.669 132.196 C 232.156 131.677,232.469 131.167,232.363 131.061 C 232.257 130.955,231.768 131.414,231.276 132.080 M164.258 134.766 C 164.110 135.441,164.070 136.075,164.169 136.174 C 164.269 136.274,164.462 135.794,164.600 135.107 C 164.925 133.479,164.610 133.164,164.258 134.766 M167.578 173.388 C 168.115 173.771,169.046 174.987,169.646 176.090 C 170.567 177.783,170.948 178.129,172.087 178.306 C 172.830 178.421,174.083 178.617,174.872 178.741 C 179.275 179.434,179.960 184.322,176.222 188.377 L 174.650 190.082 175.432 193.134 C 177.066 199.511,174.317 201.833,168.275 199.182 L 165.520 197.973 162.478 199.400 C 156.887 202.024,154.484 200.358,154.780 194.061 L 154.957 190.271 153.666 189.019 C 149.454 184.937,150.663 179.867,156.087 178.869 C 158.850 178.360,159.016 178.239,160.479 175.646 C 162.319 172.385,164.984 171.538,167.578 173.388 M200.040 173.535 C 200.838 174.064,201.756 175.231,202.344 176.463 L 203.320 178.513 205.384 178.514 C 211.959 178.519,213.868 184.326,208.850 189.059 L 207.512 190.321 208.039 192.524 C 209.726 199.579,207.012 202.064,200.765 199.184 L 198.148 197.978 195.733 199.234 C 192.008 201.173,190.211 201.226,188.435 199.450 L 187.005 198.020 187.270 194.030 L 187.535 190.039 186.138 188.726 C 181.390 184.264,183.278 179.376,190.161 178.309 C 191.372 178.122,191.942 177.812,192.189 177.208 C 193.824 173.202,197.172 171.636,200.040 173.535 M233.472 173.926 C 234.134 174.624,235.038 176.030,235.480 177.051 L 236.284 178.906 238.696 178.906 C 244.380 178.906,246.011 184.062,241.734 188.509 L 240.201 190.103 241.041 193.165 C 242.823 199.661,239.944 202.067,233.833 199.190 L 231.143 197.923 228.364 199.352 C 225.258 200.950,224.777 201.025,222.825 200.209 C 220.705 199.324,220.125 197.543,220.692 193.663 L 221.141 190.591 219.179 188.445 C 215.213 184.105,216.392 179.908,221.884 178.820 C 224.338 178.334,224.428 178.272,225.255 176.528 C 227.147 172.536,230.998 171.316,233.472 173.926 M134.824 173.790 C 135.343 174.198,136.177 175.407,136.678 176.475 L 137.587 178.417 140.190 178.603 C 146.322 179.042,147.691 184.000,143.088 189.096 L 141.688 190.645 142.366 193.780 C 143.694 199.928,141.010 201.890,135.037 199.137 L 132.317 197.883 130.053 199.137 C 124.296 202.326,121.158 200.073,121.742 193.169 L 121.986 190.277 120.185 188.274 C 116.025 183.647,117.894 179.473,124.630 178.350 C 125.767 178.160,126.104 177.877,126.501 176.781 C 127.697 173.473,132.312 171.814,134.824 173.790 M266.306 173.999 C 266.928 174.522,267.676 175.676,267.968 176.562 C 268.619 178.534,269.263 178.906,272.019 178.906 C 278.382 178.906,279.754 185.183,274.325 189.454 L 273.350 190.221 273.980 193.010 C 275.663 200.466,272.478 202.683,265.502 198.912 L 263.621 197.895 261.348 199.144 C 257.867 201.058,255.826 201.199,254.262 199.635 L 253.015 198.388 253.222 194.345 L 253.428 190.303 252.058 188.999 C 247.642 184.797,249.662 178.906,255.519 178.906 L 257.669 178.906 258.560 176.756 C 260.116 173.003,263.633 171.750,266.306 173.999 M314.075 207.324 C 312.171 208.332,311.680 208.893,310.575 211.328 C 310.332 211.865,310.220 211.997,310.327 211.621 C 310.435 211.245,310.373 210.938,310.190 210.938 C 309.699 210.938,307.806 213.535,308.090 213.819 C 308.524 214.253,308.984 214.077,308.984 213.477 C 308.984 213.143,309.362 212.871,309.863 212.846 C 311.382 212.769,312.959 212.550,314.811 212.158 C 315.796 211.950,318.096 211.662,319.922 211.518 C 326.123 211.030,326.827 210.660,324.902 208.908 C 321.742 206.030,317.651 205.432,314.075 207.324 M138.086 214.080 C 150.486 219.979,147.664 239.572,134.092 241.817 C 126.214 243.120,118.270 235.746,118.291 227.148 C 118.316 216.860,129.043 209.778,138.086 214.080 M299.067 221.320 L 295.203 225.045 296.527 226.425 C 297.256 227.183,298.694 228.514,299.723 229.382 L 301.595 230.960 300.767 229.555 C 298.236 225.265,304.390 227.301,307.844 231.896 C 309.691 234.353,312.519 237.109,313.192 237.109 C 313.742 237.109,316.835 233.923,317.674 232.493 L 318.356 231.331 311.049 224.454 C 307.030 220.672,303.559 217.582,303.336 217.586 C 303.112 217.591,301.191 219.271,299.067 221.320 M270.695 219.825 C 275.559 222.269,274.096 229.650,268.359 231.613 C 265.848 232.472,245.985 233.285,237.305 232.885 C 233.008 232.687,218.682 232.572,205.469 232.629 C 192.256 232.686,176.274 232.580,169.954 232.393 L 158.464 232.053 157.321 230.968 C 153.513 227.352,154.268 221.335,158.757 219.519 C 160.583 218.780,269.207 219.077,270.695 219.825 M286.316 235.054 C 283.640 238.010,279.593 242.363,277.323 244.727 C 275.053 247.090,270.130 252.266,266.383 256.230 C 258.479 264.590,234.355 289.164,228.914 294.397 C 224.547 298.598,224.491 298.395,230.136 298.826 L 234.570 299.164 235.938 298.078 C 236.689 297.480,238.605 295.515,240.194 293.711 C 241.784 291.906,245.211 288.219,247.811 285.518 C 250.412 282.817,252.927 279.825,253.401 278.869 C 254.363 276.929,255.688 275.565,258.008 274.124 C 260.398 272.640,280.773 252.091,289.099 242.767 C 291.590 239.978,294.372 237.025,295.281 236.205 L 296.933 234.715 294.309 232.299 C 292.865 230.970,291.571 229.837,291.433 229.780 C 291.295 229.724,288.992 232.097,286.316 235.054 M138.071 254.651 C 146.938 259.016,148.760 269.580,141.875 276.705 C 129.702 289.304,110.537 271.128,122.054 257.907 C 126.103 253.261,132.574 251.945,138.071 254.651 M128.516 259.606 C 126.183 260.936,125.451 261.633,124.568 263.363 C 123.655 265.151,123.655 265.206,124.561 264.970 C 125.593 264.700,127.991 266.059,130.218 268.175 L 132.115 269.979 133.134 269.072 C 133.695 268.572,135.399 266.878,136.922 265.307 L 139.691 262.450 138.794 261.482 C 136.257 258.744,131.537 257.883,128.516 259.606 M123.448 267.383 C 123.457 269.568,124.627 271.907,126.412 273.307 C 128.285 274.775,129.682 275.527,129.981 275.227 C 130.106 275.102,130.003 275.000,129.753 275.000 C 129.502 275.000,129.336 274.868,129.384 274.707 C 129.505 274.296,128.250 272.419,126.298 270.092 C 125.385 269.004,124.369 267.598,124.040 266.967 L 123.442 265.820 123.448 267.383 M136.973 271.163 C 134.642 273.732,132.820 275.919,132.923 276.022 C 133.943 277.042,138.391 273.321,140.194 269.938 C 142.336 265.920,141.409 266.272,136.973 271.163 M281.432 291.113 C 280.849 291.812,278.944 293.876,277.198 295.702 C 275.452 297.527,273.683 299.461,273.266 299.999 L 272.510 300.977 273.491 300.094 C 274.030 299.609,274.619 299.345,274.799 299.508 C 274.978 299.671,275.000 299.587,274.847 299.321 C 274.660 298.996,274.766 298.913,275.172 299.069 C 275.842 299.326,275.610 301.139,274.842 301.654 C 274.607 301.812,274.563 301.944,274.744 301.947 C 276.067 301.971,281.125 297.708,280.912 296.748 C 280.872 296.571,281.011 296.532,281.221 296.662 C 281.430 296.791,281.788 296.548,282.017 296.121 C 282.353 295.493,282.287 295.268,281.671 294.938 C 280.707 294.422,279.688 294.414,279.688 294.922 C 279.688 295.137,280.039 295.313,280.469 295.313 C 280.898 295.313,281.250 295.502,281.250 295.733 C 281.250 295.972,280.708 296.098,279.993 296.026 C 278.999 295.925,278.641 296.087,278.285 296.800 C 277.894 297.583,277.802 297.614,277.580 297.037 C 277.440 296.672,277.417 296.281,277.530 296.168 C 277.642 296.056,277.743 296.125,277.753 296.322 C 277.763 296.519,278.078 296.064,278.452 295.313 C 278.860 294.491,279.397 293.967,279.796 293.999 C 280.161 294.028,280.365 293.899,280.249 293.711 C 280.133 293.523,280.497 292.883,281.059 292.290 C 282.096 291.194,282.983 289.844,282.666 289.844 C 282.570 289.844,282.014 290.415,281.432 291.113 M284.622 291.895 L 283.919 293.164 284.724 292.188 C 285.438 291.321,285.756 290.625,285.436 290.625 C 285.375 290.625,285.008 291.196,284.622 291.895 M220.591 310.286 C 219.576 313.974,218.491 317.828,218.180 318.849 L 217.615 320.706 219.257 321.537 C 220.160 321.994,221.381 322.707,221.970 323.123 C 222.559 323.538,223.246 323.751,223.495 323.597 C 223.745 323.443,223.849 323.478,223.728 323.674 C 222.958 324.920,224.517 325.328,225.814 324.220 C 226.548 323.592,227.368 323.071,227.637 323.063 C 228.182 323.045,228.270 322.317,227.813 321.599 C 227.218 320.662,224.011 320.780,224.109 321.735 C 224.165 322.283,223.929 322.641,223.425 322.773 C 222.120 323.114,222.255 322.544,225.326 314.793 C 225.976 313.154,226.709 311.062,226.956 310.145 C 227.565 307.883,228.689 306.685,228.311 308.701 C 228.161 309.500,228.232 310.397,228.476 310.808 C 228.802 311.356,228.880 310.745,228.807 308.203 L 228.711 304.883 226.367 304.657 C 225.078 304.533,223.666 304.240,223.230 304.005 C 222.473 303.599,222.350 303.893,220.591 310.286 M236.089 314.474 C 238.253 314.837,238.536 315.040,238.781 316.406 C 238.893 317.032,238.975 316.786,239.009 315.723 L 239.063 314.063 236.621 314.108 L 234.180 314.154 236.089 314.474 " stroke="none" fill="#fbfbf9" fill-rule="evenodd"></path><path id="path3" d="M162.598 75.681 C 164.263 75.754,166.987 75.754,168.652 75.681 C 170.317 75.608,168.955 75.548,165.625 75.548 C 162.295 75.548,160.933 75.608,162.598 75.681 M213.972 75.674 C 214.674 75.761,215.729 75.759,216.316 75.670 C 216.903 75.581,216.328 75.509,215.039 75.512 C 213.750 75.514,213.270 75.587,213.972 75.674 M232.910 75.681 C 234.575 75.754,237.300 75.754,238.965 75.681 C 240.630 75.608,239.268 75.548,235.938 75.548 C 232.607 75.548,231.245 75.608,232.910 75.681 M246.769 75.673 C 247.462 75.759,248.693 75.760,249.503 75.676 C 250.313 75.591,249.746 75.521,248.242 75.519 C 246.738 75.517,246.075 75.586,246.769 75.673 M112.402 80.302 C 110.888 81.123,111.059 81.407,112.598 80.624 C 114.070 79.876,114.331 79.681,113.835 79.703 C 113.638 79.712,112.993 79.981,112.402 80.302 M132.910 81.150 C 134.575 81.223,137.300 81.223,138.965 81.150 C 140.630 81.077,139.268 81.017,135.938 81.017 C 132.607 81.017,131.245 81.077,132.910 81.150 M156.543 81.151 C 159.604 81.217,164.614 81.217,167.676 81.151 C 170.737 81.085,168.232 81.031,162.109 81.031 C 155.986 81.031,153.481 81.085,156.543 81.151 M178.428 81.146 C 179.347 81.228,180.753 81.227,181.553 81.143 C 182.353 81.059,181.602 80.992,179.883 80.993 C 178.164 80.995,177.510 81.063,178.428 81.146 M211.328 81.175 C 211.328 81.349,211.601 81.833,211.936 82.250 C 212.526 82.987,212.532 82.985,212.145 82.180 C 211.926 81.725,211.857 81.242,211.993 81.106 C 212.129 80.970,212.035 80.859,211.784 80.859 C 211.533 80.859,211.328 81.002,211.328 81.175 M260.449 81.145 C 261.362 81.228,262.856 81.228,263.770 81.145 C 264.683 81.063,263.936 80.996,262.109 80.996 C 260.283 80.996,259.536 81.063,260.449 81.145 M105.249 85.254 L 104.102 86.523 105.371 85.376 C 106.554 84.307,106.820 83.984,106.518 83.984 C 106.451 83.984,105.880 84.556,105.249 85.254 M214.543 86.719 C 216.475 89.763,217.578 92.027,217.578 92.953 C 217.578 93.660,217.811 93.745,219.629 93.705 C 221.510 93.664,221.565 93.638,220.299 93.390 C 218.572 93.051,217.969 92.685,217.969 91.977 C 217.969 91.671,217.337 90.433,216.564 89.225 C 215.152 87.019,215.158 86.563,216.602 86.216 C 217.083 86.100,216.871 86.011,216.046 85.983 C 215.311 85.958,214.365 85.630,213.944 85.254 C 213.501 84.858,213.753 85.475,214.543 86.719 M179.883 85.547 C 179.023 85.701,178.716 85.852,179.199 85.882 C 180.209 85.946,180.207 85.939,179.688 87.303 C 179.450 87.929,179.122 88.220,178.847 88.049 C 178.587 87.889,178.500 87.940,178.642 88.170 C 179.319 89.266,176.633 93.306,175.113 93.478 C 173.817 93.625,173.852 93.640,175.390 93.600 C 177.043 93.557,177.189 93.463,177.868 91.992 C 178.264 91.133,179.266 89.243,180.095 87.793 C 180.923 86.343,181.566 85.181,181.523 85.212 C 181.480 85.242,180.742 85.393,179.883 85.547 M170.020 86.226 C 171.255 86.304,173.276 86.304,174.512 86.226 C 175.747 86.149,174.736 86.085,172.266 86.085 C 169.795 86.085,168.784 86.149,170.020 86.226 M152.344 86.722 C 146.792 86.948,146.842 86.953,154.883 86.983 C 159.395 86.999,163.877 86.881,164.844 86.719 C 166.956 86.367,161.022 86.368,152.344 86.722 M219.444 86.615 C 220.363 86.697,221.769 86.696,222.569 86.612 C 223.369 86.528,222.617 86.461,220.898 86.462 C 219.180 86.463,218.525 86.532,219.444 86.615 M226.636 86.660 C 226.140 86.800,234.351 86.914,244.883 86.914 C 255.415 86.914,263.732 86.795,263.364 86.649 C 262.511 86.310,227.843 86.321,226.636 86.660 M134.473 87.010 C 136.567 87.080,139.995 87.080,142.090 87.010 C 144.185 86.940,142.471 86.882,138.281 86.882 C 134.092 86.882,132.378 86.940,134.473 87.010 M291.406 86.841 C 291.406 86.908,291.978 87.479,292.676 88.111 L 293.945 89.258 292.798 87.988 C 291.729 86.805,291.406 86.539,291.406 86.841 M272.070 88.437 C 275.244 89.450,282.019 92.874,283.939 94.434 C 284.666 95.025,285.957 96.079,286.808 96.777 C 287.659 97.476,288.602 98.047,288.904 98.047 C 289.206 98.047,289.453 98.204,289.453 98.395 C 289.453 98.587,289.893 98.854,290.430 98.989 C 290.967 99.123,291.406 99.406,291.406 99.617 C 291.406 99.828,291.670 100.000,291.992 100.000 C 292.314 100.000,292.578 99.791,292.578 99.535 C 292.578 99.279,292.826 99.409,293.129 99.823 C 293.433 100.238,293.593 100.719,293.485 100.893 C 293.378 101.067,293.749 101.668,294.309 102.228 C 295.429 103.348,295.939 104.771,295.484 105.507 C 295.303 105.800,295.356 105.879,295.622 105.714 C 296.265 105.317,297.118 108.894,297.798 114.844 C 297.883 115.596,297.893 114.852,297.818 113.192 C 297.622 108.839,295.392 100.836,294.524 101.372 C 294.353 101.477,294.291 101.256,294.386 100.879 C 294.606 100.005,291.514 94.813,289.559 92.773 C 286.841 89.939,283.887 87.290,284.403 88.149 C 284.851 88.894,284.781 89.163,283.820 90.423 C 282.276 92.448,282.026 92.458,278.305 90.640 C 274.688 88.873,270.951 87.481,269.958 87.532 C 269.616 87.549,270.566 87.957,272.070 88.437 M106.042 91.504 L 103.711 93.945 106.152 91.614 C 108.420 89.448,108.772 89.063,108.484 89.063 C 108.423 89.063,107.325 90.161,106.042 91.504 M118.086 90.768 C 112.698 93.597,108.297 98.023,104.727 104.199 C 102.772 107.582,101.571 107.949,99.387 105.833 L 98.151 104.635 97.234 107.689 C 96.250 110.967,95.562 152.809,96.403 158.203 C 96.643 159.737,96.747 157.613,96.769 150.781 C 96.786 145.518,96.887 140.068,96.994 138.672 C 97.102 137.275,97.321 134.375,97.481 132.227 C 97.641 130.078,97.895 128.232,98.045 128.125 C 98.442 127.842,98.893 123.438,98.526 123.438 C 98.072 123.438,97.999 119.998,98.447 119.721 C 98.656 119.591,98.828 119.145,98.828 118.729 C 98.828 117.557,102.247 109.292,103.780 106.760 C 104.534 105.513,105.556 103.701,106.049 102.734 C 108.117 98.681,113.795 93.348,118.750 90.806 C 120.576 89.869,121.895 89.098,121.680 89.094 C 121.465 89.089,119.848 89.842,118.086 90.768 M229.102 95.094 C 241.306 97.164,243.662 98.320,246.428 103.595 C 249.260 108.999,248.142 113.805,242.519 120.379 C 241.477 121.598,240.625 122.784,240.625 123.016 C 240.625 123.248,240.453 123.394,240.244 123.340 C 240.034 123.286,239.463 123.690,238.974 124.237 C 238.486 124.784,238.259 124.960,238.470 124.628 C 238.726 124.224,238.568 124.267,237.991 124.759 C 237.516 125.164,237.239 125.674,237.374 125.894 C 237.510 126.113,237.448 126.186,237.238 126.056 C 237.027 125.926,235.638 127.066,234.150 128.589 C 232.663 130.111,231.665 131.235,231.934 131.085 C 232.717 130.649,232.496 131.452,231.613 132.251 C 230.983 132.822,230.852 133.288,231.018 134.363 C 231.187 135.451,231.149 135.577,230.842 134.961 C 230.498 134.270,230.476 134.292,230.656 135.156 C 230.768 135.693,230.976 136.830,231.118 137.681 C 231.331 138.955,231.433 139.093,231.696 138.462 C 231.894 137.989,231.943 138.443,231.825 139.648 C 231.689 141.042,231.739 141.378,232.001 140.820 C 232.363 140.047,232.367 140.047,232.394 140.843 C 232.509 144.196,236.960 142.359,241.699 137.003 C 242.397 136.213,242.969 135.477,242.969 135.366 C 242.969 135.255,243.743 134.032,244.690 132.650 C 245.637 131.267,246.311 130.035,246.187 129.911 C 246.064 129.788,246.145 129.688,246.366 129.688 C 247.496 129.688,249.110 124.220,249.798 118.066 C 250.025 116.030,250.019 116.016,248.939 116.010 C 246.901 115.998,246.663 115.529,247.655 113.479 C 248.797 111.119,248.599 106.748,247.232 104.178 C 246.753 103.277,246.130 102.092,245.848 101.545 C 245.292 100.467,243.911 99.151,242.601 98.450 C 242.147 98.207,241.895 97.814,242.042 97.576 C 242.202 97.316,242.129 97.255,241.857 97.424 C 241.609 97.577,241.406 97.536,241.406 97.333 C 241.406 97.130,240.923 96.877,240.332 96.771 C 239.741 96.664,236.973 96.135,234.180 95.595 C 228.822 94.559,223.248 93.714,222.266 93.790 C 221.943 93.815,225.020 94.402,229.102 95.094 M181.836 96.484 C 181.503 97.129,181.318 97.656,181.425 97.656 C 181.533 97.656,181.893 97.129,182.227 96.484 C 182.560 95.840,182.745 95.313,182.637 95.313 C 182.530 95.313,182.169 95.840,181.836 96.484 M153.691 98.276 C 152.209 99.247,149.563 102.212,149.276 103.224 C 149.200 103.492,149.447 103.271,149.824 102.734 C 151.118 100.893,152.541 99.503,154.276 98.385 C 155.231 97.769,155.837 97.266,155.623 97.266 C 155.410 97.266,154.540 97.720,153.691 98.276 M94.595 99.431 C 93.940 100.867,94.065 101.174,94.773 99.868 C 95.103 99.258,95.301 98.686,95.211 98.597 C 95.122 98.507,94.844 98.883,94.595 99.431 M303.216 110.938 C 303.216 111.689,303.296 111.997,303.394 111.621 C 303.493 111.245,303.493 110.630,303.394 110.254 C 303.296 109.878,303.216 110.186,303.216 110.938 M147.776 114.063 C 147.988 115.633,145.620 117.463,144.839 116.331 C 144.267 115.504,144.884 119.748,145.929 123.828 C 148.077 132.221,152.618 138.082,159.778 141.702 C 163.560 143.615,163.625 143.581,163.785 139.613 C 163.830 138.497,163.980 137.651,164.117 137.734 C 164.435 137.924,164.970 135.153,164.674 134.856 C 164.552 134.735,164.453 135.046,164.453 135.547 C 164.453 136.048,164.349 136.354,164.221 136.226 C 164.093 136.098,164.112 135.430,164.263 134.742 C 164.465 133.823,164.629 133.634,164.880 134.030 C 165.129 134.423,165.224 134.301,165.228 133.586 C 165.235 132.549,161.212 128.329,155.754 123.644 C 152.803 121.112,149.985 117.595,148.545 114.648 C 147.630 112.775,147.599 112.751,147.776 114.063 M303.703 149.219 C 303.703 169.092,303.750 177.222,303.808 167.285 C 303.867 157.349,303.867 141.089,303.808 131.152 C 303.750 121.216,303.703 129.346,303.703 149.219 M125.000 115.894 C 123.355 116.169,119.828 117.224,119.996 117.392 C 120.083 117.478,121.024 117.266,122.089 116.920 C 123.544 116.446,126.442 116.226,133.789 116.029 L 143.555 115.768 134.766 115.750 C 129.932 115.740,125.537 115.805,125.000 115.894 M260.156 116.003 C 270.314 116.279,271.699 116.496,275.478 118.404 C 276.719 119.030,277.734 119.441,277.734 119.316 C 277.734 119.192,276.196 118.354,274.316 117.455 L 270.898 115.820 260.742 115.782 L 250.586 115.743 260.156 116.003 M117.250 118.501 C 115.459 119.438,112.308 122.318,111.636 123.633 C 111.416 124.063,112.157 123.396,113.282 122.151 C 114.476 120.830,116.244 119.414,117.527 118.751 C 118.737 118.127,119.551 117.615,119.336 117.615 C 119.121 117.614,118.182 118.013,117.250 118.501 M280.501 121.895 C 281.916 123.281,283.558 125.249,284.152 126.270 C 285.240 128.141,285.965 128.875,285.117 127.246 C 284.081 125.258,281.875 122.601,279.963 121.039 C 278.122 119.534,278.173 119.615,280.501 121.895 M285.785 129.102 C 285.923 129.531,286.409 130.938,286.865 132.227 C 287.693 134.564,287.695 134.699,287.695 178.776 C 287.695 203.089,287.799 223.085,287.925 223.211 C 288.051 223.337,288.144 219.177,288.131 213.966 C 288.118 208.756,288.140 189.144,288.179 170.384 C 288.254 134.772,288.212 133.753,286.517 130.312 C 285.977 129.216,285.648 128.672,285.785 129.102 M108.250 130.112 C 108.011 130.796,107.508 131.582,107.131 131.858 C 106.266 132.490,106.050 177.260,106.605 241.016 C 106.944 279.982,106.954 278.795,106.896 208.203 L 106.836 134.961 107.909 132.063 C 108.500 130.469,108.916 129.098,108.833 129.016 C 108.751 128.934,108.489 129.427,108.250 130.112 M297.755 132.617 C 297.759 133.477,297.839 133.782,297.933 133.296 C 298.026 132.810,298.022 132.107,297.925 131.734 C 297.827 131.360,297.750 131.758,297.755 132.617 M230.692 132.254 C 230.354 132.592,230.092 133.163,230.109 133.524 C 230.134 134.060,230.179 134.072,230.355 133.594 C 230.474 133.271,230.839 132.700,231.166 132.324 C 231.907 131.474,231.528 131.419,230.692 132.254 M297.809 142.578 C 297.809 145.479,297.871 146.665,297.946 145.215 C 298.021 143.765,298.021 141.392,297.946 139.941 C 297.871 138.491,297.809 139.678,297.809 142.578 M209.766 160.348 C 209.766 160.615,212.157 161.801,212.336 161.622 C 212.421 161.537,211.877 161.176,211.128 160.819 C 210.379 160.461,209.766 160.249,209.766 160.348 M96.286 169.632 C 96.134 171.864,96.082 174.029,96.170 174.443 C 96.257 174.857,96.461 173.109,96.621 170.559 C 96.781 168.009,96.834 165.844,96.738 165.748 C 96.642 165.652,96.439 167.400,96.286 169.632 M118.059 183.984 C 118.059 184.736,118.140 185.044,118.238 184.668 C 118.336 184.292,118.336 183.677,118.238 183.301 C 118.140 182.925,118.059 183.232,118.059 183.984 M303.683 194.727 C 303.683 199.668,303.739 201.636,303.808 199.099 C 303.876 196.563,303.875 192.520,303.807 190.115 C 303.739 187.710,303.683 189.785,303.683 194.727 M251.758 188.672 C 252.597 189.531,253.371 190.234,253.479 190.234 C 253.586 190.234,252.988 189.531,252.148 188.672 C 251.309 187.813,250.535 187.109,250.427 187.109 C 250.320 187.109,250.919 187.813,251.758 188.672 M153.516 188.867 C 154.244 189.619,154.929 190.234,155.036 190.234 C 155.143 190.234,154.635 189.619,153.906 188.867 C 153.177 188.115,152.493 187.500,152.386 187.500 C 152.278 187.500,152.787 188.115,153.516 188.867 M142.584 189.252 C 141.858 190.001,141.340 190.673,141.433 190.747 C 141.526 190.820,142.193 190.208,142.916 189.385 C 144.560 187.517,144.348 187.432,142.584 189.252 M90.795 199.609 C 90.795 205.088,90.850 207.329,90.917 204.590 C 90.984 201.851,90.984 197.368,90.917 194.629 C 90.850 191.890,90.795 194.131,90.795 199.609 M121.583 195.508 C 121.587 196.367,121.667 196.673,121.761 196.187 C 121.854 195.701,121.851 194.998,121.753 194.624 C 121.655 194.251,121.579 194.648,121.583 195.508 M220.403 196.094 C 220.403 196.846,220.484 197.153,220.582 196.777 C 220.680 196.401,220.680 195.786,220.582 195.410 C 220.484 195.034,220.403 195.342,220.403 196.094 M142.669 196.875 C 142.669 197.627,142.749 197.935,142.847 197.559 C 142.946 197.183,142.946 196.567,142.847 196.191 C 142.749 195.815,142.669 196.123,142.669 196.875 M96.200 198.438 C 96.200 199.404,96.276 199.800,96.369 199.316 C 96.463 198.833,96.463 198.042,96.369 197.559 C 96.276 197.075,96.200 197.471,96.200 198.438 M259.375 199.805 C 258.838 200.112,258.574 200.363,258.789 200.363 C 259.004 200.363,259.619 200.112,260.156 199.805 C 260.693 199.498,260.957 199.246,260.742 199.246 C 260.527 199.246,259.912 199.498,259.375 199.805 M138.188 200.276 C 138.674 200.370,139.377 200.366,139.751 200.268 C 140.124 200.171,139.727 200.094,138.867 200.099 C 138.008 200.103,137.702 200.183,138.188 200.276 M171.391 200.276 C 171.877 200.370,172.580 200.366,172.954 200.268 C 173.327 200.171,172.930 200.094,172.070 200.099 C 171.211 200.103,170.905 200.183,171.391 200.276 M190.532 200.667 C 191.018 200.760,191.721 200.757,192.094 200.659 C 192.468 200.561,192.070 200.485,191.211 200.489 C 190.352 200.493,190.046 200.573,190.532 200.667 M255.957 200.660 C 256.333 200.758,256.948 200.758,257.324 200.660 C 257.700 200.562,257.393 200.481,256.641 200.481 C 255.889 200.481,255.581 200.562,255.957 200.660 M317.676 206.129 C 318.052 206.227,318.667 206.227,319.043 206.129 C 319.419 206.030,319.111 205.950,318.359 205.950 C 317.607 205.950,317.300 206.030,317.676 206.129 M304.029 207.391 C 304.069 207.912,304.365 208.408,304.688 208.495 C 305.075 208.600,305.123 208.544,304.830 208.331 C 304.587 208.153,304.291 207.656,304.172 207.227 C 304.003 206.611,303.973 206.645,304.029 207.391 M339.334 215.425 C 339.691 216.174,340.053 216.718,340.138 216.633 C 340.317 216.454,339.131 214.063,338.863 214.063 C 338.765 214.063,338.977 214.676,339.334 215.425 M141.797 216.992 C 142.526 217.744,143.210 218.359,143.317 218.359 C 143.425 218.359,142.916 217.744,142.188 216.992 C 141.459 216.240,140.774 215.625,140.667 215.625 C 140.560 215.625,141.068 216.240,141.797 216.992 M299.790 220.410 L 297.852 222.461 299.902 220.522 C 301.808 218.721,302.132 218.359,301.841 218.359 C 301.779 218.359,300.856 219.282,299.790 220.410 M158.757 219.519 C 154.268 221.335,153.513 227.352,157.321 230.968 L 158.464 232.053 169.954 232.393 C 176.274 232.580,192.256 232.686,205.469 232.629 C 218.682 232.572,233.008 232.687,237.305 232.885 C 245.985 233.285,265.848 232.472,268.359 231.613 C 274.096 229.650,275.559 222.269,270.695 219.825 C 269.207 219.077,160.583 218.780,158.757 219.519 M341.137 222.852 C 341.139 224.141,341.212 224.621,341.299 223.919 C 341.386 223.217,341.384 222.162,341.295 221.575 C 341.206 220.988,341.134 221.563,341.137 222.852 M310.742 224.219 C 312.018 225.508,313.149 226.563,313.257 226.563 C 313.364 226.563,312.408 225.508,311.133 224.219 C 309.857 222.930,308.726 221.875,308.618 221.875 C 308.511 221.875,309.467 222.930,310.742 224.219 M285.156 227.930 C 284.207 228.896,283.519 229.688,283.626 229.688 C 283.734 229.688,284.598 228.896,285.547 227.930 C 286.496 226.963,287.184 226.172,287.077 226.172 C 286.969 226.172,286.105 226.963,285.156 227.930 M316.141 229.137 L 318.408 231.517 316.965 233.434 C 313.440 238.118,312.387 237.940,307.844 231.896 C 304.360 227.262,298.252 225.276,300.790 229.603 L 301.641 231.055 300.700 230.273 C 300.182 229.844,300.639 230.283,301.716 231.250 C 308.639 237.463,316.393 244.584,316.599 244.918 C 317.120 245.760,317.922 245.180,321.369 241.468 L 324.939 237.624 319.407 232.191 C 316.364 229.203,314.894 227.829,316.141 229.137 M293.945 232.031 C 294.784 232.891,295.559 233.594,295.666 233.594 C 295.774 233.594,295.175 232.891,294.336 232.031 C 293.497 231.172,292.722 230.469,292.615 230.469 C 292.507 230.469,293.106 231.172,293.945 232.031 M335.732 234.060 C 334.234 235.605,333.492 236.502,334.085 236.053 C 335.119 235.267,338.896 231.250,338.600 231.250 C 338.521 231.250,337.231 232.514,335.732 234.060 M286.899 234.082 L 284.961 236.133 287.012 234.194 C 288.917 232.393,289.242 232.031,288.950 232.031 C 288.888 232.031,287.966 232.954,286.899 234.082 M278.693 235.254 L 277.148 236.914 278.809 235.370 C 280.353 233.934,280.648 233.594,280.353 233.594 C 280.289 233.594,279.542 234.341,278.693 235.254 M122.656 237.695 C 123.385 238.447,124.069 239.063,124.177 239.063 C 124.284 239.063,123.776 238.447,123.047 237.695 C 122.318 236.943,121.634 236.328,121.526 236.328 C 121.419 236.328,121.927 236.943,122.656 237.695 M283.182 238.184 L 281.836 239.648 283.301 238.302 C 284.664 237.049,284.945 236.719,284.647 236.719 C 284.582 236.719,283.922 237.378,283.182 238.184 M330.319 239.064 C 329.542 239.924,328.906 240.750,328.906 240.900 C 328.906 241.049,329.039 241.005,329.200 240.801 C 329.362 240.597,330.100 239.771,330.839 238.965 C 331.579 238.159,332.083 237.500,331.958 237.500 C 331.833 237.500,331.096 238.204,330.319 239.064 M272.837 241.504 L 270.898 243.555 272.949 241.616 C 274.855 239.815,275.179 239.453,274.888 239.453 C 274.826 239.453,273.903 240.376,272.837 241.504 M278.306 243.457 L 276.367 245.508 278.418 243.569 C 280.324 241.768,280.648 241.406,280.356 241.406 C 280.295 241.406,279.372 242.329,278.306 243.457 M324.991 245.605 L 321.680 249.023 325.098 245.712 C 328.272 242.636,328.694 242.188,328.409 242.188 C 328.351 242.188,326.813 243.726,324.991 245.605 M266.395 248.340 L 263.867 250.977 266.504 248.449 C 268.953 246.101,269.319 245.703,269.032 245.703 C 268.972 245.703,267.785 246.890,266.395 248.340 M271.264 250.879 L 270.117 252.148 271.387 251.001 C 272.570 249.932,272.836 249.609,272.534 249.609 C 272.467 249.609,271.896 250.181,271.264 250.879 M316.784 252.637 L 314.648 254.883 316.895 252.748 C 318.981 250.764,319.320 250.391,319.030 250.391 C 318.969 250.391,317.958 251.401,316.784 252.637 M260.547 254.492 C 259.598 255.459,258.910 256.250,259.017 256.250 C 259.124 256.250,259.989 255.459,260.938 254.492 C 261.886 253.525,262.575 252.734,262.467 252.734 C 262.360 252.734,261.496 253.525,260.547 254.492 M131.348 253.405 C 131.938 253.494,132.905 253.494,133.496 253.405 C 134.087 253.315,133.604 253.242,132.422 253.242 C 131.240 253.242,130.757 253.315,131.348 253.405 M122.635 257.324 L 121.289 258.789 122.754 257.443 C 124.117 256.190,124.398 255.859,124.100 255.859 C 124.035 255.859,123.376 256.519,122.635 257.324 M262.882 259.668 L 259.570 263.086 262.988 259.774 C 266.163 256.698,266.584 256.250,266.300 256.250 C 266.242 256.250,264.703 257.788,262.882 259.668 M310.547 259.470 C 308.936 261.008,308.145 261.894,308.789 261.438 C 309.939 260.624,314.012 256.625,313.657 256.657 C 313.558 256.666,312.158 257.932,310.547 259.470 M131.348 258.472 C 131.724 258.571,132.339 258.571,132.715 258.472 C 133.091 258.374,132.783 258.294,132.031 258.294 C 131.279 258.294,130.972 258.374,131.348 258.472 M139.361 262.174 C 139.708 262.520,139.657 262.759,139.147 263.172 C 138.553 263.653,138.580 263.665,139.381 263.276 C 140.205 262.875,140.020 261.719,139.132 261.719 C 139.008 261.719,139.111 261.924,139.361 262.174 M305.838 263.574 L 304.492 265.039 305.957 263.693 C 307.320 262.440,307.601 262.109,307.303 262.109 C 307.238 262.109,306.579 262.769,305.838 263.574 M244.332 271.191 L 236.914 278.711 244.434 271.293 C 248.569 267.213,251.953 263.829,251.953 263.773 C 251.953 263.495,251.224 264.205,244.332 271.191 M118.480 266.992 C 118.483 268.281,118.556 268.762,118.642 268.059 C 118.729 267.357,118.728 266.303,118.638 265.716 C 118.549 265.129,118.478 265.703,118.480 266.992 M247.848 275.098 L 239.258 283.789 247.949 275.199 C 256.025 267.217,256.817 266.406,256.540 266.406 C 256.484 266.406,252.573 270.317,247.848 275.098 M138.843 268.848 L 137.695 270.117 138.965 268.970 C 140.148 267.900,140.414 267.578,140.112 267.578 C 140.045 267.578,139.474 268.149,138.843 268.848 M302.020 268.555 C 302.013 268.984,302.159 269.688,302.344 270.117 C 302.771 271.113,302.771 270.086,302.344 268.750 C 302.092 267.965,302.029 267.927,302.020 268.555 M132.693 269.348 C 132.090 269.879,131.752 270.313,131.941 270.313 C 132.131 270.313,132.699 269.873,133.203 269.336 C 134.371 268.093,134.113 268.100,132.693 269.348 M123.468 269.554 C 123.451 269.889,123.711 270.504,124.045 270.921 C 124.643 271.668,124.647 271.667,124.293 270.898 C 124.095 270.469,123.836 269.854,123.716 269.531 C 123.529 269.025,123.495 269.028,123.468 269.554 M127.156 271.076 C 128.981 273.375,129.666 274.576,129.287 274.811 C 128.177 275.497,132.969 276.951,134.154 276.288 C 134.543 276.070,134.199 275.948,133.114 275.920 C 131.725 275.884,131.293 275.647,130.102 274.271 C 127.936 271.768,126.284 269.977,127.156 271.076 M134.556 273.535 L 132.617 275.586 134.668 273.647 C 135.796 272.581,136.719 271.659,136.719 271.597 C 136.719 271.305,136.357 271.630,134.556 273.535 M136.919 273.127 C 136.144 273.874,136.144 273.874,136.919 273.590 C 137.693 273.306,137.693 273.308,136.922 274.250 C 136.497 274.770,136.805 274.590,137.606 273.849 C 139.001 272.560,139.656 271.678,138.515 272.625 C 138.213 272.875,137.906 272.922,137.831 272.729 C 137.756 272.536,137.346 272.715,136.919 273.127 M302.841 275.000 C 302.841 275.967,302.917 276.362,303.010 275.879 C 303.103 275.396,303.103 274.604,303.010 274.121 C 302.917 273.638,302.841 274.033,302.841 275.000 M90.773 278.125 C 90.773 280.596,90.836 281.606,90.914 280.371 C 90.991 279.136,90.991 277.114,90.914 275.879 C 90.836 274.644,90.773 275.654,90.773 278.125 M303.261 280.859 C 303.261 282.686,303.329 283.433,303.411 282.520 C 303.493 281.606,303.493 280.112,303.411 279.199 C 303.329 278.286,303.261 279.033,303.261 280.859 M285.310 286.594 C 284.044 288.039,283.255 289.071,283.556 288.887 C 283.930 288.658,284.016 288.695,283.826 289.002 C 283.673 289.250,283.333 289.453,283.070 289.453 C 282.630 289.453,276.311 296.053,275.029 297.852 C 274.723 298.281,275.315 297.702,276.345 296.563 C 277.375 295.425,278.301 294.577,278.403 294.679 C 278.770 295.046,278.060 296.491,277.640 296.231 C 277.360 296.058,277.302 296.203,277.473 296.648 C 277.617 297.023,277.737 297.447,277.740 297.591 C 277.743 297.734,277.968 297.412,278.241 296.875 C 278.641 296.085,278.976 295.923,279.993 296.026 C 280.708 296.098,281.250 295.972,281.250 295.733 C 281.250 295.502,280.898 295.313,280.469 295.313 C 280.039 295.313,279.688 295.137,279.688 294.922 C 279.688 294.414,280.707 294.422,281.671 294.938 C 282.287 295.268,282.353 295.493,282.017 296.121 C 281.779 296.564,281.400 296.782,281.133 296.628 C 280.875 296.480,280.794 296.503,280.954 296.679 C 281.113 296.855,281.044 297.239,280.800 297.532 C 280.557 297.826,280.449 298.158,280.562 298.270 C 281.371 299.079,286.964 289.765,286.459 288.450 C 286.290 288.009,286.346 287.855,286.614 288.021 C 287.029 288.278,288.173 284.528,287.795 284.149 C 287.694 284.048,286.576 285.148,285.310 286.594 M228.502 287.402 L 226.367 289.648 228.613 287.513 C 230.700 285.530,231.038 285.156,230.748 285.156 C 230.687 285.156,229.677 286.167,228.502 287.402 M108.250 287.500 C 108.244 287.822,108.480 288.613,108.775 289.258 C 109.466 290.766,109.476 290.065,108.789 288.281 C 108.499 287.529,108.257 287.178,108.250 287.500 M233.374 289.941 L 232.227 291.211 233.496 290.064 C 234.679 288.994,234.945 288.672,234.643 288.672 C 234.576 288.672,234.005 289.243,233.374 289.941 M282.460 290.527 C 282.251 290.903,281.620 291.696,281.059 292.290 C 280.497 292.883,280.162 293.570,280.314 293.815 C 280.487 294.096,280.416 294.154,280.121 293.972 C 279.864 293.813,279.357 293.918,278.994 294.205 C 278.632 294.492,279.281 293.628,280.437 292.285 C 282.583 289.792,283.135 289.313,282.460 290.527 M109.382 290.736 C 109.329 293.027,115.420 300.101,119.336 302.295 C 120.219 302.789,120.480 302.863,119.936 302.464 C 116.186 299.713,115.114 298.772,113.513 296.827 C 112.518 295.619,111.184 293.685,110.547 292.530 C 109.910 291.375,109.386 290.567,109.382 290.736 M285.538 290.918 C 285.533 291.079,285.167 291.650,284.724 292.188 L 283.919 293.164 284.622 291.895 C 285.329 290.617,285.554 290.377,285.538 290.918 M219.311 296.973 L 218.164 298.242 219.434 297.095 C 220.132 296.464,220.703 295.893,220.703 295.825 C 220.703 295.524,220.381 295.789,219.311 296.973 M94.559 297.461 C 94.559 297.676,94.810 298.291,95.117 298.828 C 95.424 299.365,95.675 299.629,95.675 299.414 C 95.675 299.199,95.424 298.584,95.117 298.047 C 94.810 297.510,94.559 297.246,94.559 297.461 M274.400 299.242 C 274.270 299.451,274.032 299.540,273.870 299.440 C 273.708 299.340,272.186 300.655,270.488 302.363 C 268.790 304.071,267.501 305.469,267.624 305.469 C 269.295 305.469,275.140 302.495,274.740 301.849 C 274.580 301.590,274.715 301.519,275.093 301.665 C 275.430 301.794,276.030 301.638,276.427 301.319 C 277.092 300.784,277.075 300.774,276.212 301.195 C 275.311 301.634,275.284 301.607,275.511 300.471 C 275.748 299.289,274.929 298.385,274.400 299.242 M278.320 299.839 L 277.148 300.846 278.418 300.006 C 279.116 299.544,279.688 299.090,279.688 298.997 C 279.688 298.704,279.522 298.806,278.320 299.839 M121.094 303.317 C 121.094 303.584,123.486 304.770,123.664 304.591 C 123.749 304.506,123.205 304.145,122.456 303.787 C 121.707 303.430,121.094 303.218,121.094 303.317 M228.903 307.928 L 229.094 311.133 229.214 308.241 C 229.280 306.650,229.193 305.208,229.022 305.036 C 228.851 304.864,228.797 306.165,228.903 307.928 M216.016 305.794 C 216.016 306.113,214.521 306.275,211.035 306.334 L 206.055 306.419 210.905 306.542 C 215.395 306.657,217.046 306.369,216.283 305.605 C 216.136 305.459,216.016 305.544,216.016 305.794 M131.152 306.526 C 131.636 306.619,132.427 306.619,132.910 306.526 C 133.394 306.433,132.998 306.356,132.031 306.356 C 131.064 306.356,130.669 306.433,131.152 306.526 M158.496 306.543 C 167.144 306.601,181.294 306.601,189.941 306.543 C 198.589 306.484,191.514 306.436,174.219 306.436 C 156.924 306.436,149.849 306.484,158.496 306.543 M100.000 307.153 C 100.000 307.221,100.571 307.792,101.270 308.423 L 102.539 309.570 101.392 308.301 C 100.322 307.117,100.000 306.852,100.000 307.153 M290.415 311.816 L 288.477 313.867 290.527 311.929 C 291.655 310.863,292.578 309.940,292.578 309.878 C 292.578 309.586,292.216 309.911,290.415 311.816 M104.688 311.841 C 104.688 311.908,105.259 312.479,105.957 313.111 L 107.227 314.258 106.079 312.988 C 105.010 311.805,104.688 311.539,104.688 311.841 M235.066 313.955 C 235.768 314.042,236.822 314.040,237.409 313.951 C 237.996 313.862,237.422 313.791,236.133 313.793 C 234.844 313.795,234.363 313.868,235.066 313.955 M239.161 316.992 C 239.165 317.852,239.245 318.157,239.339 317.671 C 239.432 317.185,239.429 316.482,239.331 316.109 C 239.233 315.735,239.157 316.133,239.161 316.992 M280.469 318.555 C 279.072 319.286,278.067 319.892,278.234 319.903 C 278.649 319.929,283.203 317.614,283.203 317.377 C 283.203 317.115,283.295 317.075,280.469 318.555 M153.247 322.949 C 156.860 323.013,162.661 323.013,166.138 322.948 C 169.616 322.884,166.660 322.831,159.570 322.831 C 152.480 322.831,149.635 322.884,153.247 322.949 M180.371 322.932 C 180.854 323.025,181.646 323.025,182.129 322.932 C 182.612 322.839,182.217 322.763,181.250 322.763 C 180.283 322.763,179.888 322.839,180.371 322.932 M191.895 322.947 C 193.774 323.019,196.851 323.019,198.730 322.947 C 200.610 322.875,199.072 322.817,195.313 322.817 C 191.553 322.817,190.015 322.875,191.895 322.947 M135.069 323.333 C 135.988 323.416,137.394 323.415,138.194 323.331 C 138.994 323.247,138.242 323.179,136.523 323.181 C 134.805 323.182,134.150 323.251,135.069 323.333 M248.047 325.449 C 247.295 326.109,247.033 326.469,247.465 326.251 C 248.179 325.890,249.948 324.197,249.572 324.235 C 249.485 324.243,248.799 324.790,248.047 325.449 " stroke="none" fill="#aacab4" fill-rule="evenodd"></path><path id="path4" d="M199.962 82.818 C 197.908 83.165,196.185 83.971,195.254 85.019 C 194.545 85.817,194.230 86.345,189.509 94.649 C 184.758 103.006,184.809 102.976,171.875 105.069 C 164.906 106.196,163.946 106.451,160.596 108.060 C 157.483 109.554,156.707 109.780,155.420 109.562 C 153.951 109.314,153.908 109.339,153.952 110.415 C 153.976 111.025,154.073 111.236,154.167 110.885 C 154.291 110.418,154.932 110.200,156.563 110.072 C 158.149 109.948,159.383 109.542,160.857 108.660 C 161.994 107.979,163.234 107.422,163.611 107.422 C 163.988 107.422,164.464 107.264,164.668 107.071 C 164.872 106.878,165.742 106.625,166.602 106.508 C 176.605 105.144,182.672 103.947,184.568 102.964 C 185.160 102.657,185.864 102.490,186.133 102.593 C 186.417 102.702,186.728 102.360,186.873 101.781 C 187.011 101.231,187.368 100.781,187.666 100.781 C 188.019 100.781,188.136 100.504,188.000 99.987 C 187.884 99.540,188.071 98.886,188.428 98.491 C 188.778 98.104,188.983 97.707,188.884 97.608 C 188.785 97.509,189.224 96.821,189.859 96.078 C 190.494 95.335,191.014 94.507,191.015 94.238 C 191.015 93.970,191.210 93.750,191.448 93.750 C 191.686 93.750,191.784 93.499,191.667 93.193 C 191.364 92.405,192.309 91.684,192.887 92.262 C 193.222 92.597,193.399 92.540,193.594 92.031 C 193.737 91.659,193.661 91.161,193.426 90.926 C 192.903 90.403,193.886 88.469,195.239 87.363 C 195.735 86.957,196.057 86.404,195.953 86.135 C 195.850 85.866,196.235 85.404,196.809 85.109 C 197.382 84.813,197.962 84.420,198.097 84.234 C 198.458 83.738,201.177 83.346,202.612 83.583 C 203.941 83.803,205.181 84.757,206.445 86.532 C 206.875 87.135,207.446 87.851,207.715 88.123 C 207.983 88.394,208.203 88.788,208.203 88.997 C 208.203 89.207,208.804 90.440,209.537 91.739 C 211.033 94.385,211.530 95.649,211.379 96.426 C 211.322 96.716,211.463 96.837,211.693 96.696 C 212.284 96.330,212.187 96.935,211.511 97.829 C 210.539 99.113,210.787 101.109,212.067 102.304 C 213.215 103.376,218.015 104.405,228.872 105.904 C 231.282 106.237,232.960 106.760,235.171 107.867 C 238.371 109.469,239.054 109.616,240.266 108.967 C 240.897 108.630,241.090 108.714,241.388 109.456 C 241.741 110.336,241.748 110.333,241.772 109.300 C 241.804 107.939,241.234 107.615,240.148 108.376 C 238.916 109.239,238.158 109.141,236.041 107.846 C 233.798 106.474,231.006 105.655,226.563 105.065 C 213.179 103.288,209.944 101.770,212.879 98.645 L 213.649 97.826 210.136 90.649 C 205.801 81.790,205.843 81.823,199.962 82.818 M200.391 87.109 C 200.391 87.324,200.742 87.500,201.172 87.500 C 201.602 87.500,201.953 87.324,201.953 87.109 C 201.953 86.895,201.602 86.719,201.172 86.719 C 200.742 86.719,200.391 86.895,200.391 87.109 M198.438 87.891 C 198.438 88.105,198.701 88.281,199.023 88.281 C 199.346 88.281,199.609 88.105,199.609 87.891 C 199.609 87.676,199.346 87.500,199.023 87.500 C 198.701 87.500,198.438 87.676,198.438 87.891 M204.165 113.669 C 201.868 115.685,201.966 118.445,204.385 119.920 C 206.649 121.300,208.883 120.834,209.957 118.758 C 212.174 114.471,207.714 110.553,204.165 113.669 M186.626 113.502 C 182.959 115.492,184.239 120.703,188.395 120.703 C 189.614 120.703,190.428 120.456,191.070 119.891 L 191.992 119.078 191.026 119.695 C 186.898 122.334,182.673 117.393,186.387 114.268 C 188.720 112.305,191.382 113.549,192.215 116.992 L 192.498 118.164 192.538 117.108 C 192.659 113.930,189.447 111.971,186.626 113.502 M208.486 113.661 C 210.538 114.913,210.533 118.285,208.477 119.725 C 206.480 121.124,203.125 119.472,203.125 117.090 C 203.125 113.691,205.765 112.002,208.486 113.661 M158.203 118.105 C 158.203 118.209,158.950 118.876,159.863 119.589 C 160.776 120.301,161.275 120.571,160.972 120.189 C 160.370 119.431,158.203 117.800,158.203 118.105 M170.618 131.690 C 170.492 132.018,170.291 133.503,170.170 134.991 L 169.950 137.695 170.517 134.766 C 171.057 131.974,171.108 130.413,170.618 131.690 M130.092 179.546 C 129.638 180.757,129.334 181.944,129.414 182.183 C 129.559 182.611,131.250 179.158,131.250 178.433 C 131.250 177.569,132.289 178.481,133.088 180.048 C 134.233 182.291,134.420 182.422,133.927 180.638 C 132.850 176.738,131.307 176.298,130.092 179.546 M164.063 177.917 C 164.063 178.234,164.295 178.402,164.582 178.292 C 164.907 178.167,165.368 178.684,165.815 179.675 C 166.207 180.546,166.591 181.195,166.667 181.119 C 166.744 181.043,166.444 180.162,166.002 179.162 C 165.239 177.437,164.063 176.682,164.063 177.917 M229.688 177.846 C 229.688 178.122,230.029 178.348,230.447 178.348 C 231.022 178.348,231.105 178.226,230.790 177.846 C 230.561 177.570,230.219 177.344,230.030 177.344 C 229.842 177.344,229.688 177.570,229.688 177.846 M196.589 178.223 C 196.176 178.752,195.270 182.119,195.483 182.332 C 195.676 182.525,197.266 179.865,197.266 179.348 C 197.266 178.365,198.008 179.008,198.787 180.664 C 199.807 182.834,200.152 182.951,199.421 180.879 C 198.334 177.799,197.518 177.033,196.589 178.223 M262.319 178.634 C 261.995 179.128,261.631 180.139,261.510 180.880 C 261.330 181.985,261.419 181.883,262.007 180.308 C 262.412 179.221,263.055 178.259,263.490 178.089 C 264.138 177.836,264.152 177.785,263.583 177.762 C 263.212 177.747,262.643 178.139,262.319 178.634 M122.423 183.655 C 122.258 183.921,122.880 184.801,123.940 185.803 C 125.884 187.640,126.885 188.051,126.172 186.719 C 125.942 186.289,125.612 185.938,125.438 185.938 C 124.781 185.938,122.959 184.051,123.216 183.636 C 123.363 183.398,123.308 183.203,123.093 183.203 C 122.878 183.203,122.577 183.406,122.423 183.655 M188.478 183.591 C 188.140 184.138,188.654 184.888,190.234 186.157 L 191.602 187.254 190.135 185.699 C 188.992 184.486,188.773 184.040,189.139 183.673 C 189.477 183.335,189.484 183.203,189.164 183.203 C 188.919 183.203,188.610 183.378,188.478 183.591 M221.745 183.464 C 221.602 183.607,221.484 183.917,221.484 184.152 C 221.484 184.646,225.737 188.065,226.010 187.792 C 226.110 187.692,225.218 186.859,224.028 185.941 C 222.309 184.615,221.956 184.162,222.308 183.738 C 222.748 183.208,222.245 182.963,221.745 183.464 M254.076 183.635 C 253.929 183.873,254.397 184.620,255.115 185.295 C 256.096 186.217,256.193 186.260,255.505 185.469 C 254.982 184.867,254.688 184.155,254.821 183.809 C 255.086 183.119,254.482 182.978,254.076 183.635 M158.323 186.878 C 158.925 187.435,159.614 187.891,159.853 187.891 C 160.358 187.891,160.374 187.905,158.594 186.752 L 157.227 185.866 158.323 186.878 M325.657 210.609 C 325.282 210.819,323.267 211.154,321.179 211.354 C 319.091 211.554,316.255 211.919,314.877 212.165 C 312.285 212.628,311.345 212.756,309.892 212.841 C 307.589 212.976,309.378 215.399,315.822 220.878 C 317.325 222.156,319.258 223.826,320.117 224.590 C 320.977 225.354,319.174 223.517,316.112 220.509 C 309.926 214.432,309.862 214.334,312.207 214.544 C 313.477 214.657,313.854 214.847,313.813 215.354 C 313.783 215.718,313.917 216.016,314.111 216.016 C 314.305 216.016,314.945 216.528,315.533 217.154 C 316.648 218.343,320.313 219.285,320.313 218.383 C 320.313 217.625,321.293 217.956,321.688 218.848 C 322.366 220.383,326.563 219.377,326.563 217.678 C 326.563 216.730,326.944 216.553,327.593 217.202 C 328.057 217.666,330.078 217.057,330.078 216.452 C 330.078 215.885,331.733 216.426,332.793 217.339 L 333.749 218.164 333.031 216.992 C 330.741 213.256,326.887 209.920,325.657 210.609 M329.645 215.003 C 329.207 215.495,328.121 214.527,328.374 213.869 C 328.535 213.448,328.715 213.473,329.268 213.995 C 329.649 214.354,329.819 214.808,329.645 215.003 M295.286 236.201 C 294.374 237.023,291.590 239.978,289.099 242.767 C 280.773 252.091,260.398 272.640,258.008 274.124 C 255.687 275.565,254.363 276.930,253.401 278.872 C 252.927 279.828,250.893 282.293,248.882 284.348 C 246.870 286.404,243.476 290.063,241.340 292.480 C 239.203 294.897,236.762 297.432,235.915 298.112 C 234.431 299.305,234.375 299.434,234.375 301.693 C 234.375 302.982,234.495 303.917,234.641 303.770 C 234.788 303.624,234.865 302.584,234.813 301.459 C 234.725 299.564,234.803 299.364,235.873 298.733 C 236.508 298.358,238.752 296.161,240.861 293.850 C 242.969 291.539,246.559 287.715,248.840 285.352 C 251.120 282.988,253.396 280.352,253.898 279.492 C 255.155 277.339,256.872 275.558,259.180 274.015 C 260.254 273.296,262.614 271.158,264.424 269.264 C 266.234 267.370,270.725 262.744,274.404 258.984 C 281.437 251.797,285.841 247.161,292.509 239.923 C 297.288 234.736,296.637 234.866,300.241 238.379 C 301.839 239.937,303.312 241.268,303.514 241.337 C 303.856 241.454,299.539 237.031,297.740 235.419 C 296.960 234.722,296.907 234.739,295.286 236.201 M227.859 307.977 C 227.606 308.266,227.198 309.247,226.953 310.158 C 226.708 311.068,225.976 313.154,225.326 314.793 C 222.255 322.544,222.120 323.114,223.425 322.773 C 223.929 322.641,224.165 322.283,224.109 321.735 C 224.011 320.780,227.218 320.662,227.813 321.599 C 228.270 322.317,228.182 323.045,227.637 323.063 C 226.026 323.115,224.469 325.336,224.941 326.910 C 225.472 328.683,225.708 328.679,229.688 326.838 C 233.399 325.121,235.425 324.308,236.674 324.033 C 237.338 323.887,237.982 323.606,238.105 323.407 C 238.426 322.887,237.830 322.961,235.889 323.681 C 234.949 324.030,233.676 324.289,233.060 324.257 C 232.443 324.225,231.679 324.416,231.360 324.680 C 230.529 325.370,229.673 325.416,229.430 324.783 C 229.185 324.146,227.125 325.030,226.282 326.134 C 225.847 326.705,225.805 326.705,225.794 326.135 C 225.776 325.238,226.672 324.542,231.010 322.086 C 234.519 320.098,236.328 319.610,236.328 320.651 C 236.328 320.808,236.928 320.867,237.661 320.781 C 239.197 320.602,240.526 322.028,239.159 322.389 C 238.784 322.488,238.970 322.549,239.574 322.526 C 240.372 322.494,240.617 322.320,240.474 321.886 C 240.366 321.557,239.916 320.251,239.475 318.982 C 239.033 317.714,238.672 316.347,238.672 315.945 C 238.672 315.123,237.267 314.453,235.544 314.453 C 234.927 314.453,234.311 314.275,234.177 314.058 C 234.043 313.841,233.437 313.701,232.830 313.747 C 231.441 313.853,228.899 312.193,229.210 311.383 C 229.345 311.030,229.265 310.911,229.001 311.074 C 228.407 311.441,228.013 309.994,228.322 308.585 C 228.605 307.296,228.536 307.205,227.859 307.977 M237.793 308.882 C 238.921 308.961,240.767 308.961,241.895 308.882 C 243.022 308.803,242.100 308.738,239.844 308.738 C 237.588 308.738,236.665 308.803,237.793 308.882 " stroke="none" fill="#eeca97" fill-rule="evenodd"></path></g></svg>