<svg id="svg" version="1.1" xmlns="http://www.w3.org/2000/svg" xmlns:xlink="http://www.w3.org/1999/xlink" width="400" height="400" viewBox="0, 0, 400,400"><g id="svgg"><path id="path0" d="M186.133 26.402 C 177.971 27.185,175.098 27.592,169.394 28.773 C 109.605 41.150,69.177 88.418,66.544 149.023 C 64.523 195.553,96.624 243.883,142.385 263.205 C 165.631 273.021,193.646 276.713,213.780 272.615 L 217.991 271.758 221.218 274.844 C 222.994 276.541,226.814 279.977,229.708 282.478 C 232.601 284.980,236.819 288.759,239.079 290.877 C 262.352 312.675,277.354 324.365,279.412 322.307 C 279.730 321.989,279.459 319.553,278.395 313.183 C 276.802 303.643,274.713 289.321,273.452 279.297 C 272.586 272.411,270.799 262.085,269.527 256.622 C 269.100 254.785,268.750 253.162,268.750 253.014 C 268.750 252.867,270.738 251.275,273.168 249.477 C 313.539 219.605,330.777 174.748,320.878 125.324 C 319.130 116.593,312.588 98.838,309.786 95.217 C 309.411 94.733,308.988 93.863,308.847 93.285 C 308.600 92.271,305.316 87.225,302.540 83.594 C 301.801 82.627,300.942 81.102,300.631 80.204 C 298.365 73.654,280.050 55.836,266.397 46.897 C 244.360 32.471,211.184 23.999,186.133 26.402 M210.503 38.310 C 281.368 47.480,327.192 115.628,307.773 182.970 C 303.205 198.811,297.551 208.867,285.119 223.261 C 278.513 230.908,265.289 242.083,258.105 246.088 C 256.870 246.777,255.859 247.479,255.859 247.649 C 255.859 247.819,256.465 250.321,257.205 253.208 C 257.945 256.095,258.830 260.641,259.173 263.311 C 259.515 265.980,260.053 269.658,260.369 271.484 C 260.685 273.311,261.212 277.090,261.540 279.883 C 261.869 282.676,262.753 288.280,263.505 292.336 C 265.104 300.959,265.138 300.836,262.001 297.798 C 260.664 296.504,258.669 294.668,257.567 293.718 C 255.158 291.642,247.897 284.936,240.430 277.893 C 234.892 272.669,230.897 269.259,224.282 264.107 L 220.635 261.266 218.814 261.679 C 209.328 263.827,192.029 264.077,176.684 262.287 C 136.089 257.552,95.029 223.745,83.244 185.352 C 70.994 145.445,81.211 102.496,109.946 73.102 C 130.574 52.000,154.256 40.772,184.180 37.905 C 186.543 37.678,189.180 37.423,190.039 37.339 C 193.314 37.015,204.654 37.553,210.503 38.310 M188.672 50.241 C 157.258 53.028,131.196 66.413,113.414 88.891 C 95.372 111.700,87.512 141.245,92.170 168.750 C 95.976 191.223,107.288 210.335,126.348 226.494 C 127.627 227.577,128.818 228.375,128.995 228.266 C 129.172 228.156,129.268 228.277,129.209 228.535 C 128.994 229.470,139.143 235.918,146.680 239.635 C 154.792 243.636,165.053 247.294,170.313 248.058 C 171.924 248.293,173.857 248.642,174.609 248.835 C 183.601 251.139,202.033 251.861,211.116 250.265 C 247.603 243.856,274.802 224.055,290.498 192.477 C 298.346 176.686,301.540 147.779,297.263 131.250 C 297.068 130.498,296.525 128.301,296.055 126.367 C 295.586 124.434,294.906 122.148,294.545 121.289 C 294.184 120.430,293.492 118.496,293.008 116.992 C 291.852 113.405,286.451 102.474,285.508 101.813 C 285.102 101.529,284.882 101.186,285.018 101.050 C 285.154 100.914,284.839 100.226,284.319 99.522 C 283.798 98.818,283.162 97.759,282.905 97.168 C 282.649 96.577,282.249 96.094,282.017 96.094 C 281.784 96.094,281.703 95.918,281.836 95.703 C 281.969 95.488,281.891 95.313,281.664 95.313 C 281.436 95.313,281.250 95.127,281.250 94.900 C 281.250 94.281,278.153 89.844,277.720 89.844 C 277.513 89.844,277.344 89.610,277.344 89.323 C 277.344 89.037,275.938 87.348,274.219 85.571 C 272.500 83.793,271.094 82.216,271.094 82.067 C 271.094 81.508,268.491 79.295,268.173 79.583 C 267.992 79.748,267.965 79.671,268.113 79.413 C 268.586 78.589,259.573 71.161,252.734 66.740 C 234.410 54.894,209.255 48.415,188.672 50.241 M203.684 72.705 C 214.120 74.855,223.198 81.213,230.639 91.584 C 243.540 109.565,239.861 136.808,222.623 150.955 C 204.605 165.742,183.205 164.717,165.975 148.242 C 148.644 131.672,148.828 100.532,166.352 84.242 C 167.545 83.133,168.953 81.810,169.481 81.301 C 177.488 73.586,191.215 70.136,203.684 72.705 M189.063 85.393 C 180.863 87.591,174.079 95.030,173.515 102.442 C 173.187 106.737,174.134 107.563,180.857 108.852 C 185.193 109.683,185.202 109.677,185.907 105.304 C 187.448 95.757,199.631 93.285,203.940 101.645 C 205.904 105.453,204.619 108.088,199.132 111.506 C 191.876 116.026,189.846 118.970,189.535 125.421 L 189.349 129.297 195.846 129.297 L 202.344 129.297 202.344 126.740 C 202.344 123.647,202.703 123.202,207.196 120.742 C 229.294 108.639,213.947 78.721,189.063 85.393 M241.016 100.000 C 241.338 100.208,241.435 100.381,241.232 100.385 C 241.029 100.388,241.459 101.006,242.188 101.758 C 242.916 102.510,243.771 103.125,244.087 103.125 C 244.403 103.125,244.568 103.219,244.453 103.333 C 244.122 103.664,248.981 108.514,249.414 108.285 C 249.629 108.171,249.690 108.206,249.550 108.363 C 249.208 108.745,251.661 111.296,252.111 111.027 C 252.305 110.912,252.354 110.996,252.218 111.216 C 252.082 111.435,252.338 111.945,252.786 112.350 C 253.234 112.755,253.949 113.613,254.376 114.258 C 255.067 115.303,246.560 106.838,241.673 101.619 C 239.909 99.736,239.661 99.125,241.016 100.000 M266.248 126.232 C 266.421 126.512,266.355 126.577,266.076 126.404 C 265.285 125.916,265.592 126.605,266.504 127.366 C 266.987 127.769,267.613 128.105,267.894 128.112 C 268.175 128.119,268.313 128.275,268.199 128.459 C 267.934 128.889,269.699 130.562,270.049 130.212 C 270.194 130.067,270.313 130.166,270.313 130.432 C 270.313 131.059,271.319 132.066,271.633 131.752 C 271.766 131.619,271.875 131.712,271.875 131.959 C 271.875 132.555,274.218 134.932,275.154 135.286 C 275.560 135.440,275.782 135.677,275.645 135.813 C 275.509 135.949,275.597 136.301,275.840 136.595 C 277.385 138.456,275.408 136.975,272.822 134.333 C 271.119 132.594,268.697 130.148,267.439 128.898 C 266.180 127.647,265.268 126.434,265.411 126.202 C 265.742 125.667,265.902 125.672,266.248 126.232 M103.991 135.663 C 102.387 139.181,102.336 139.277,102.504 138.477 C 103.249 134.939,104.501 131.536,104.616 132.733 C 104.684 133.441,104.403 134.759,103.991 135.663 M192.969 134.217 C 188.166 136.297,186.551 141.939,189.538 146.197 C 192.138 149.902,200.429 149.332,202.441 145.310 C 205.502 139.193,199.016 131.597,192.969 134.217 M228.316 159.758 C 228.446 159.968,230.258 161.017,232.344 162.088 C 246.344 169.280,254.518 183.610,255.319 202.364 L 255.577 208.398 251.519 209.921 C 242.154 213.434,237.801 214.625,224.219 217.392 C 196.985 222.939,168.012 220.743,142.587 211.204 L 136.150 208.789 135.823 207.031 C 135.037 202.804,136.151 190.372,137.738 185.660 C 141.003 175.971,149.669 166.252,159.464 161.294 C 163.268 159.368,163.067 159.345,165.643 162.014 C 179.739 176.617,212.116 176.297,225.391 161.424 C 227.150 159.452,227.872 159.041,228.316 159.758 M193.156 181.214 C 188.101 182.462,185.826 189.028,189.140 192.802 C 193.779 198.086,202.383 194.998,202.484 188.014 C 202.548 183.570,197.758 180.078,193.156 181.214 M149.230 225.237 C 151.421 227.474,151.581 227.729,150.431 227.150 C 148.752 226.306,147.150 224.722,147.463 224.215 C 147.595 224.002,147.535 223.828,147.330 223.828 C 147.126 223.828,146.857 223.564,146.734 223.242 C 146.398 222.367,146.494 222.443,149.230 225.237 " stroke="none" fill="#266f4a" fill-rule="evenodd"></path><path id="path1" d="M0.000 200.000 L 0.000 400.000 200.000 400.000 L 400.000 400.000 400.000 200.000 L 400.000 0.000 200.000 0.000 L 0.000 0.000 0.000 200.000 M210.938 26.973 C 230.226 28.953,250.788 36.281,267.080 46.982 C 279.958 55.441,298.657 73.569,300.962 79.830 C 301.346 80.874,302.477 82.808,303.474 84.126 C 304.471 85.445,305.677 87.155,306.153 87.927 C 306.629 88.699,307.549 89.998,308.197 90.813 C 308.845 91.628,309.375 92.597,309.375 92.966 C 309.375 93.336,310.241 95.289,311.300 97.307 C 312.358 99.325,313.769 102.354,314.434 104.038 C 315.100 105.722,316.001 107.799,316.437 108.653 C 323.191 121.893,325.608 152.617,321.687 175.391 C 316.772 203.936,298.322 232.133,272.583 250.435 L 268.798 253.126 269.351 254.786 C 270.441 258.060,272.622 270.399,273.648 279.102 C 274.542 286.682,276.811 302.269,278.338 311.315 C 280.048 321.447,280.077 322.659,278.613 322.648 C 276.704 322.632,271.544 319.787,268.415 317.026 C 267.633 316.335,265.850 314.907,264.453 313.853 C 260.549 310.906,254.835 305.890,241.613 293.799 C 234.947 287.703,227.619 281.150,225.330 279.237 C 223.041 277.323,220.509 274.952,219.702 273.968 C 218.037 271.936,218.242 271.953,211.719 273.293 C 203.110 275.062,180.271 274.117,167.071 271.446 C 156.001 269.206,136.262 261.850,128.906 257.224 C 128.154 256.751,126.045 255.426,124.219 254.280 C 114.664 248.282,100.154 235.083,93.104 225.977 C 68.868 194.670,61.515 162.897,69.509 124.023 C 77.556 84.892,108.367 49.608,147.461 34.755 C 168.060 26.929,187.402 24.557,210.938 26.973 M187.695 37.763 C 149.773 40.969,118.881 58.081,98.611 87.109 C 93.815 93.977,88.690 103.215,87.275 107.542 C 86.910 108.658,86.308 110.186,85.936 110.938 C 85.565 111.689,84.538 114.766,83.654 117.773 C 70.481 162.583,83.266 206.516,117.773 235.013 C 133.140 247.704,146.487 254.708,164.844 259.717 C 177.660 263.213,199.180 264.244,214.540 262.097 L 221.072 261.184 223.134 262.607 C 226.839 265.165,236.023 273.046,241.406 278.288 C 244.307 281.112,249.229 285.731,252.344 288.552 C 255.459 291.374,259.458 295.030,261.230 296.677 C 263.003 298.325,264.453 299.579,264.453 299.464 C 264.453 299.349,263.847 295.951,263.107 291.913 C 262.367 287.874,261.487 282.373,261.152 279.687 C 260.817 277.002,260.365 273.838,260.148 272.656 C 259.930 271.475,259.394 267.871,258.955 264.648 C 258.297 259.808,256.712 251.939,255.642 248.200 C 255.441 247.497,255.871 247.104,258.581 245.515 C 267.138 240.498,278.858 230.216,287.018 220.566 C 296.851 208.938,301.638 200.648,305.877 187.909 C 326.084 127.181,293.159 62.987,231.641 43.167 C 218.776 39.022,200.047 36.719,187.695 37.763 M211.133 50.970 C 223.812 52.897,231.221 55.198,244.010 61.180 C 256.641 67.088,273.802 82.305,281.843 94.727 C 297.547 118.988,302.224 139.929,298.201 167.969 C 296.290 181.287,289.775 197.444,282.494 206.925 C 281.487 208.235,279.614 210.685,278.330 212.369 C 265.306 229.448,244.416 242.696,221.680 248.293 C 212.103 250.651,211.776 250.713,206.445 251.161 C 182.251 253.193,159.781 248.178,138.576 236.011 C 131.036 231.685,118.096 220.279,111.903 212.500 C 110.620 210.889,109.350 209.337,109.081 209.053 C 107.559 207.445,102.477 199.090,99.890 193.944 C 95.145 184.506,92.180 174.102,91.016 162.808 C 85.450 108.807,124.811 58.700,178.711 51.174 C 180.430 50.934,182.803 50.592,183.984 50.415 C 189.061 49.651,204.536 49.967,211.133 50.970 M189.829 72.422 C 165.203 76.187,148.394 102.562,154.825 127.344 C 157.907 139.220,162.030 145.445,171.680 152.794 C 194.926 170.496,228.544 157.825,236.611 128.320 C 238.068 122.990,238.188 110.781,236.834 105.664 C 231.203 84.393,209.930 69.349,189.829 72.422 M202.307 84.976 C 214.302 87.804,221.625 101.553,216.709 112.014 C 215.549 114.483,210.946 119.020,207.888 120.709 C 202.714 123.568,202.944 123.306,202.815 126.479 L 202.700 129.297 195.867 129.297 L 189.034 129.297 189.278 125.684 C 189.742 118.801,192.080 115.205,198.375 111.692 C 205.300 107.827,206.411 103.672,201.736 99.131 C 197.277 94.799,187.722 97.314,186.562 103.125 C 186.454 103.662,186.175 105.089,185.940 106.296 C 185.235 109.918,185.221 109.925,180.658 109.034 C 172.312 107.403,171.154 104.865,175.085 96.824 C 179.991 86.791,190.537 82.202,202.307 84.976 M198.783 134.352 C 204.316 137.175,205.164 145.272,200.195 147.829 C 197.926 148.997,192.333 148.988,190.751 147.815 C 183.532 142.460,190.799 130.279,198.783 134.352 M225.524 161.830 C 211.131 176.729,180.093 177.035,165.515 162.420 C 162.824 159.722,163.170 159.759,159.440 161.773 C 143.565 170.346,135.938 183.458,135.938 202.172 C 135.938 208.147,136.024 208.388,138.520 209.347 C 147.044 212.623,150.110 213.594,157.745 215.439 C 168.927 218.139,170.694 218.470,177.539 219.146 C 179.902 219.380,183.226 219.738,184.925 219.942 C 189.476 220.488,198.625 220.392,205.078 219.730 C 215.535 218.658,217.741 218.336,225.195 216.796 C 239.698 213.800,240.384 213.611,251.172 209.642 L 254.883 208.276 254.807 201.963 C 254.593 184.035,246.050 169.516,231.189 161.824 L 227.416 159.872 225.524 161.830 M198.715 181.681 C 206.477 185.438,202.748 196.352,193.952 195.622 C 186.497 195.004,184.836 185.003,191.602 181.475 C 193.295 180.592,196.669 180.690,198.715 181.681 " stroke="none" fill="#fbfbfa" fill-rule="evenodd"></path><path id="path2" d="M278.516 71.607 C 278.516 71.674,279.087 72.245,279.785 72.876 L 281.055 74.023 279.907 72.754 C 278.838 71.571,278.516 71.305,278.516 71.607 M218.059 104.297 C 218.059 105.049,218.140 105.356,218.238 104.980 C 218.336 104.604,218.336 103.989,218.238 103.613 C 218.140 103.237,218.059 103.545,218.059 104.297 M78.224 149.023 C 78.228 149.883,78.308 150.188,78.401 149.702 C 78.495 149.217,78.491 148.513,78.393 148.140 C 78.296 147.767,78.219 148.164,78.224 149.023 M78.231 153.516 C 78.231 154.482,78.308 154.878,78.401 154.395 C 78.494 153.911,78.494 153.120,78.401 152.637 C 78.308 152.153,78.231 152.549,78.231 153.516 M192.480 251.460 C 193.608 251.539,195.454 251.539,196.582 251.460 C 197.710 251.381,196.787 251.316,194.531 251.316 C 192.275 251.316,191.353 251.381,192.480 251.460 " stroke="none" fill="#99baa8" fill-rule="evenodd"></path><path id="path3" d="M193.262 26.067 C 194.175 26.150,195.669 26.150,196.582 26.067 C 197.495 25.985,196.748 25.918,194.922 25.918 C 193.096 25.918,192.349 25.985,193.262 26.067 M111.122 71.973 L 108.398 74.805 111.230 72.081 C 113.861 69.551,114.241 69.141,113.954 69.141 C 113.895 69.141,112.620 70.415,111.122 71.973 M153.250 116.406 C 153.250 117.803,153.321 118.374,153.408 117.676 C 153.494 116.978,153.494 115.835,153.408 115.137 C 153.321 114.438,153.250 115.010,153.250 116.406 M238.016 117.188 C 238.016 118.584,238.087 119.155,238.173 118.457 C 238.260 117.759,238.260 116.616,238.173 115.918 C 238.087 115.220,238.016 115.791,238.016 117.188 M90.716 145.703 C 90.716 146.455,90.796 146.763,90.894 146.387 C 90.993 146.011,90.993 145.396,90.894 145.020 C 90.796 144.644,90.716 144.951,90.716 145.703 M299.371 150.977 C 299.371 153.770,299.433 154.861,299.509 153.402 C 299.584 151.943,299.584 149.657,299.508 148.324 C 299.432 146.990,299.370 148.184,299.371 150.977 M311.860 150.000 C 311.860 152.041,311.925 152.876,312.006 151.855 C 312.086 150.835,312.086 149.165,312.006 148.145 C 311.925 147.124,311.860 147.959,311.860 150.000 M166.211 148.438 C 167.050 149.297,167.825 150.000,167.932 150.000 C 168.039 150.000,167.441 149.297,166.602 148.438 C 165.762 147.578,164.988 146.875,164.881 146.875 C 164.773 146.875,165.372 147.578,166.211 148.438 M192.876 161.214 C 193.362 161.307,194.065 161.304,194.438 161.206 C 194.812 161.108,194.414 161.032,193.555 161.036 C 192.695 161.040,192.390 161.120,192.876 161.214 M164.844 161.841 C 164.844 161.908,165.415 162.479,166.113 163.111 L 167.383 164.258 166.236 162.988 C 165.166 161.805,164.844 161.539,164.844 161.841 M240.234 168.164 C 240.963 168.916,241.647 169.531,241.755 169.531 C 241.862 169.531,241.354 168.916,240.625 168.164 C 239.896 167.412,239.212 166.797,239.105 166.797 C 238.997 166.797,239.506 167.412,240.234 168.164 M147.833 170.020 L 146.289 171.680 147.949 170.136 C 149.493 168.700,149.789 168.359,149.493 168.359 C 149.430 168.359,148.682 169.106,147.833 170.020 M255.068 206.720 C 254.965 207.731,255.025 208.413,255.201 208.236 C 255.378 208.060,255.462 207.233,255.389 206.399 L 255.257 204.883 255.068 206.720 M118.164 219.531 C 119.656 221.035,120.965 222.266,121.073 222.266 C 121.180 222.266,120.047 221.035,118.555 219.531 C 117.062 218.027,115.753 216.797,115.646 216.797 C 115.539 216.797,116.672 218.027,118.164 219.531 M269.510 221.777 L 268.164 223.242 269.629 221.896 C 270.992 220.643,271.273 220.313,270.975 220.313 C 270.910 220.313,270.251 220.972,269.510 221.777 M134.766 233.377 C 134.766 233.643,138.313 236.036,138.472 235.877 C 138.547 235.802,137.744 235.168,136.687 234.469 C 135.630 233.769,134.766 233.278,134.766 233.377 M287.883 237.402 L 284.180 241.211 287.988 237.508 C 291.526 234.068,291.975 233.594,291.692 233.594 C 291.634 233.594,289.920 235.308,287.883 237.402 M101.758 235.938 C 102.816 237.012,103.769 237.891,103.877 237.891 C 103.984 237.891,103.207 237.012,102.148 235.938 C 101.090 234.863,100.137 233.984,100.029 233.984 C 99.922 233.984,100.700 234.863,101.758 235.938 M140.234 236.894 C 140.234 237.001,140.762 237.362,141.406 237.695 C 142.051 238.029,142.578 238.213,142.578 238.106 C 142.578 237.999,142.051 237.638,141.406 237.305 C 140.762 236.971,140.234 236.787,140.234 236.894 M240.625 241.602 C 240.088 241.909,239.824 242.160,240.039 242.160 C 240.254 242.160,240.869 241.909,241.406 241.602 C 241.943 241.295,242.207 241.043,241.992 241.043 C 241.777 241.043,241.162 241.295,240.625 241.602 M187.988 251.441 C 188.364 251.539,188.979 251.539,189.355 251.441 C 189.731 251.343,189.424 251.263,188.672 251.263 C 187.920 251.263,187.612 251.343,187.988 251.441 M200.488 251.452 C 201.079 251.541,202.046 251.541,202.637 251.452 C 203.228 251.362,202.744 251.289,201.563 251.289 C 200.381 251.289,199.897 251.362,200.488 251.452 M237.891 275.195 C 239.058 276.377,240.100 277.344,240.208 277.344 C 240.315 277.344,239.448 276.377,238.281 275.195 C 237.114 274.014,236.072 273.047,235.964 273.047 C 235.857 273.047,236.724 274.014,237.891 275.195 M221.289 275.781 C 222.128 276.641,222.903 277.344,223.010 277.344 C 223.118 277.344,222.519 276.641,221.680 275.781 C 220.841 274.922,220.066 274.219,219.959 274.219 C 219.851 274.219,220.450 274.922,221.289 275.781 M238.477 291.016 C 239.316 291.875,240.090 292.578,240.198 292.578 C 240.305 292.578,239.706 291.875,238.867 291.016 C 238.028 290.156,237.254 289.453,237.146 289.453 C 237.039 289.453,237.637 290.156,238.477 291.016 M255.664 291.797 C 256.503 292.656,257.278 293.359,257.385 293.359 C 257.493 293.359,256.894 292.656,256.055 291.797 C 255.216 290.938,254.441 290.234,254.334 290.234 C 254.226 290.234,254.825 290.938,255.664 291.797 M247.461 299.219 C 248.300 300.078,249.075 300.781,249.182 300.781 C 249.289 300.781,248.691 300.078,247.852 299.219 C 247.012 298.359,246.238 297.656,246.131 297.656 C 246.023 297.656,246.622 298.359,247.461 299.219 " stroke="none" fill="#cae2d5" fill-rule="evenodd"></path><path id="path4" d="M193.652 37.385 C 194.136 37.478,194.927 37.478,195.410 37.385 C 195.894 37.292,195.498 37.216,194.531 37.216 C 193.564 37.216,193.169 37.292,193.652 37.385 M102.917 63.770 L 100.586 66.211 103.027 63.879 C 105.295 61.714,105.647 61.328,105.359 61.328 C 105.298 61.328,104.200 62.427,102.917 63.770 M271.094 82.220 C 271.094 82.349,271.467 82.843,271.923 83.317 L 272.753 84.180 272.312 83.323 C 271.875 82.474,271.094 81.767,271.094 82.220 M298.927 146.289 C 298.931 147.148,299.011 147.454,299.104 146.968 C 299.198 146.482,299.194 145.779,299.097 145.406 C 298.999 145.032,298.922 145.430,298.927 146.289 M116.016 216.919 C 116.016 216.986,116.587 217.558,117.285 218.189 L 118.555 219.336 117.407 218.066 C 116.338 216.883,116.016 216.617,116.016 216.919 M288.853 236.035 L 286.914 238.086 288.965 236.147 C 290.870 234.346,291.195 233.984,290.903 233.984 C 290.841 233.984,289.919 234.907,288.853 236.035 M285.327 239.551 L 284.180 240.820 285.449 239.673 C 286.147 239.042,286.719 238.471,286.719 238.403 C 286.719 238.102,286.396 238.367,285.327 239.551 M197.363 263.566 C 198.169 263.650,199.487 263.650,200.293 263.566 C 201.099 263.482,200.439 263.413,198.828 263.413 C 197.217 263.413,196.558 263.482,197.363 263.566 " stroke="none" fill="#7e847c" fill-rule="evenodd"></path><path id="path5" d="M286.914 63.672 C 289.054 65.820,290.894 67.578,291.001 67.578 C 291.108 67.578,289.445 65.820,287.305 63.672 C 285.164 61.523,283.325 59.766,283.218 59.766 C 283.110 59.766,284.774 61.523,286.914 63.672 M90.746 152.930 C 90.748 154.219,90.821 154.699,90.908 153.997 C 90.995 153.295,90.993 152.240,90.904 151.653 C 90.815 151.066,90.744 151.641,90.746 152.930 M109.570 228.125 C 110.409 228.984,111.184 229.688,111.291 229.688 C 111.399 229.688,110.800 228.984,109.961 228.125 C 109.122 227.266,108.347 226.563,108.240 226.563 C 108.132 226.563,108.731 227.266,109.570 228.125 M102.930 236.719 C 104.854 238.652,106.517 240.234,106.624 240.234 C 106.732 240.234,105.245 238.652,103.320 236.719 C 101.396 234.785,99.733 233.203,99.626 233.203 C 99.518 233.203,101.005 234.785,102.930 236.719 M194.048 263.558 C 194.533 263.651,195.237 263.647,195.610 263.550 C 195.983 263.452,195.586 263.375,194.727 263.380 C 193.867 263.384,193.562 263.464,194.048 263.558 M237.891 275.586 C 238.619 276.338,239.304 276.953,239.411 276.953 C 239.518 276.953,239.010 276.338,238.281 275.586 C 237.552 274.834,236.868 274.219,236.761 274.219 C 236.653 274.219,237.162 274.834,237.891 275.586 M254.883 291.406 C 255.722 292.266,256.496 292.969,256.604 292.969 C 256.711 292.969,256.113 292.266,255.273 291.406 C 254.434 290.547,253.660 289.844,253.552 289.844 C 253.445 289.844,254.044 290.547,254.883 291.406 " stroke="none" fill="#7c7c7c" fill-rule="evenodd"></path><path id="path6" d="M241.673 101.619 C 246.560 106.838,255.067 115.303,254.376 114.258 C 253.949 113.613,253.234 112.755,252.786 112.350 C 252.338 111.945,252.082 111.435,252.218 111.216 C 252.354 110.996,252.305 110.912,252.111 111.027 C 251.661 111.296,249.208 108.745,249.550 108.363 C 249.690 108.206,249.629 108.171,249.414 108.285 C 248.981 108.514,244.122 103.664,244.453 103.333 C 244.568 103.219,244.403 103.125,244.087 103.125 C 243.771 103.125,242.916 102.510,242.188 101.758 C 241.459 101.006,241.029 100.388,241.232 100.385 C 241.672 100.378,240.573 99.624,240.110 99.615 C 239.934 99.612,240.637 100.514,241.673 101.619 M265.411 126.202 C 265.268 126.434,266.180 127.647,267.439 128.898 C 268.697 130.148,271.119 132.594,272.822 134.333 C 275.408 136.975,277.385 138.456,275.840 136.595 C 275.597 136.301,275.509 135.949,275.645 135.813 C 275.782 135.677,275.560 135.440,275.154 135.286 C 274.218 134.932,271.875 132.555,271.875 131.959 C 271.875 131.712,271.766 131.619,271.633 131.752 C 271.319 132.066,270.313 131.059,270.313 130.432 C 270.313 130.166,270.194 130.067,270.049 130.212 C 269.699 130.562,267.934 128.889,268.199 128.459 C 268.313 128.275,268.175 128.119,267.894 128.112 C 267.613 128.105,266.987 127.769,266.504 127.366 C 265.592 126.605,265.285 125.916,266.076 126.404 C 266.355 126.577,266.421 126.512,266.248 126.232 C 265.902 125.672,265.742 125.667,265.411 126.202 M104.048 133.203 C 103.804 134.170,103.338 135.796,103.012 136.816 C 102.687 137.836,102.579 138.573,102.773 138.453 C 102.967 138.333,103.125 138.037,103.125 137.796 C 103.125 137.554,103.488 136.606,103.932 135.688 C 104.395 134.733,104.687 133.470,104.616 132.733 C 104.493 131.457,104.488 131.461,104.048 133.203 M135.688 201.563 C 135.688 203.604,135.754 204.438,135.834 203.418 C 135.914 202.397,135.914 200.728,135.834 199.707 C 135.754 198.687,135.688 199.521,135.688 201.563 M146.734 223.242 C 146.857 223.564,147.126 223.828,147.330 223.828 C 147.535 223.828,147.595 224.002,147.463 224.215 C 147.150 224.722,148.752 226.306,150.431 227.150 C 151.581 227.729,151.421 227.474,149.230 225.237 C 146.494 222.443,146.398 222.367,146.734 223.242 " stroke="none" fill="#74bc94" fill-rule="evenodd"></path><path id="path7" d="M120.093 80.957 L 118.945 82.227 120.215 81.079 C 121.398 80.010,121.664 79.688,121.362 79.688 C 121.295 79.688,120.724 80.259,120.093 80.957 M272.046 219.238 L 270.898 220.508 272.168 219.361 C 272.866 218.729,273.438 218.158,273.438 218.091 C 273.438 217.789,273.115 218.055,272.046 219.238 M192.285 220.592 C 192.876 220.682,193.843 220.682,194.434 220.592 C 195.024 220.503,194.541 220.430,193.359 220.430 C 192.178 220.430,191.694 220.503,192.285 220.592 " stroke="none" fill="#bdc5bc" fill-rule="evenodd"></path><path id="path8" d="" stroke="none" fill="#bcbcbc" fill-rule="evenodd"></path></g></svg>