<svg id="svg" version="1.1" xmlns="http://www.w3.org/2000/svg" xmlns:xlink="http://www.w3.org/1999/xlink" width="400" height="400" viewBox="0, 0, 400,400"><g id="svgg"><path id="path0" d="M229.048 103.899 C 222.322 105.322,216.956 111.164,216.498 117.564 L 216.301 120.313 213.021 120.313 C 208.418 120.313,204.858 122.064,203.419 125.036 L 202.825 126.262 196.432 126.386 C 183.706 126.634,177.369 131.097,173.911 142.247 C 173.134 144.753,172.662 257.294,173.404 262.931 C 174.617 272.129,181.154 279.321,190.430 281.659 C 193.572 282.451,274.049 282.236,277.155 281.427 C 284.860 279.420,291.441 272.796,292.947 265.532 C 293.246 264.086,293.342 245.508,293.268 202.900 L 293.164 142.324 291.466 138.896 C 286.736 129.352,280.186 125.781,267.408 125.781 L 261.131 125.781 259.763 123.932 C 257.748 121.211,255.652 120.202,251.579 119.992 C 248.157 119.817,247.673 119.581,247.662 118.086 C 247.603 109.508,237.810 102.046,229.048 103.899 M115.820 109.745 C 107.796 110.026,106.262 110.515,102.919 113.857 C 96.073 120.703,97.970 134.765,106.342 139.234 L 108.582 140.430 108.594 196.680 C 108.609 259.632,108.434 255.674,111.471 261.914 C 121.965 283.476,153.789 281.461,163.047 258.649 L 164.258 255.664 164.363 198.021 L 164.468 140.378 165.925 139.714 C 176.952 134.693,176.852 116.340,165.767 110.730 L 163.477 109.570 143.164 109.535 C 131.992 109.515,119.687 109.610,115.820 109.745 M234.588 111.759 C 238.961 113.395,240.694 115.927,241.375 121.680 C 241.967 126.673,243.284 128.046,247.539 128.103 C 253.940 128.189,256.995 132.170,253.587 135.985 L 252.487 137.216 232.157 137.295 C 218.000 137.349,211.659 137.244,211.275 136.948 C 207.852 134.311,208.238 129.132,211.963 127.716 C 212.544 127.495,214.933 127.341,217.273 127.373 C 222.409 127.443,221.928 127.912,222.263 122.507 C 222.805 113.757,227.946 109.274,234.588 111.759 M230.078 117.081 C 225.713 119.292,226.906 129.138,231.565 129.343 C 235.929 129.535,236.882 128.371,236.479 123.341 C 236.034 117.787,233.526 115.334,230.078 117.081 M163.297 118.175 C 167.482 121.075,167.649 129.196,163.583 132.096 L 162.305 133.008 136.914 133.113 L 111.523 133.219 109.767 132.332 C 105.660 130.258,104.762 124.290,107.869 119.711 C 109.797 116.870,108.578 116.980,136.706 117.095 L 161.888 117.198 163.297 118.175 M277.734 134.617 C 280.970 136.125,283.527 138.890,284.809 142.267 L 285.742 144.727 285.742 204.492 L 285.742 264.258 284.703 266.475 C 283.279 269.511,280.841 272.034,277.953 273.455 L 275.537 274.644 233.765 274.697 C 194.999 274.745,191.838 274.700,189.844 274.067 C 185.326 272.631,182.271 269.317,181.073 264.553 C 180.075 260.582,180.134 144.624,181.135 142.064 C 183.583 135.806,187.533 133.594,196.261 133.594 L 201.384 133.594 201.830 135.941 C 202.732 140.687,206.526 144.245,211.228 144.754 C 215.038 145.167,253.015 144.627,254.754 144.136 C 258.114 143.186,262.097 138.035,262.106 134.629 L 262.109 133.124 268.652 133.279 C 274.960 133.428,275.286 133.476,277.734 134.617 M157.124 167.578 L 157.227 194.141 151.858 194.141 L 146.489 194.141 142.678 192.438 C 132.658 187.961,126.819 187.510,119.371 190.639 C 117.856 191.276,116.481 191.797,116.316 191.797 C 116.151 191.797,116.016 180.371,116.016 166.406 L 116.016 141.016 136.518 141.016 L 157.021 141.016 157.124 167.578 M212.376 151.202 C 211.980 151.441,210.428 151.579,208.861 151.513 C 192.722 150.840,191.561 151.660,191.950 163.453 C 192.212 171.370,192.323 171.819,194.499 173.744 L 195.508 174.637 194.278 175.697 C 192.287 177.414,192.188 177.897,192.188 185.882 L 192.188 193.300 193.570 195.111 L 194.953 196.923 193.800 198.000 C 192.078 199.608,191.729 201.562,191.869 208.787 L 191.992 215.150 193.262 216.916 C 194.801 219.058,194.797 218.930,193.386 220.537 C 191.123 223.115,191.039 235.844,193.262 239.417 C 194.717 241.757,194.749 241.911,193.920 242.600 C 192.356 243.897,192.072 245.303,191.993 252.145 C 191.902 260.053,192.180 261.560,194.142 263.772 L 195.612 265.430 204.393 265.548 L 213.173 265.666 214.413 264.622 C 216.959 262.480,217.012 262.064,216.805 245.660 C 216.800 245.315,216.188 244.263,215.444 243.323 L 214.092 241.614 215.009 240.631 C 217.024 238.473,217.120 237.906,216.891 229.526 L 216.679 221.747 215.334 220.258 L 213.988 218.768 215.355 217.478 C 217.096 215.836,217.282 214.642,217.118 206.173 L 216.992 199.651 215.723 198.342 C 214.178 196.750,214.176 196.701,215.571 195.306 C 217.035 193.843,217.188 192.900,217.188 185.328 C 217.188 178.403,217.062 177.783,215.272 175.861 L 214.073 174.573 215.435 173.211 L 216.797 171.849 216.797 165.807 C 216.797 159.947,216.829 159.708,217.871 157.829 L 218.945 155.891 218.020 154.132 C 216.653 151.535,214.057 150.186,212.376 151.202 M214.222 154.648 C 215.775 156.363,214.770 159.249,211.822 161.542 C 210.799 162.339,208.601 164.419,206.939 166.163 L 203.918 169.336 200.885 166.299 C 197.696 163.106,197.639 162.861,199.932 162.251 C 200.635 162.064,201.176 162.336,202.318 163.451 L 203.795 164.893 205.807 162.427 C 206.914 161.071,208.916 158.599,210.257 156.934 C 212.870 153.688,213.187 153.505,214.222 154.648 M205.820 157.788 C 206.422 158.160,205.047 160.709,204.154 160.876 C 203.028 161.086,198.250 158.431,198.635 157.809 C 198.861 157.444,205.233 157.425,205.820 157.788 M227.436 159.978 C 224.561 161.186,224.284 164.529,226.913 166.295 L 228.241 167.188 248.007 167.178 C 258.879 167.173,268.477 167.007,269.336 166.808 C 272.743 166.022,274.087 162.699,271.888 160.499 L 270.728 159.340 249.685 159.406 C 233.443 159.456,228.366 159.587,227.436 159.978 M210.156 168.904 C 210.156 170.776,209.766 171.135,208.081 170.813 C 206.770 170.562,206.768 170.577,208.301 168.731 C 209.919 166.781,210.156 166.803,210.156 168.904 M210.235 185.919 L 210.352 192.150 204.941 192.266 C 198.278 192.410,198.952 193.111,198.760 185.840 L 198.598 179.688 204.358 179.688 L 210.119 179.688 210.235 185.919 M227.338 182.364 C 224.717 183.756,224.449 186.928,226.821 188.482 C 228.307 189.456,269.464 189.380,270.959 188.401 C 273.176 186.948,273.593 184.471,271.905 182.782 L 270.763 181.641 249.731 181.641 C 230.013 181.641,228.614 181.686,227.338 182.364 M138.867 198.730 L 145.117 201.758 151.074 201.758 L 157.031 201.758 157.031 227.092 C 157.031 248.873,156.945 252.759,156.417 254.799 C 152.448 270.115,131.622 275.075,120.934 263.250 C 116.117 257.920,116.031 257.258,116.022 225.727 L 116.016 199.696 119.043 198.255 C 123.130 196.310,125.366 195.759,129.297 195.729 L 132.617 195.703 138.867 198.730 M209.538 201.409 C 210.067 201.612,210.156 202.566,210.156 207.991 L 210.156 214.336 204.798 214.561 C 198.179 214.838,198.828 215.551,198.828 208.004 L 198.828 201.601 201.074 201.461 C 205.319 201.194,208.921 201.172,209.538 201.409 M234.961 203.890 C 226.937 204.119,226.199 204.299,225.400 206.227 C 224.779 207.726,225.144 209.184,226.440 210.385 L 227.458 211.328 249.046 211.328 L 270.634 211.328 271.645 210.126 C 273.670 207.720,273.317 205.517,270.695 204.200 C 269.261 203.479,253.983 203.347,234.961 203.890 M209.538 223.675 C 210.067 223.877,210.156 224.832,210.156 230.266 L 210.156 236.621 208.936 236.865 C 208.264 237.000,205.727 237.109,203.298 237.109 L 198.881 237.109 198.754 230.566 C 198.684 226.968,198.683 223.892,198.751 223.730 C 198.898 223.382,208.645 223.332,209.538 223.675 M226.328 228.281 C 224.851 229.758,224.729 230.374,225.584 232.027 C 226.850 234.476,225.836 234.375,249.265 234.375 L 270.622 234.375 271.835 232.994 C 273.487 231.112,273.491 229.349,271.845 227.964 L 270.643 226.953 249.150 226.953 L 227.656 226.953 226.328 228.281 M205.994 246.739 L 210.156 246.994 210.156 252.794 L 210.156 258.594 204.492 258.594 L 198.828 258.594 198.825 255.176 C 198.824 253.296,198.711 250.571,198.574 249.121 L 198.325 246.484 200.078 246.484 C 201.043 246.484,203.705 246.599,205.994 246.739 M226.450 250.153 C 225.085 251.418,224.790 252.757,225.552 254.231 C 226.855 256.751,225.765 256.641,249.336 256.641 L 270.763 256.641 271.905 255.499 C 273.441 253.963,273.499 251.733,272.039 250.361 L 271.031 249.414 249.255 249.307 L 227.478 249.200 226.450 250.153 " stroke="none" fill="#08273e" fill-rule="evenodd"></path><path id="path1" d="M0.000 200.000 L 0.000 400.000 200.000 400.000 L 400.000 400.000 400.000 200.000 L 400.000 0.000 200.000 0.000 L 0.000 0.000 0.000 200.000 M238.764 104.972 C 243.458 107.169,246.859 111.612,247.654 116.585 C 248.213 120.089,248.019 119.922,251.541 119.922 C 255.527 119.922,258.209 121.195,259.961 123.917 L 261.133 125.739 268.164 125.770 C 272.031 125.787,275.973 125.980,276.924 126.199 C 283.365 127.683,290.277 134.132,292.570 140.795 C 293.487 143.462,294.232 257.824,293.373 264.063 C 292.300 271.851,286.679 278.377,278.516 281.313 L 275.977 282.227 233.789 282.227 C 193.967 282.227,191.471 282.186,189.278 281.510 C 182.195 279.324,176.813 274.423,174.195 267.773 L 173.272 265.430 173.024 215.234 C 172.757 161.265,172.969 144.369,173.955 141.351 C 177.449 130.644,184.387 126.180,197.540 126.174 L 202.698 126.172 203.324 124.902 C 204.864 121.779,209.502 119.633,213.666 120.116 L 215.951 120.382 216.207 118.101 C 217.469 106.860,228.757 100.290,238.764 104.972 M165.745 110.437 C 176.793 115.537,177.053 134.595,166.146 139.875 L 164.325 140.757 164.587 195.476 C 164.899 260.779,165.125 257.527,159.746 265.186 C 147.760 282.254,120.164 280.628,111.322 262.334 C 108.431 256.351,108.606 260.519,108.600 197.398 L 108.594 140.695 106.828 139.840 C 94.145 133.700,96.740 111.825,110.391 109.801 C 116.101 108.955,163.718 109.502,165.745 110.437 M110.352 117.795 C 108.664 118.664,107.788 119.902,108.347 120.628 C 111.588 124.841,113.479 125.513,116.311 123.461 C 121.078 120.008,115.801 114.991,110.352 117.795 M192.383 133.850 C 187.290 134.457,183.744 136.885,181.800 141.094 L 180.664 143.555 180.556 201.953 C 180.442 263.561,180.447 263.785,182.133 266.978 C 182.525 267.720,182.549 267.716,182.870 266.847 C 183.053 266.354,183.334 266.016,183.496 266.097 C 191.470 270.087,187.748 269.806,232.031 269.763 L 270.508 269.727 272.666 268.665 C 276.298 266.880,278.481 264.209,280.119 259.547 C 280.893 257.346,280.905 256.461,280.873 202.581 C 280.837 142.248,280.928 144.489,278.312 139.258 C 275.665 133.965,275.395 133.817,268.083 133.664 L 262.109 133.539 262.109 135.144 C 262.109 138.003,259.602 141.725,256.421 143.590 C 254.090 144.956,249.463 145.163,226.758 144.922 L 208.398 144.727 206.554 143.446 C 204.118 141.755,202.459 139.263,201.688 136.140 L 201.060 133.594 197.307 133.652 C 195.243 133.684,193.027 133.774,192.383 133.850 M116.315 141.732 C 116.425 142.019,116.622 142.102,116.754 141.917 C 116.885 141.732,117.432 141.613,117.969 141.654 C 118.506 141.694,121.880 141.916,125.467 142.146 C 129.054 142.377,132.834 142.758,133.866 142.993 C 134.898 143.229,137.939 143.539,140.625 143.684 C 144.209 143.877,145.482 144.077,145.410 144.435 C 145.356 144.703,145.499 144.922,145.726 144.922 C 145.954 144.922,146.031 145.098,145.898 145.313 C 145.766 145.527,145.951 145.703,146.310 145.703 C 146.816 145.703,146.924 145.435,146.789 144.514 C 146.693 143.860,146.796 143.213,147.018 143.076 C 147.751 142.623,149.219 142.738,149.219 143.249 C 149.219 143.545,149.697 143.750,150.391 143.750 C 151.302 143.750,151.563 143.924,151.563 144.531 C 151.563 145.182,151.823 145.313,153.125 145.313 C 154.253 145.313,154.688 145.475,154.688 145.898 C 154.688 146.230,155.037 146.484,155.492 146.484 C 155.934 146.484,156.220 146.616,156.127 146.777 C 156.033 146.938,156.102 147.422,156.280 147.852 C 156.476 148.327,156.572 147.218,156.524 145.022 L 156.445 141.412 136.280 141.311 C 119.602 141.228,116.149 141.301,116.315 141.732 M151.079 142.065 C 150.705 142.163,150.002 142.167,149.516 142.073 C 149.030 141.980,149.336 141.900,150.195 141.895 C 151.055 141.891,151.452 141.967,151.079 142.065 M116.297 143.489 C 115.953 144.364,115.925 186.884,116.267 189.727 L 116.511 191.759 117.923 191.050 C 125.788 187.103,132.666 187.552,143.750 192.737 C 147.636 194.555,147.266 196.809,147.266 171.347 C 147.266 147.548,147.221 146.950,145.391 146.105 C 142.382 144.717,140.813 144.540,131.445 144.533 C 120.054 144.524,116.884 144.281,116.706 143.402 C 116.597 142.867,116.537 142.879,116.297 143.489 M216.390 151.804 C 218.726 153.770,219.461 156.657,217.969 158.008 C 217.252 158.656,217.188 159.211,217.188 164.684 C 217.188 171.099,216.973 172.168,215.391 173.634 L 214.369 174.582 215.778 176.228 L 217.188 177.875 217.188 185.669 C 217.188 193.910,216.849 195.541,214.989 196.254 C 214.483 196.448,214.628 196.779,215.778 198.052 L 217.188 199.612 217.188 207.449 C 217.188 215.706,217.069 216.371,215.333 217.836 L 214.333 218.680 215.760 220.348 L 217.188 222.016 217.188 230.147 L 217.188 238.279 215.820 239.792 C 215.068 240.625,214.453 241.415,214.453 241.548 C 214.453 241.681,215.068 242.596,215.820 243.581 L 217.188 245.372 217.181 253.253 C 217.173 263.276,216.079 265.745,211.626 265.786 C 191.740 265.972,191.821 266.024,191.805 252.891 L 191.797 245.430 192.962 243.711 C 194.381 241.617,194.402 241.243,193.180 239.791 C 191.857 238.219,191.728 237.158,191.869 229.040 L 191.992 221.953 193.305 220.320 L 194.618 218.688 193.646 217.645 C 191.901 215.773,191.797 215.218,191.797 207.813 C 191.797 200.420,191.903 199.850,193.629 197.998 L 194.584 196.973 193.288 195.134 L 191.992 193.295 191.992 185.533 L 191.992 177.772 193.519 176.208 L 195.045 174.645 193.638 173.088 C 191.912 171.178,191.810 170.606,191.694 162.281 L 191.602 155.617 192.696 154.175 C 194.622 151.639,195.342 151.455,204.492 151.170 C 209.004 151.029,213.253 150.884,213.935 150.848 C 214.771 150.803,215.570 151.114,216.390 151.804 M212.385 156.543 C 212.025 158.418,213.248 159.249,213.985 157.631 C 214.336 156.861,214.304 156.547,213.825 156.068 C 212.965 155.208,212.619 155.322,212.385 156.543 M271.420 159.708 C 273.757 161.017,273.687 164.450,271.284 166.341 C 270.209 167.186,270.168 167.188,248.817 167.188 L 227.426 167.188 226.191 166.034 C 224.514 164.467,224.566 161.680,226.298 160.391 C 227.933 159.173,269.346 158.547,271.420 159.708 M198.878 162.851 C 198.143 163.317,198.294 163.547,201.012 166.113 C 203.718 168.668,204.309 168.816,205.442 167.225 C 206.405 165.873,206.439 165.625,205.664 165.625 C 205.342 165.625,205.078 165.437,205.078 165.208 C 205.078 164.978,204.750 164.895,204.347 165.023 C 203.828 165.188,203.264 164.855,202.405 163.878 C 201.203 162.509,199.981 162.153,198.878 162.851 M271.387 182.028 C 273.056 183.133,273.609 184.974,272.762 186.605 C 271.245 189.528,271.887 189.453,248.502 189.453 L 227.656 189.453 226.328 188.125 C 224.371 186.168,224.509 184.166,226.719 182.422 C 228.161 181.284,269.710 180.917,271.387 182.028 M156.295 185.062 C 156.264 186.203,156.004 186.937,155.469 187.395 C 155.039 187.763,154.688 188.289,154.688 188.563 C 154.688 188.838,154.336 189.063,153.906 189.063 C 153.477 189.063,153.125 189.238,153.125 189.453 C 153.125 189.668,152.773 189.844,152.344 189.844 C 151.714 189.844,151.563 190.104,151.563 191.185 C 151.563 192.452,150.394 193.493,149.724 192.823 C 149.604 192.703,149.178 192.781,148.777 192.996 C 148.252 193.277,148.047 193.255,148.047 192.917 C 148.047 192.659,147.915 192.579,147.755 192.740 C 146.943 193.552,149.118 194.141,152.928 194.141 L 156.879 194.141 156.738 189.355 C 156.591 184.345,156.373 182.226,156.295 185.062 M271.336 204.262 C 273.647 205.671,273.726 208.796,271.496 210.672 L 270.342 211.643 249.059 211.688 L 227.777 211.732 226.388 210.513 C 224.003 208.418,224.805 204.829,227.857 203.946 C 230.600 203.152,269.985 203.438,271.336 204.262 M123.929 212.385 C 121.788 212.797,121.105 216.639,122.818 218.631 C 124.950 221.110,128.906 219.740,128.906 216.522 C 128.906 212.908,127.458 211.704,123.929 212.385 M140.950 219.461 C 139.681 219.978,138.672 221.744,138.672 223.447 C 138.672 227.634,144.232 229.794,147.122 226.730 C 150.689 222.947,145.986 217.408,140.950 219.461 M271.093 227.247 C 273.791 228.595,274.032 231.124,271.686 233.470 L 270.371 234.785 248.825 234.678 L 227.279 234.570 226.140 233.295 C 224.082 230.991,224.796 228.173,227.735 227.001 C 229.679 226.226,269.502 226.451,271.093 227.247 M128.415 236.144 C 125.763 237.946,125.086 240.649,126.609 243.358 C 129.529 248.555,137.565 246.694,137.565 240.820 C 137.565 236.066,132.409 233.430,128.415 236.144 M271.717 249.804 C 273.756 251.113,273.830 253.965,271.875 255.919 L 270.744 257.050 249.012 256.943 L 227.279 256.836 226.140 255.560 C 224.311 253.513,224.967 250.175,227.374 249.284 C 228.829 248.745,270.836 249.238,271.717 249.804 " stroke="none" fill="#fbfbf9" fill-rule="evenodd"></path><path id="path2" d="M159.356 116.937 C 159.259 117.030,149.907 117.182,138.574 117.277 C 116.821 117.458,117.260 117.426,117.973 118.758 C 119.201 121.053,116.434 124.609,113.419 124.609 C 112.021 124.609,109.234 122.496,108.791 121.099 C 108.666 120.706,108.316 120.289,108.013 120.173 C 107.626 120.025,107.533 120.160,107.699 120.625 C 107.830 120.990,107.794 121.160,107.620 121.002 C 106.944 120.389,106.118 122.877,106.139 125.460 C 106.168 128.931,107.308 131.092,109.766 132.332 L 111.523 133.219 136.914 133.113 L 162.305 133.008 163.583 132.096 C 167.641 129.202,167.481 121.030,163.310 118.206 C 161.976 117.303,159.730 116.582,159.356 116.937 M277.260 136.408 C 281.000 143.242,280.814 139.871,280.892 202.344 C 280.960 257.047,280.958 257.234,280.147 259.505 C 278.457 264.239,276.301 266.878,272.666 268.665 L 270.508 269.727 231.055 269.724 C 187.828 269.722,190.511 269.863,185.676 267.340 C 184.350 266.649,183.164 266.185,183.039 266.310 C 182.611 266.737,182.813 268.186,183.421 269.054 C 183.755 269.531,183.929 269.922,183.808 269.922 C 183.085 269.922,185.907 272.315,187.619 273.153 C 190.817 274.720,190.865 274.721,234.355 274.680 L 275.546 274.640 277.957 273.453 C 280.840 272.034,283.280 269.510,284.703 266.475 L 285.742 264.258 285.742 204.492 L 285.742 144.727 284.795 142.230 C 283.444 138.669,280.493 135.562,278.219 135.307 L 276.555 135.120 277.260 136.408 M201.172 201.529 L 199.023 201.758 198.916 207.978 C 198.786 215.452,198.243 214.842,204.785 214.564 L 210.156 214.336 210.156 207.991 C 210.156 202.566,210.067 201.612,209.538 201.409 C 208.819 201.133,204.270 201.198,201.172 201.529 M199.023 223.736 C 198.781 223.914,198.680 226.509,198.757 230.566 L 198.881 237.109 203.298 237.109 C 205.727 237.109,208.264 237.000,208.936 236.865 L 210.156 236.621 210.156 230.498 C 210.156 226.257,210.012 224.231,209.687 223.906 C 209.167 223.386,199.706 223.235,199.023 223.736 M198.621 247.304 C 198.477 247.755,198.488 248.942,198.645 249.941 C 198.801 250.940,198.901 253.296,198.866 255.176 L 198.802 258.594 204.479 258.594 L 210.156 258.594 210.156 252.794 L 210.156 246.994 205.994 246.739 C 199.355 246.333,198.918 246.366,198.621 247.304 " stroke="none" fill="#f5a814" fill-rule="evenodd"></path><path id="path3" d="M228.951 111.524 C 224.821 112.812,222.642 116.391,222.263 122.507 C 221.928 127.915,222.419 127.443,217.203 127.372 C 210.863 127.285,209.200 128.278,209.035 132.251 C 208.953 134.216,209.664 135.707,211.275 136.948 C 211.659 137.244,218.000 137.349,232.157 137.295 L 252.487 137.216 253.587 135.985 C 256.995 132.170,253.940 128.189,247.539 128.103 C 243.284 128.046,241.967 126.673,241.375 121.680 C 240.446 113.838,235.223 109.568,228.951 111.524 M234.118 117.378 C 237.171 119.379,237.591 128.446,234.661 129.085 C 229.774 130.150,227.719 128.186,227.231 121.986 C 227.133 120.748,227.217 120.039,227.444 120.179 C 227.669 120.318,227.707 120.060,227.539 119.531 C 227.332 118.877,227.386 118.730,227.753 118.957 C 228.095 119.168,228.148 119.104,227.927 118.746 C 226.870 117.035,231.899 115.925,234.118 117.378 M212.327 154.260 C 212.207 154.455,212.440 154.528,212.844 154.422 C 213.319 154.298,213.805 154.550,214.212 155.131 C 214.560 155.627,214.844 155.846,214.844 155.616 C 214.844 154.589,212.803 153.490,212.327 154.260 M198.660 157.768 C 198.394 158.199,198.882 158.583,201.419 159.940 C 203.872 161.251,204.682 161.141,205.567 159.374 C 206.452 157.605,205.624 157.076,202.933 157.692 C 201.978 157.910,201.289 157.939,201.402 157.756 C 201.516 157.572,200.993 157.422,200.241 157.422 C 199.489 157.422,198.778 157.578,198.660 157.768 M208.301 168.731 C 206.768 170.577,206.770 170.562,208.081 170.813 C 209.766 171.135,210.156 170.776,210.156 168.904 C 210.156 166.803,209.919 166.781,208.301 168.731 M124.023 196.285 C 122.949 196.576,120.708 197.463,119.043 198.255 L 116.016 199.696 116.022 225.727 C 116.031 257.258,116.117 257.920,120.934 263.250 C 131.622 275.075,152.448 270.115,156.417 254.799 C 156.945 252.759,157.031 248.873,157.031 227.092 L 157.031 201.758 151.074 201.758 L 145.117 201.758 138.867 198.730 L 132.617 195.703 129.297 195.729 C 127.471 195.743,125.098 195.993,124.023 196.285 M127.402 212.141 C 129.055 213.025,129.865 216.984,128.726 218.609 C 125.844 222.725,119.800 218.188,121.931 213.509 C 122.634 211.967,125.663 211.210,127.402 212.141 M146.896 220.241 C 149.265 222.610,149.402 224.689,147.342 226.995 C 145.234 229.354,141.135 228.766,139.168 225.821 C 135.910 220.944,142.698 216.043,146.896 220.241 M135.774 235.962 C 141.101 240.939,135.587 249.291,129.109 246.056 C 124.284 243.646,124.279 237.539,129.102 235.298 C 130.950 234.439,134.524 234.795,135.774 235.962 " stroke="none" fill="#17bae6" fill-rule="evenodd"></path><path id="path4" d="M114.941 109.665 C 116.392 109.740,118.765 109.740,120.215 109.665 C 121.665 109.590,120.479 109.528,117.578 109.528 C 114.678 109.528,113.491 109.590,114.941 109.665 M228.557 117.540 C 227.890 118.163,227.344 118.895,227.344 119.167 C 227.344 119.439,227.388 119.586,227.441 119.494 C 227.495 119.403,228.145 118.670,228.885 117.867 C 230.482 116.135,230.278 115.932,228.557 117.540 M112.598 117.077 C 113.188 117.166,114.155 117.166,114.746 117.077 C 115.337 116.987,114.854 116.914,113.672 116.914 C 112.490 116.914,112.007 116.987,112.598 117.077 M116.622 117.740 C 117.038 118.044,117.469 118.176,117.580 118.033 C 117.691 117.890,117.942 117.642,118.136 117.480 C 118.330 117.319,117.899 117.188,117.178 117.188 C 115.951 117.188,115.915 117.223,116.622 117.740 M122.363 117.476 C 123.599 117.554,125.620 117.554,126.855 117.476 C 128.091 117.399,127.080 117.335,124.609 117.335 C 122.139 117.335,121.128 117.399,122.363 117.476 M211.230 120.198 C 211.714 120.291,212.505 120.291,212.988 120.198 C 213.472 120.104,213.076 120.028,212.109 120.028 C 211.143 120.028,210.747 120.104,211.230 120.198 M201.758 126.172 L 200.586 126.470 201.637 126.516 C 202.215 126.542,202.797 126.387,202.930 126.172 C 203.062 125.957,203.117 125.802,203.050 125.827 C 202.984 125.853,202.402 126.008,201.758 126.172 M192.090 126.448 C 192.573 126.541,193.364 126.541,193.848 126.448 C 194.331 126.354,193.936 126.278,192.969 126.278 C 192.002 126.278,191.606 126.354,192.090 126.448 M286.719 132.227 C 287.886 133.408,288.928 134.375,289.036 134.375 C 289.143 134.375,288.276 133.408,287.109 132.227 C 285.942 131.045,284.900 130.078,284.792 130.078 C 284.685 130.078,285.552 131.045,286.719 132.227 M268.222 133.553 C 273.345 133.757,274.252 133.892,274.982 134.553 C 275.682 135.187,278.906 135.769,278.906 135.261 C 278.906 134.216,274.749 133.448,268.750 133.385 L 262.305 133.318 268.222 133.553 M191.313 133.870 C 191.799 133.963,192.502 133.960,192.876 133.862 C 193.249 133.764,192.852 133.688,191.992 133.692 C 191.133 133.697,190.827 133.777,191.313 133.870 M101.137 134.700 C 101.347 135.094,101.827 135.665,102.202 135.970 C 102.624 136.312,102.529 136.039,101.954 135.254 C 100.928 133.852,100.544 133.592,101.137 134.700 M291.287 138.472 C 291.645 139.221,292.006 139.765,292.091 139.680 C 292.270 139.501,291.084 137.109,290.817 137.109 C 290.718 137.109,290.930 137.722,291.287 138.472 M258.573 141.699 L 257.227 143.164 258.691 141.818 C 260.055 140.565,260.336 140.234,260.038 140.234 C 259.972 140.234,259.313 140.894,258.573 141.699 M118.259 141.439 C 117.881 141.659,117.398 141.731,117.184 141.600 C 116.971 141.468,116.794 141.590,116.791 141.871 C 116.787 142.243,116.681 142.223,116.406 141.797 C 116.122 141.357,116.028 141.553,116.028 142.578 C 116.028 143.603,116.122 143.799,116.406 143.359 C 116.737 142.848,116.786 142.853,116.791 143.401 C 116.799 144.279,119.977 144.524,131.445 144.533 C 142.777 144.541,145.964 145.210,146.856 147.768 C 147.658 150.071,147.400 193.658,146.582 193.871 C 146.206 193.970,146.591 194.070,147.438 194.095 C 148.859 194.137,148.919 194.098,148.220 193.587 C 147.803 193.282,147.594 192.901,147.755 192.740 C 147.915 192.579,148.047 192.659,148.047 192.917 C 148.047 193.255,148.252 193.277,148.777 192.996 C 149.178 192.781,149.604 192.703,149.724 192.823 C 150.394 193.493,151.563 192.452,151.563 191.185 C 151.563 190.104,151.714 189.844,152.344 189.844 C 152.773 189.844,153.125 189.668,153.125 189.453 C 153.125 189.238,153.477 189.063,153.906 189.063 C 154.336 189.063,154.688 188.838,154.688 188.563 C 154.688 188.289,155.039 187.763,155.469 187.395 C 155.990 186.949,156.276 186.172,156.329 185.062 C 156.372 184.147,156.512 185.508,156.641 188.086 C 156.769 190.664,156.909 181.128,156.953 166.895 C 156.996 152.661,156.899 141.015,156.738 141.015 C 156.577 141.014,156.484 142.728,156.531 144.823 C 156.584 147.172,156.490 148.333,156.287 147.852 C 156.105 147.422,156.033 146.938,156.127 146.777 C 156.220 146.616,155.934 146.484,155.492 146.484 C 155.037 146.484,154.688 146.230,154.688 145.898 C 154.688 145.475,154.253 145.313,153.125 145.313 C 151.823 145.313,151.563 145.182,151.563 144.531 C 151.563 143.924,151.302 143.750,150.391 143.750 C 149.697 143.750,149.219 143.545,149.219 143.249 C 149.219 142.738,147.751 142.623,147.018 143.076 C 146.796 143.213,146.693 143.860,146.789 144.514 C 146.924 145.435,146.816 145.703,146.310 145.703 C 145.951 145.703,145.766 145.527,145.898 145.313 C 146.031 145.098,145.954 144.922,145.726 144.922 C 145.499 144.922,145.356 144.703,145.410 144.435 C 145.482 144.077,144.209 143.877,140.625 143.684 C 137.939 143.539,134.898 143.229,133.866 142.993 C 132.834 142.758,129.054 142.395,125.467 142.187 C 121.880 141.978,118.857 141.764,118.750 141.710 C 118.643 141.657,126.904 141.520,137.109 141.406 L 155.664 141.199 137.305 141.119 C 125.343 141.067,118.706 141.179,118.259 141.439 M149.516 142.073 C 150.002 142.167,150.705 142.163,151.079 142.065 C 151.452 141.967,151.055 141.891,150.195 141.895 C 149.336 141.900,149.030 141.980,149.516 142.073 M243.750 144.864 C 244.287 145.010,246.484 145.026,248.633 144.900 L 252.539 144.670 247.656 144.634 C 244.971 144.615,243.213 144.718,243.750 144.864 M293.480 149.023 C 293.483 150.313,293.556 150.793,293.642 150.091 C 293.729 149.389,293.728 148.334,293.638 147.747 C 293.549 147.160,293.478 147.734,293.480 149.023 M200.488 151.459 C 201.509 151.539,203.179 151.539,204.199 151.459 C 205.220 151.379,204.385 151.313,202.344 151.313 C 200.303 151.313,199.468 151.379,200.488 151.459 M209.082 151.452 C 209.673 151.541,210.640 151.541,211.230 151.452 C 211.821 151.362,211.338 151.289,210.156 151.289 C 208.975 151.289,208.491 151.362,209.082 151.452 M210.373 156.934 C 209.184 158.384,207.420 160.506,206.453 161.651 C 205.485 162.795,204.528 164.025,204.327 164.385 C 204.001 164.966,203.816 164.909,202.663 163.867 L 201.367 162.695 202.517 163.967 C 203.297 164.831,203.893 165.167,204.372 165.015 C 204.760 164.892,205.078 164.979,205.078 165.208 C 205.078 165.437,205.342 165.625,205.664 165.625 C 206.439 165.625,206.405 165.873,205.442 167.225 C 204.319 168.803,203.663 168.662,201.184 166.309 L 199.023 164.258 201.159 166.504 C 203.813 169.296,204.208 169.294,206.421 166.478 C 207.403 165.228,209.356 163.338,210.761 162.279 C 214.508 159.452,215.630 157.155,214.236 155.165 C 213.294 153.821,212.701 154.092,210.373 156.934 M213.825 156.068 C 214.304 156.547,214.336 156.861,213.985 157.631 C 213.248 159.249,212.025 158.418,212.385 156.543 C 212.619 155.322,212.965 155.208,213.825 156.068 M191.543 159.375 C 191.543 161.201,191.610 161.948,191.692 161.035 C 191.775 160.122,191.775 158.628,191.692 157.715 C 191.610 156.802,191.543 157.549,191.543 159.375 M260.254 159.275 C 261.919 159.348,264.644 159.348,266.309 159.275 C 267.974 159.202,266.611 159.142,263.281 159.142 C 259.951 159.142,258.589 159.202,260.254 159.275 M216.954 165.234 C 216.954 168.564,217.014 169.927,217.087 168.262 C 217.160 166.597,217.160 163.872,217.087 162.207 C 217.014 160.542,216.954 161.904,216.954 165.234 M233.496 159.651 C 233.979 159.744,234.771 159.744,235.254 159.651 C 235.737 159.558,235.342 159.481,234.375 159.481 C 233.408 159.481,233.013 159.558,233.496 159.651 M172.827 171.484 C 172.827 177.178,172.881 179.507,172.948 176.660 C 173.015 173.813,173.015 169.155,172.948 166.309 C 172.881 163.462,172.827 165.791,172.827 171.484 M271.618 165.665 C 271.167 166.116,270.205 166.626,269.481 166.797 C 268.259 167.085,268.241 167.110,269.232 167.148 C 270.101 167.180,273.493 164.902,272.645 164.855 C 272.532 164.849,272.070 165.213,271.618 165.665 M191.922 167.969 C 191.922 169.365,191.993 169.937,192.079 169.238 C 192.166 168.540,192.166 167.397,192.079 166.699 C 191.993 166.001,191.922 166.572,191.922 167.969 M191.957 185.742 C 191.956 189.395,192.015 190.941,192.087 189.179 C 192.159 187.417,192.160 184.429,192.088 182.539 C 192.016 180.648,191.957 182.090,191.957 185.742 M198.760 185.840 C 198.952 193.111,198.278 192.410,204.941 192.266 L 210.352 192.150 210.235 185.919 L 210.119 179.688 204.358 179.688 L 198.598 179.688 198.760 185.840 M251.099 181.542 C 254.604 181.607,260.229 181.607,263.599 181.542 C 266.969 181.477,264.102 181.424,257.227 181.424 C 250.352 181.424,247.594 181.478,251.099 181.542 M128.223 188.561 C 128.813 188.651,129.780 188.651,130.371 188.561 C 130.962 188.472,130.479 188.398,129.297 188.398 C 128.115 188.398,127.632 188.472,128.223 188.561 M116.114 190.430 C 116.118 191.289,116.198 191.595,116.292 191.109 C 116.385 190.623,116.382 189.920,116.284 189.546 C 116.186 189.173,116.110 189.570,116.114 190.430 M240.137 189.355 C 245.562 189.416,254.438 189.416,259.863 189.355 C 265.288 189.294,260.850 189.244,250.000 189.244 C 239.150 189.244,234.712 189.294,240.137 189.355 M193.900 195.971 C 194.306 196.461,194.484 197.045,194.317 197.339 C 194.082 197.753,194.128 197.757,194.556 197.359 C 194.999 196.948,194.930 196.721,194.140 195.992 C 193.214 195.137,193.209 195.136,193.900 195.971 M214.453 196.997 C 214.453 197.064,215.024 197.636,215.723 198.267 L 216.992 199.414 215.845 198.145 C 214.775 196.961,214.453 196.695,214.453 196.997 M293.543 222.266 C 293.543 235.479,293.592 240.884,293.652 234.277 C 293.712 227.671,293.712 216.860,293.652 210.254 C 293.592 203.647,293.543 209.053,293.543 222.266 M232.129 203.806 C 234.009 203.878,237.085 203.878,238.965 203.806 C 240.845 203.735,239.307 203.676,235.547 203.676 C 231.787 203.676,230.249 203.735,232.129 203.806 M272.656 208.499 C 272.656 208.733,272.179 209.509,271.596 210.224 C 270.724 211.293,270.695 211.385,271.437 210.747 C 272.489 209.839,273.208 208.624,272.883 208.300 C 272.758 208.175,272.656 208.265,272.656 208.499 M235.033 211.620 C 239.154 211.684,246.010 211.684,250.267 211.621 C 254.524 211.558,251.152 211.506,242.773 211.506 C 234.395 211.506,230.911 211.557,235.033 211.620 M263.184 211.617 C 264.526 211.694,266.724 211.694,268.066 211.617 C 269.409 211.541,268.311 211.479,265.625 211.479 C 262.939 211.479,261.841 211.541,263.184 211.617 M123.379 212.160 C 122.130 212.617,121.370 214.277,121.589 216.067 C 121.744 217.330,121.752 217.320,121.812 215.810 C 121.957 212.176,126.663 210.575,128.306 213.601 C 128.619 214.177,128.882 214.421,128.891 214.142 C 128.946 212.346,125.880 211.243,123.379 212.160 M164.634 232.031 C 164.634 242.881,164.685 247.319,164.746 241.895 C 164.807 236.470,164.807 227.593,164.746 222.168 C 164.685 216.743,164.634 221.182,164.634 232.031 M129.013 216.406 C 129.013 217.373,129.089 217.769,129.182 217.285 C 129.275 216.802,129.275 216.011,129.182 215.527 C 129.089 215.044,129.013 215.439,129.013 216.406 M214.232 218.401 C 214.085 218.638,214.554 219.386,215.274 220.061 L 216.584 221.289 215.476 220.051 C 214.866 219.370,214.485 218.623,214.629 218.391 C 214.772 218.159,214.802 217.969,214.695 217.969 C 214.587 217.969,214.379 218.163,214.232 218.401 M140.793 219.127 C 140.348 219.307,139.679 219.955,139.306 220.567 L 138.628 221.680 139.600 220.535 C 141.161 218.695,144.627 218.591,146.715 220.320 L 148.242 221.584 146.783 220.167 C 145.259 218.687,142.894 218.277,140.793 219.127 M125.781 219.922 C 124.977 220.180,124.942 220.240,125.586 220.268 C 126.016 220.286,126.631 220.130,126.953 219.922 C 127.638 219.480,127.162 219.480,125.781 219.922 M216.796 227.655 L 216.990 233.789 217.099 227.960 C 217.160 224.754,217.072 221.994,216.905 221.826 C 216.738 221.658,216.689 224.281,216.796 227.655 M138.380 223.242 C 138.384 224.102,138.464 224.407,138.558 223.921 C 138.651 223.435,138.647 222.732,138.550 222.359 C 138.452 221.985,138.375 222.383,138.380 223.242 M148.528 223.828 C 148.528 224.580,148.609 224.888,148.707 224.512 C 148.805 224.136,148.805 223.521,148.707 223.145 C 148.609 222.769,148.528 223.076,148.528 223.828 M147.028 226.779 C 146.360 227.519,145.934 228.125,146.081 228.125 C 146.375 228.125,147.770 226.652,148.207 225.879 C 148.653 225.092,148.323 225.344,147.028 226.779 M238.770 226.855 C 244.517 226.916,253.921 226.916,259.668 226.855 C 265.415 226.794,260.713 226.745,249.219 226.745 C 237.725 226.745,233.022 226.794,238.770 226.855 M225.783 228.319 C 225.279 228.855,224.941 229.359,225.031 229.439 C 225.121 229.519,225.604 229.080,226.104 228.464 C 227.222 227.085,227.025 226.996,225.783 228.319 M143.266 228.401 C 143.752 228.495,144.455 228.491,144.829 228.393 C 145.202 228.296,144.805 228.219,143.945 228.224 C 143.086 228.228,142.780 228.308,143.266 228.401 M225.001 231.513 C 224.999 232.157,226.928 234.377,227.476 234.363 C 227.726 234.357,227.610 234.165,227.219 233.938 C 226.829 233.711,226.170 232.969,225.756 232.290 C 225.342 231.611,225.002 231.261,225.001 231.513 M238.574 234.668 C 244.429 234.728,254.009 234.728,259.863 234.668 C 265.718 234.607,260.928 234.557,249.219 234.557 C 237.510 234.557,232.720 234.607,238.574 234.668 M130.957 235.045 C 131.548 235.135,132.515 235.135,133.105 235.045 C 133.696 234.956,133.213 234.883,132.031 234.883 C 130.850 234.883,130.366 234.956,130.957 235.045 M127.290 236.636 C 124.975 238.795,124.797 243.003,126.964 244.342 C 127.187 244.481,127.013 244.008,126.577 243.293 C 125.056 240.798,125.794 237.925,128.415 236.144 C 129.215 235.601,129.645 235.156,129.372 235.156 C 129.099 235.156,128.162 235.822,127.290 236.636 M135.394 236.246 C 136.808 237.478,137.488 238.645,137.531 239.916 C 137.548 240.413,137.653 240.593,137.764 240.315 C 138.261 239.077,135.853 235.129,134.628 235.172 C 134.381 235.181,134.726 235.664,135.394 236.246 M192.188 238.173 C 192.188 238.400,192.549 239.000,192.992 239.508 L 193.796 240.430 193.110 239.258 C 192.207 237.715,192.188 237.693,192.188 238.173 M137.500 241.823 C 137.500 243.077,136.817 244.064,135.077 245.325 C 134.197 245.963,133.676 246.484,133.919 246.484 C 134.870 246.484,137.891 243.119,137.891 242.059 C 137.891 241.485,137.803 241.016,137.695 241.016 C 137.588 241.016,137.500 241.379,137.500 241.823 M131.157 246.761 C 131.643 246.854,132.346 246.851,132.719 246.753 C 133.093 246.655,132.695 246.579,131.836 246.583 C 130.977 246.587,130.671 246.667,131.157 246.761 M216.952 252.344 C 216.952 255.459,217.013 256.733,217.087 255.176 C 217.161 253.618,217.161 251.069,217.087 249.512 C 217.013 247.954,216.952 249.229,216.952 252.344 M280.980 249.805 C 280.983 251.094,281.056 251.574,281.142 250.872 C 281.229 250.170,281.228 249.115,281.138 248.528 C 281.049 247.941,280.978 248.516,280.980 249.805 M191.941 251.953 C 191.941 254.209,192.006 255.132,192.085 254.004 C 192.164 252.876,192.164 251.030,192.085 249.902 C 192.006 248.774,191.941 249.697,191.941 251.953 M293.507 252.734 C 293.507 255.205,293.571 256.216,293.648 254.980 C 293.726 253.745,293.726 251.724,293.648 250.488 C 293.571 249.253,293.507 250.264,293.507 252.734 M229.199 249.111 C 229.897 249.197,231.040 249.197,231.738 249.111 C 232.437 249.024,231.865 248.953,230.469 248.953 C 229.072 248.953,228.501 249.024,229.199 249.111 M180.203 255.469 C 180.203 256.865,180.274 257.437,180.361 256.738 C 180.447 256.040,180.447 254.897,180.361 254.199 C 180.274 253.501,180.203 254.072,180.203 255.469 M225.001 253.779 C 224.999 254.422,226.928 256.643,227.476 256.629 C 227.726 256.622,227.610 256.431,227.219 256.204 C 226.829 255.977,226.170 255.235,225.756 254.556 C 225.342 253.876,225.002 253.527,225.001 253.779 M271.750 255.762 C 271.120 256.391,269.358 256.461,249.498 256.647 L 227.930 256.849 249.295 256.940 L 270.660 257.031 271.756 256.067 C 272.358 255.537,272.757 255.097,272.642 255.090 C 272.527 255.084,272.126 255.386,271.750 255.762 M293.476 260.547 C 293.476 261.729,293.550 262.212,293.639 261.621 C 293.729 261.030,293.729 260.063,293.639 259.473 C 293.550 258.882,293.476 259.365,293.476 260.547 M110.547 260.690 C 110.547 261.113,112.488 264.844,112.708 264.844 C 112.816 264.844,112.440 263.921,111.874 262.793 C 110.784 260.624,110.547 260.248,110.547 260.690 M192.885 262.695 C 193.106 263.125,193.787 263.915,194.398 264.452 L 195.508 265.427 194.339 264.061 C 192.487 261.897,192.461 261.873,192.885 262.695 M210.454 265.901 C 210.940 265.995,211.643 265.991,212.016 265.893 C 212.390 265.796,211.992 265.719,211.133 265.724 C 210.273 265.728,209.968 265.808,210.454 265.901 M181.641 266.544 C 181.641 266.918,183.560 269.922,183.799 269.922 C 183.906 269.922,183.529 269.175,182.960 268.262 C 181.764 266.341,181.641 266.181,181.641 266.544 M156.818 268.457 L 155.273 270.117 156.934 268.573 C 158.478 267.137,158.773 266.797,158.478 266.797 C 158.414 266.797,157.667 267.544,156.818 268.457 M116.390 269.238 C 118.009 270.963,118.359 271.273,118.359 270.980 C 118.359 270.917,117.524 270.082,116.504 269.124 L 114.648 267.383 116.390 269.238 M287.671 275.488 L 286.523 276.758 287.793 275.611 C 288.491 274.979,289.063 274.408,289.063 274.341 C 289.063 274.039,288.740 274.305,287.671 275.488 M135.650 277.233 C 136.244 277.323,137.123 277.321,137.603 277.228 C 138.083 277.135,137.598 277.062,136.523 277.065 C 135.449 277.068,135.056 277.144,135.650 277.233 M197.774 282.323 C 199.880 282.393,203.220 282.393,205.196 282.322 C 207.172 282.251,205.449 282.194,201.367 282.194 C 197.285 282.194,195.668 282.252,197.774 282.323 M237.402 282.324 C 243.901 282.384,254.536 282.384,261.035 282.324 C 267.534 282.264,262.217 282.215,249.219 282.215 C 236.221 282.215,230.903 282.264,237.402 282.324 " stroke="none" fill="#9ac8ca" fill-rule="evenodd"></path></g></svg>