<?xml version="1.0" standalone="no"?>
<!DOCTYPE svg PUBLIC "-//W3C//DTD SVG 20010904//EN"
 "http://www.w3.org/TR/2001/REC-SVG-20010904/DTD/svg10.dtd">
<svg version="1.0" xmlns="http://www.w3.org/2000/svg"
 width="1024.000000pt" height="1024.000000pt" viewBox="0 0 1024.000000 1024.000000"
 preserveAspectRatio="xMidYMid meet">

<g transform="translate(0.000000,1024.000000) scale(0.100000,-0.100000)"
fill="#000000" stroke="none">
<path d="M5857 7579 c-173 -41 -306 -189 -315 -351 l-4 -68 -87 0 c-62 0 -97
-6 -126 -19 -54 -24 -105 -69 -120 -104 l-12 -29 -164 -3 c-132 -3 -175 -7
-219 -23 -185 -66 -279 -158 -344 -342 l-31 -85 -3 -1490 c-2 -983 1 -1517 7
-1570 28 -216 196 -400 422 -462 60 -17 138 -18 1124 -15 1175 2 1102 -2 1239
70 128 67 215 169 263 311 l22 66 1 1548 c0 1516 0 1549 -20 1606 -66 197
-239 356 -425 390 -32 6 -131 11 -219 11 l-161 0 -35 48 c-52 70 -121 102
-222 102 -87 0 -80 -7 -93 90 -8 61 -47 139 -100 198 -91 101 -249 151 -378
121z m169 -217 c48 -25 107 -79 99 -92 -4 -6 -2 -10 3 -10 16 0 32 -50 43
-143 15 -112 24 -124 137 -179 45 -23 82 -46 82 -53 0 -6 -6 -20 -14 -30 -13
-17 -96 -29 -256 -35 -19 -1 -29 -4 -22 -7 6 -2 12 -16 12 -29 0 -20 -5 -24
-29 -24 -16 0 -31 -6 -33 -12 -7 -20 -604 -29 -636 -11 -64 39 -82 140 -34
194 35 39 88 50 203 42 67 -4 88 -3 95 8 5 8 12 61 15 119 5 87 10 114 32 157
28 55 96 118 137 126 45 10 127 -1 166 -21z m1066 -561 c130 -51 203 -160 220
-326 5 -51 8 -717 6 -1545 l-3 -1455 -30 -60 c-38 -76 -105 -144 -175 -178
l-55 -26 -1075 -1 c-650 -1 -1087 2 -1105 8 -130 40 -215 135 -244 270 -8 38
-11 484 -11 1567 l0 1514 38 72 c69 136 159 179 373 179 l124 0 12 -62 c19
-101 102 -193 196 -219 30 -8 194 -10 587 -7 610 6 582 2 666 80 54 50 94 126
94 181 l0 39 163 -4 c139 -3 170 -7 219 -27z"/>
<path d="M5883 7241 c-86 -54 -92 -204 -13 -283 31 -32 44 -38 79 -38 47 0 95
21 105 45 9 23 7 132 -3 184 -17 87 -102 133 -168 92z"/>
<path d="M5446 6373 c-4 -4 -99 -9 -212 -10 -223 -4 -235 -6 -289 -63 l-30
-32 1 -196 c1 -214 6 -239 60 -281 l27 -21 -39 -34 -39 -34 -3 -193 c-2 -106
-1 -203 3 -216 3 -12 19 -38 35 -57 l30 -33 -34 -37 c-44 -46 -48 -76 -44
-277 l3 -157 33 -45 c17 -25 32 -48 32 -52 0 -4 -13 -22 -29 -41 -38 -43 -44
-82 -39 -282 l3 -160 33 -47 c17 -25 32 -48 32 -51 0 -3 -14 -23 -32 -45 l-32
-40 0 -202 c0 -222 2 -233 64 -292 l31 -30 225 -3 225 -3 39 38 c23 23 42 55
48 78 7 31 10 330 3 401 -1 6 -17 31 -35 56 l-35 45 26 24 c47 43 51 69 48
282 l-3 199 -38 40 -39 39 29 21 c49 36 56 70 56 262 0 96 -4 185 -9 198 -5
13 -21 35 -35 50 -31 32 -32 44 -7 57 42 23 51 68 51 254 0 97 -4 186 -9 199
-5 13 -23 38 -40 57 l-31 33 34 32 c42 39 52 99 42 250 -6 98 -5 102 20 140
30 43 28 78 -6 126 -29 41 -104 73 -124 53z m44 -104 c28 -52 -4 -119 -85
-179 -29 -22 -79 -69 -111 -105 -33 -36 -66 -65 -74 -65 -16 0 -158 136 -149
143 10 9 49 27 58 27 6 0 29 -17 52 -37 37 -33 42 -35 51 -20 5 10 33 45 61
78 29 33 67 79 85 102 62 78 71 87 87 81 9 -4 20 -15 25 -25z m-221 -76 c3 -2
-3 -19 -12 -37 -19 -41 -38 -41 -114 -1 -80 42 -71 55 35 48 48 -3 89 -7 91
-10z m111 -284 c0 -32 -4 -39 -19 -39 -47 0 -51 10 -23 50 15 21 30 36 35 33
4 -2 7 -22 7 -44z m2 -429 l3 -160 -147 0 -148 0 0 114 c0 62 -3 134 -6 160
l-7 46 151 0 151 0 3 -160z m-27 -400 l26 -10 -3 -157 -3 -158 -142 -3 -143
-3 0 165 0 165 113 4 c61 1 115 4 119 5 4 1 18 -2 33 -8z m3 -566 c22 -6 22
-9 22 -169 l0 -162 -107 -6 c-58 -4 -123 -7 -145 -7 l-38 0 0 175 0 175 123 0
c67 0 132 -3 145 -6z m-253 -739 c0 -84 -3 -151 -6 -147 -12 13 -17 302 -5
302 8 0 11 -48 11 -155z m235 135 c0 -11 -56 -11 -145 0 -56 7 -53 7 43 9 62
0 102 -3 102 -9z m37 -197 c-2 -32 -3 -6 -3 57 0 63 1 89 3 58 2 -32 2 -84 0
-115z m-179 -90 c-10 -2 -28 -2 -40 0 -13 2 -5 4 17 4 22 1 32 -1 23 -4z"/>
<path d="M5813 6143 c-66 -33 -67 -117 -3 -161 l34 -23 539 3 539 3 34 37 c44
49 45 88 5 129 l-29 29 -544 -1 c-475 0 -547 -2 -575 -16z"/>
<path d="M5830 5579 c-60 -24 -82 -76 -55 -129 31 -60 17 -59 854 -52 l294 2
33 36 c44 46 45 84 5 125 l-29 29 -539 -1 c-330 0 -548 -4 -563 -10z"/>
<path d="M5985 5020 c-183 -6 -209 -15 -220 -74 -8 -39 14 -89 45 -106 14 -8
195 -11 568 -11 l547 1 33 35 c55 59 38 124 -41 154 -29 11 -621 12 -932 1z"/>
<path d="M5808 4413 c-56 -35 -62 -91 -14 -139 l34 -34 549 0 c508 1 550 2
569 18 53 45 59 107 13 146 l-31 26 -546 0 c-492 -1 -550 -2 -574 -17z"/>
<path d="M5797 3836 c-50 -47 -45 -105 13 -147 23 -17 63 -18 572 -20 529 -3
548 -2 569 17 29 25 47 70 41 100 -2 13 -18 35 -34 49 l-30 25 -552 0 -553 0
-26 -24z"/>
<path d="M2955 7431 c-150 -6 -176 -9 -217 -30 -71 -34 -130 -92 -169 -163
-34 -62 -34 -64 -34 -188 0 -107 4 -133 24 -183 32 -82 94 -154 163 -191 l57
-31 3 -1475 c3 -1647 -4 -1483 73 -1645 80 -168 278 -319 473 -360 210 -45
439 5 603 131 115 88 199 202 252 340 l22 59 3 1476 2 1475 41 18 c78 35 176
162 199 257 20 84 8 226 -24 293 -38 78 -116 160 -184 193 l-57 28 -530 1
c-291 0 -606 -2 -700 -5z m1182 -196 c37 -8 91 -63 109 -110 11 -31 15 -64 12
-113 -4 -84 -33 -133 -93 -161 -38 -19 -69 -19 -685 -18 -627 2 -646 3 -680
22 -76 44 -109 192 -63 280 24 46 68 90 100 102 23 8 1262 6 1300 -2z m-115
-1285 l3 -680 -133 0 c-127 0 -137 1 -203 31 -192 84 -251 102 -349 106 -109
6 -211 -12 -297 -52 -30 -14 -59 -25 -64 -25 -5 0 -9 283 -9 650 l0 650 525 0
525 0 2 -680z m-482 -794 c74 -37 158 -72 185 -79 l50 -12 1 -236 c0 -196 3
-241 16 -260 14 -23 28 -88 31 -154 1 -16 6 -33 11 -36 5 -4 -1 -12 -13 -19
-22 -11 -22 -15 -20 -208 2 -194 -9 -321 -35 -397 -13 -36 -137 -175 -156
-175 -6 0 -9 -4 -6 -9 14 -22 -135 -51 -260 -51 -73 0 -104 6 -173 30 -89 31
-112 31 -72 -1 13 -11 21 -22 17 -26 -3 -3 3 -12 14 -20 11 -8 20 -21 20 -29
0 -8 4 -13 9 -9 5 3 12 1 15 -3 3 -5 24 -9 46 -9 30 0 47 -7 66 -26 26 -26 81
-44 106 -34 7 3 3 6 -9 6 -13 1 -23 6 -23 11 0 6 27 10 60 10 33 0 60 4 60 10
0 6 9 10 20 10 11 0 20 5 20 10 0 6 9 10 20 10 11 0 20 -4 20 -10 0 -15 150
-13 151 3 0 10 2 10 6 0 13 -35 76 7 67 44 -5 19 -2 23 15 23 17 0 21 6 21 30
0 20 5 30 15 30 8 0 15 9 15 20 0 10 11 30 25 44 14 14 25 34 25 46 0 11 4 20
10 20 5 0 7 7 4 15 -5 11 1 15 20 15 19 0 26 5 26 20 0 33 27 23 34 -13 13
-69 -41 -173 -133 -259 -75 -69 -163 -118 -250 -138 -63 -15 -208 -8 -287 14
-131 35 -236 121 -293 239 -58 119 -60 148 -61 867 l-1 656 53 24 c165 74 192
80 303 76 75 -4 88 -8 215 -70z m480 -95 c0 -11 -51 -21 -65 -13 -5 3 1 9 15
13 36 10 50 10 50 0z m-13 -83 c-2 -13 -4 -3 -4 22 0 25 2 35 4 23 2 -13 2
-33 0 -45z m0 -215 c-3 -10 -5 -4 -5 12 0 17 2 24 5 18 2 -7 2 -21 0 -30z m-9
-575 c-22 -48 -38 -35 -38 32 0 33 -4 60 -10 60 -5 0 -10 9 -10 20 0 11 -4 20
-10 20 -5 0 -10 18 -10 40 0 33 3 40 18 38 14 -2 18 5 20 40 2 23 7 42 13 42
5 0 9 15 9 34 0 19 5 38 10 41 6 3 11 48 12 98 2 51 4 -27 5 -172 3 -196 0
-271 -9 -293z m9 -65 c-3 -10 -5 -4 -5 12 0 17 2 24 5 18 2 -7 2 -21 0 -30z
m10 -290 c-3 -10 -5 -2 -5 17 0 19 2 27 5 18 2 -10 2 -26 0 -35z m-10 -70 c-3
-10 -5 -4 -5 12 0 17 2 24 5 18 2 -7 2 -21 0 -30z"/>
</g>
</svg>
